%TF.GenerationSoftware,KiCad,Pcbnew,9.0.2*%
%TF.CreationDate,2025-11-08T23:40:13+05:30*%
%TF.ProjectId,RCUP_BASE_PCB_2,52435550-5f42-4415-9345-5f5043425f32,rev?*%
%TF.SameCoordinates,Original*%
%TF.FileFunction,Legend,Top*%
%TF.FilePolarity,Positive*%
%FSLAX46Y46*%
G04 Gerber Fmt 4.6, Leading zero omitted, Abs format (unit mm)*
G04 Created by KiCad (PCBNEW 9.0.2) date 2025-11-08 23:40:13*
%MOMM*%
%LPD*%
G01*
G04 APERTURE LIST*
%ADD10C,0.150000*%
%ADD11C,0.100000*%
%ADD12C,0.120000*%
%ADD13C,0.152400*%
G04 APERTURE END LIST*
D10*
X203738571Y-72584819D02*
X203929047Y-72584819D01*
X203929047Y-72584819D02*
X204024285Y-72632438D01*
X204024285Y-72632438D02*
X204119523Y-72727676D01*
X204119523Y-72727676D02*
X204167142Y-72918152D01*
X204167142Y-72918152D02*
X204167142Y-73251485D01*
X204167142Y-73251485D02*
X204119523Y-73441961D01*
X204119523Y-73441961D02*
X204024285Y-73537200D01*
X204024285Y-73537200D02*
X203929047Y-73584819D01*
X203929047Y-73584819D02*
X203738571Y-73584819D01*
X203738571Y-73584819D02*
X203643333Y-73537200D01*
X203643333Y-73537200D02*
X203548095Y-73441961D01*
X203548095Y-73441961D02*
X203500476Y-73251485D01*
X203500476Y-73251485D02*
X203500476Y-72918152D01*
X203500476Y-72918152D02*
X203548095Y-72727676D01*
X203548095Y-72727676D02*
X203643333Y-72632438D01*
X203643333Y-72632438D02*
X203738571Y-72584819D01*
X205167142Y-73489580D02*
X205119523Y-73537200D01*
X205119523Y-73537200D02*
X204976666Y-73584819D01*
X204976666Y-73584819D02*
X204881428Y-73584819D01*
X204881428Y-73584819D02*
X204738571Y-73537200D01*
X204738571Y-73537200D02*
X204643333Y-73441961D01*
X204643333Y-73441961D02*
X204595714Y-73346723D01*
X204595714Y-73346723D02*
X204548095Y-73156247D01*
X204548095Y-73156247D02*
X204548095Y-73013390D01*
X204548095Y-73013390D02*
X204595714Y-72822914D01*
X204595714Y-72822914D02*
X204643333Y-72727676D01*
X204643333Y-72727676D02*
X204738571Y-72632438D01*
X204738571Y-72632438D02*
X204881428Y-72584819D01*
X204881428Y-72584819D02*
X204976666Y-72584819D01*
X204976666Y-72584819D02*
X205119523Y-72632438D01*
X205119523Y-72632438D02*
X205167142Y-72680057D01*
X205548095Y-72680057D02*
X205595714Y-72632438D01*
X205595714Y-72632438D02*
X205690952Y-72584819D01*
X205690952Y-72584819D02*
X205929047Y-72584819D01*
X205929047Y-72584819D02*
X206024285Y-72632438D01*
X206024285Y-72632438D02*
X206071904Y-72680057D01*
X206071904Y-72680057D02*
X206119523Y-72775295D01*
X206119523Y-72775295D02*
X206119523Y-72870533D01*
X206119523Y-72870533D02*
X206071904Y-73013390D01*
X206071904Y-73013390D02*
X205500476Y-73584819D01*
X205500476Y-73584819D02*
X206119523Y-73584819D01*
X175434819Y-17553333D02*
X176149104Y-17553333D01*
X176149104Y-17553333D02*
X176291961Y-17600952D01*
X176291961Y-17600952D02*
X176387200Y-17696190D01*
X176387200Y-17696190D02*
X176434819Y-17839047D01*
X176434819Y-17839047D02*
X176434819Y-17934285D01*
X175768152Y-16648571D02*
X176434819Y-16648571D01*
X175387200Y-16886666D02*
X176101485Y-17124761D01*
X176101485Y-17124761D02*
X176101485Y-16505714D01*
X175434819Y-48033333D02*
X176149104Y-48033333D01*
X176149104Y-48033333D02*
X176291961Y-48080952D01*
X176291961Y-48080952D02*
X176387200Y-48176190D01*
X176387200Y-48176190D02*
X176434819Y-48319047D01*
X176434819Y-48319047D02*
X176434819Y-48414285D01*
X175434819Y-47652380D02*
X175434819Y-47033333D01*
X175434819Y-47033333D02*
X175815771Y-47366666D01*
X175815771Y-47366666D02*
X175815771Y-47223809D01*
X175815771Y-47223809D02*
X175863390Y-47128571D01*
X175863390Y-47128571D02*
X175911009Y-47080952D01*
X175911009Y-47080952D02*
X176006247Y-47033333D01*
X176006247Y-47033333D02*
X176244342Y-47033333D01*
X176244342Y-47033333D02*
X176339580Y-47080952D01*
X176339580Y-47080952D02*
X176387200Y-47128571D01*
X176387200Y-47128571D02*
X176434819Y-47223809D01*
X176434819Y-47223809D02*
X176434819Y-47509523D01*
X176434819Y-47509523D02*
X176387200Y-47604761D01*
X176387200Y-47604761D02*
X176339580Y-47652380D01*
X203679871Y-71070719D02*
X203870347Y-71070719D01*
X203870347Y-71070719D02*
X203965585Y-71118338D01*
X203965585Y-71118338D02*
X204060823Y-71213576D01*
X204060823Y-71213576D02*
X204108442Y-71404052D01*
X204108442Y-71404052D02*
X204108442Y-71737385D01*
X204108442Y-71737385D02*
X204060823Y-71927861D01*
X204060823Y-71927861D02*
X203965585Y-72023100D01*
X203965585Y-72023100D02*
X203870347Y-72070719D01*
X203870347Y-72070719D02*
X203679871Y-72070719D01*
X203679871Y-72070719D02*
X203584633Y-72023100D01*
X203584633Y-72023100D02*
X203489395Y-71927861D01*
X203489395Y-71927861D02*
X203441776Y-71737385D01*
X203441776Y-71737385D02*
X203441776Y-71404052D01*
X203441776Y-71404052D02*
X203489395Y-71213576D01*
X203489395Y-71213576D02*
X203584633Y-71118338D01*
X203584633Y-71118338D02*
X203679871Y-71070719D01*
X205108442Y-71975480D02*
X205060823Y-72023100D01*
X205060823Y-72023100D02*
X204917966Y-72070719D01*
X204917966Y-72070719D02*
X204822728Y-72070719D01*
X204822728Y-72070719D02*
X204679871Y-72023100D01*
X204679871Y-72023100D02*
X204584633Y-71927861D01*
X204584633Y-71927861D02*
X204537014Y-71832623D01*
X204537014Y-71832623D02*
X204489395Y-71642147D01*
X204489395Y-71642147D02*
X204489395Y-71499290D01*
X204489395Y-71499290D02*
X204537014Y-71308814D01*
X204537014Y-71308814D02*
X204584633Y-71213576D01*
X204584633Y-71213576D02*
X204679871Y-71118338D01*
X204679871Y-71118338D02*
X204822728Y-71070719D01*
X204822728Y-71070719D02*
X204917966Y-71070719D01*
X204917966Y-71070719D02*
X205060823Y-71118338D01*
X205060823Y-71118338D02*
X205108442Y-71165957D01*
X206060823Y-72070719D02*
X205489395Y-72070719D01*
X205775109Y-72070719D02*
X205775109Y-71070719D01*
X205775109Y-71070719D02*
X205679871Y-71213576D01*
X205679871Y-71213576D02*
X205584633Y-71308814D01*
X205584633Y-71308814D02*
X205489395Y-71356433D01*
X154068095Y-50338944D02*
X154068095Y-49338944D01*
X154068095Y-49815134D02*
X154639523Y-49815134D01*
X154639523Y-50338944D02*
X154639523Y-49338944D01*
X155020476Y-49338944D02*
X155687142Y-49338944D01*
X155687142Y-49338944D02*
X155258571Y-50338944D01*
X180977200Y-116303571D02*
X181024819Y-116160714D01*
X181024819Y-116160714D02*
X181024819Y-115922619D01*
X181024819Y-115922619D02*
X180977200Y-115827381D01*
X180977200Y-115827381D02*
X180929580Y-115779762D01*
X180929580Y-115779762D02*
X180834342Y-115732143D01*
X180834342Y-115732143D02*
X180739104Y-115732143D01*
X180739104Y-115732143D02*
X180643866Y-115779762D01*
X180643866Y-115779762D02*
X180596247Y-115827381D01*
X180596247Y-115827381D02*
X180548628Y-115922619D01*
X180548628Y-115922619D02*
X180501009Y-116113095D01*
X180501009Y-116113095D02*
X180453390Y-116208333D01*
X180453390Y-116208333D02*
X180405771Y-116255952D01*
X180405771Y-116255952D02*
X180310533Y-116303571D01*
X180310533Y-116303571D02*
X180215295Y-116303571D01*
X180215295Y-116303571D02*
X180120057Y-116255952D01*
X180120057Y-116255952D02*
X180072438Y-116208333D01*
X180072438Y-116208333D02*
X180024819Y-116113095D01*
X180024819Y-116113095D02*
X180024819Y-115875000D01*
X180024819Y-115875000D02*
X180072438Y-115732143D01*
X180024819Y-115446428D02*
X180024819Y-114875000D01*
X181024819Y-115160714D02*
X180024819Y-115160714D01*
X181024819Y-114541666D02*
X180024819Y-114541666D01*
X180024819Y-114541666D02*
X180739104Y-114208333D01*
X180739104Y-114208333D02*
X180024819Y-113875000D01*
X180024819Y-113875000D02*
X181024819Y-113875000D01*
X180501009Y-113065476D02*
X180501009Y-113398809D01*
X181024819Y-113398809D02*
X180024819Y-113398809D01*
X180024819Y-113398809D02*
X180024819Y-112922619D01*
X180358152Y-112113095D02*
X181024819Y-112113095D01*
X180358152Y-112541666D02*
X180881961Y-112541666D01*
X180881961Y-112541666D02*
X180977200Y-112494047D01*
X180977200Y-112494047D02*
X181024819Y-112398809D01*
X181024819Y-112398809D02*
X181024819Y-112255952D01*
X181024819Y-112255952D02*
X180977200Y-112160714D01*
X180977200Y-112160714D02*
X180929580Y-112113095D01*
X180977200Y-111684523D02*
X181024819Y-111589285D01*
X181024819Y-111589285D02*
X181024819Y-111398809D01*
X181024819Y-111398809D02*
X180977200Y-111303571D01*
X180977200Y-111303571D02*
X180881961Y-111255952D01*
X180881961Y-111255952D02*
X180834342Y-111255952D01*
X180834342Y-111255952D02*
X180739104Y-111303571D01*
X180739104Y-111303571D02*
X180691485Y-111398809D01*
X180691485Y-111398809D02*
X180691485Y-111541666D01*
X180691485Y-111541666D02*
X180643866Y-111636904D01*
X180643866Y-111636904D02*
X180548628Y-111684523D01*
X180548628Y-111684523D02*
X180501009Y-111684523D01*
X180501009Y-111684523D02*
X180405771Y-111636904D01*
X180405771Y-111636904D02*
X180358152Y-111541666D01*
X180358152Y-111541666D02*
X180358152Y-111398809D01*
X180358152Y-111398809D02*
X180405771Y-111303571D01*
X180977200Y-110446428D02*
X181024819Y-110541666D01*
X181024819Y-110541666D02*
X181024819Y-110732142D01*
X181024819Y-110732142D02*
X180977200Y-110827380D01*
X180977200Y-110827380D02*
X180881961Y-110874999D01*
X180881961Y-110874999D02*
X180501009Y-110874999D01*
X180501009Y-110874999D02*
X180405771Y-110827380D01*
X180405771Y-110827380D02*
X180358152Y-110732142D01*
X180358152Y-110732142D02*
X180358152Y-110541666D01*
X180358152Y-110541666D02*
X180405771Y-110446428D01*
X180405771Y-110446428D02*
X180501009Y-110398809D01*
X180501009Y-110398809D02*
X180596247Y-110398809D01*
X180596247Y-110398809D02*
X180691485Y-110874999D01*
X181024819Y-109446428D02*
X181024819Y-110017856D01*
X181024819Y-109732142D02*
X180024819Y-109732142D01*
X180024819Y-109732142D02*
X180167676Y-109827380D01*
X180167676Y-109827380D02*
X180262914Y-109922618D01*
X180262914Y-109922618D02*
X180310533Y-110017856D01*
X167190476Y-91654819D02*
X167190476Y-92369104D01*
X167190476Y-92369104D02*
X167142857Y-92511961D01*
X167142857Y-92511961D02*
X167047619Y-92607200D01*
X167047619Y-92607200D02*
X166904762Y-92654819D01*
X166904762Y-92654819D02*
X166809524Y-92654819D01*
X167619048Y-91750057D02*
X167666667Y-91702438D01*
X167666667Y-91702438D02*
X167761905Y-91654819D01*
X167761905Y-91654819D02*
X168000000Y-91654819D01*
X168000000Y-91654819D02*
X168095238Y-91702438D01*
X168095238Y-91702438D02*
X168142857Y-91750057D01*
X168142857Y-91750057D02*
X168190476Y-91845295D01*
X168190476Y-91845295D02*
X168190476Y-91940533D01*
X168190476Y-91940533D02*
X168142857Y-92083390D01*
X168142857Y-92083390D02*
X167571429Y-92654819D01*
X167571429Y-92654819D02*
X168190476Y-92654819D01*
X168523810Y-91654819D02*
X169190476Y-91654819D01*
X169190476Y-91654819D02*
X168761905Y-92654819D01*
X216574280Y-102240966D02*
X216621900Y-102288585D01*
X216621900Y-102288585D02*
X216669519Y-102431442D01*
X216669519Y-102431442D02*
X216669519Y-102526680D01*
X216669519Y-102526680D02*
X216621900Y-102669537D01*
X216621900Y-102669537D02*
X216526661Y-102764775D01*
X216526661Y-102764775D02*
X216431423Y-102812394D01*
X216431423Y-102812394D02*
X216240947Y-102860013D01*
X216240947Y-102860013D02*
X216098090Y-102860013D01*
X216098090Y-102860013D02*
X215907614Y-102812394D01*
X215907614Y-102812394D02*
X215812376Y-102764775D01*
X215812376Y-102764775D02*
X215717138Y-102669537D01*
X215717138Y-102669537D02*
X215669519Y-102526680D01*
X215669519Y-102526680D02*
X215669519Y-102431442D01*
X215669519Y-102431442D02*
X215717138Y-102288585D01*
X215717138Y-102288585D02*
X215764757Y-102240966D01*
X215764757Y-101860013D02*
X215717138Y-101812394D01*
X215717138Y-101812394D02*
X215669519Y-101717156D01*
X215669519Y-101717156D02*
X215669519Y-101479061D01*
X215669519Y-101479061D02*
X215717138Y-101383823D01*
X215717138Y-101383823D02*
X215764757Y-101336204D01*
X215764757Y-101336204D02*
X215859995Y-101288585D01*
X215859995Y-101288585D02*
X215955233Y-101288585D01*
X215955233Y-101288585D02*
X216098090Y-101336204D01*
X216098090Y-101336204D02*
X216669519Y-101907632D01*
X216669519Y-101907632D02*
X216669519Y-101288585D01*
X241063019Y-35987123D02*
X240063019Y-35987123D01*
X240063019Y-35987123D02*
X240777304Y-35653790D01*
X240777304Y-35653790D02*
X240063019Y-35320457D01*
X240063019Y-35320457D02*
X241063019Y-35320457D01*
X241063019Y-34844266D02*
X240063019Y-34844266D01*
X240063019Y-34844266D02*
X240063019Y-34606171D01*
X240063019Y-34606171D02*
X240110638Y-34463314D01*
X240110638Y-34463314D02*
X240205876Y-34368076D01*
X240205876Y-34368076D02*
X240301114Y-34320457D01*
X240301114Y-34320457D02*
X240491590Y-34272838D01*
X240491590Y-34272838D02*
X240634447Y-34272838D01*
X240634447Y-34272838D02*
X240824923Y-34320457D01*
X240824923Y-34320457D02*
X240920161Y-34368076D01*
X240920161Y-34368076D02*
X241015400Y-34463314D01*
X241015400Y-34463314D02*
X241063019Y-34606171D01*
X241063019Y-34606171D02*
X241063019Y-34844266D01*
X241063019Y-33844266D02*
X240063019Y-33844266D01*
X240063019Y-33844266D02*
X240063019Y-33606171D01*
X240063019Y-33606171D02*
X240110638Y-33463314D01*
X240110638Y-33463314D02*
X240205876Y-33368076D01*
X240205876Y-33368076D02*
X240301114Y-33320457D01*
X240301114Y-33320457D02*
X240491590Y-33272838D01*
X240491590Y-33272838D02*
X240634447Y-33272838D01*
X240634447Y-33272838D02*
X240824923Y-33320457D01*
X240824923Y-33320457D02*
X240920161Y-33368076D01*
X240920161Y-33368076D02*
X241015400Y-33463314D01*
X241015400Y-33463314D02*
X241063019Y-33606171D01*
X241063019Y-33606171D02*
X241063019Y-33844266D01*
X240063019Y-32939504D02*
X240063019Y-32320457D01*
X240063019Y-32320457D02*
X240443971Y-32653790D01*
X240443971Y-32653790D02*
X240443971Y-32510933D01*
X240443971Y-32510933D02*
X240491590Y-32415695D01*
X240491590Y-32415695D02*
X240539209Y-32368076D01*
X240539209Y-32368076D02*
X240634447Y-32320457D01*
X240634447Y-32320457D02*
X240872542Y-32320457D01*
X240872542Y-32320457D02*
X240967780Y-32368076D01*
X240967780Y-32368076D02*
X241015400Y-32415695D01*
X241015400Y-32415695D02*
X241063019Y-32510933D01*
X241063019Y-32510933D02*
X241063019Y-32796647D01*
X241063019Y-32796647D02*
X241015400Y-32891885D01*
X241015400Y-32891885D02*
X240967780Y-32939504D01*
X167190476Y-77821486D02*
X167190476Y-78535771D01*
X167190476Y-78535771D02*
X167142857Y-78678628D01*
X167142857Y-78678628D02*
X167047619Y-78773867D01*
X167047619Y-78773867D02*
X166904762Y-78821486D01*
X166904762Y-78821486D02*
X166809524Y-78821486D01*
X168190476Y-78821486D02*
X167619048Y-78821486D01*
X167904762Y-78821486D02*
X167904762Y-77821486D01*
X167904762Y-77821486D02*
X167809524Y-77964343D01*
X167809524Y-77964343D02*
X167714286Y-78059581D01*
X167714286Y-78059581D02*
X167619048Y-78107200D01*
X168666667Y-78821486D02*
X168857143Y-78821486D01*
X168857143Y-78821486D02*
X168952381Y-78773867D01*
X168952381Y-78773867D02*
X169000000Y-78726247D01*
X169000000Y-78726247D02*
X169095238Y-78583390D01*
X169095238Y-78583390D02*
X169142857Y-78392914D01*
X169142857Y-78392914D02*
X169142857Y-78011962D01*
X169142857Y-78011962D02*
X169095238Y-77916724D01*
X169095238Y-77916724D02*
X169047619Y-77869105D01*
X169047619Y-77869105D02*
X168952381Y-77821486D01*
X168952381Y-77821486D02*
X168761905Y-77821486D01*
X168761905Y-77821486D02*
X168666667Y-77869105D01*
X168666667Y-77869105D02*
X168619048Y-77916724D01*
X168619048Y-77916724D02*
X168571429Y-78011962D01*
X168571429Y-78011962D02*
X168571429Y-78250057D01*
X168571429Y-78250057D02*
X168619048Y-78345295D01*
X168619048Y-78345295D02*
X168666667Y-78392914D01*
X168666667Y-78392914D02*
X168761905Y-78440533D01*
X168761905Y-78440533D02*
X168952381Y-78440533D01*
X168952381Y-78440533D02*
X169047619Y-78392914D01*
X169047619Y-78392914D02*
X169095238Y-78345295D01*
X169095238Y-78345295D02*
X169142857Y-78250057D01*
X141154819Y-27409523D02*
X141869104Y-27409523D01*
X141869104Y-27409523D02*
X142011961Y-27457142D01*
X142011961Y-27457142D02*
X142107200Y-27552380D01*
X142107200Y-27552380D02*
X142154819Y-27695237D01*
X142154819Y-27695237D02*
X142154819Y-27790475D01*
X142154819Y-26409523D02*
X142154819Y-26980951D01*
X142154819Y-26695237D02*
X141154819Y-26695237D01*
X141154819Y-26695237D02*
X141297676Y-26790475D01*
X141297676Y-26790475D02*
X141392914Y-26885713D01*
X141392914Y-26885713D02*
X141440533Y-26980951D01*
X142154819Y-25457142D02*
X142154819Y-26028570D01*
X142154819Y-25742856D02*
X141154819Y-25742856D01*
X141154819Y-25742856D02*
X141297676Y-25838094D01*
X141297676Y-25838094D02*
X141392914Y-25933332D01*
X141392914Y-25933332D02*
X141440533Y-26028570D01*
X214704819Y-81333357D02*
X214228628Y-81666690D01*
X214704819Y-81904785D02*
X213704819Y-81904785D01*
X213704819Y-81904785D02*
X213704819Y-81523833D01*
X213704819Y-81523833D02*
X213752438Y-81428595D01*
X213752438Y-81428595D02*
X213800057Y-81380976D01*
X213800057Y-81380976D02*
X213895295Y-81333357D01*
X213895295Y-81333357D02*
X214038152Y-81333357D01*
X214038152Y-81333357D02*
X214133390Y-81380976D01*
X214133390Y-81380976D02*
X214181009Y-81428595D01*
X214181009Y-81428595D02*
X214228628Y-81523833D01*
X214228628Y-81523833D02*
X214228628Y-81904785D01*
X214704819Y-80380976D02*
X214704819Y-80952404D01*
X214704819Y-80666690D02*
X213704819Y-80666690D01*
X213704819Y-80666690D02*
X213847676Y-80761928D01*
X213847676Y-80761928D02*
X213942914Y-80857166D01*
X213942914Y-80857166D02*
X213990533Y-80952404D01*
X214133390Y-79809547D02*
X214085771Y-79904785D01*
X214085771Y-79904785D02*
X214038152Y-79952404D01*
X214038152Y-79952404D02*
X213942914Y-80000023D01*
X213942914Y-80000023D02*
X213895295Y-80000023D01*
X213895295Y-80000023D02*
X213800057Y-79952404D01*
X213800057Y-79952404D02*
X213752438Y-79904785D01*
X213752438Y-79904785D02*
X213704819Y-79809547D01*
X213704819Y-79809547D02*
X213704819Y-79619071D01*
X213704819Y-79619071D02*
X213752438Y-79523833D01*
X213752438Y-79523833D02*
X213800057Y-79476214D01*
X213800057Y-79476214D02*
X213895295Y-79428595D01*
X213895295Y-79428595D02*
X213942914Y-79428595D01*
X213942914Y-79428595D02*
X214038152Y-79476214D01*
X214038152Y-79476214D02*
X214085771Y-79523833D01*
X214085771Y-79523833D02*
X214133390Y-79619071D01*
X214133390Y-79619071D02*
X214133390Y-79809547D01*
X214133390Y-79809547D02*
X214181009Y-79904785D01*
X214181009Y-79904785D02*
X214228628Y-79952404D01*
X214228628Y-79952404D02*
X214323866Y-80000023D01*
X214323866Y-80000023D02*
X214514342Y-80000023D01*
X214514342Y-80000023D02*
X214609580Y-79952404D01*
X214609580Y-79952404D02*
X214657200Y-79904785D01*
X214657200Y-79904785D02*
X214704819Y-79809547D01*
X214704819Y-79809547D02*
X214704819Y-79619071D01*
X214704819Y-79619071D02*
X214657200Y-79523833D01*
X214657200Y-79523833D02*
X214609580Y-79476214D01*
X214609580Y-79476214D02*
X214514342Y-79428595D01*
X214514342Y-79428595D02*
X214323866Y-79428595D01*
X214323866Y-79428595D02*
X214228628Y-79476214D01*
X214228628Y-79476214D02*
X214181009Y-79523833D01*
X214181009Y-79523833D02*
X214133390Y-79619071D01*
X127460476Y-117344819D02*
X127460476Y-118059104D01*
X127460476Y-118059104D02*
X127412857Y-118201961D01*
X127412857Y-118201961D02*
X127317619Y-118297200D01*
X127317619Y-118297200D02*
X127174762Y-118344819D01*
X127174762Y-118344819D02*
X127079524Y-118344819D01*
X128460476Y-118344819D02*
X127889048Y-118344819D01*
X128174762Y-118344819D02*
X128174762Y-117344819D01*
X128174762Y-117344819D02*
X128079524Y-117487676D01*
X128079524Y-117487676D02*
X127984286Y-117582914D01*
X127984286Y-117582914D02*
X127889048Y-117630533D01*
X129365238Y-117344819D02*
X128889048Y-117344819D01*
X128889048Y-117344819D02*
X128841429Y-117821009D01*
X128841429Y-117821009D02*
X128889048Y-117773390D01*
X128889048Y-117773390D02*
X128984286Y-117725771D01*
X128984286Y-117725771D02*
X129222381Y-117725771D01*
X129222381Y-117725771D02*
X129317619Y-117773390D01*
X129317619Y-117773390D02*
X129365238Y-117821009D01*
X129365238Y-117821009D02*
X129412857Y-117916247D01*
X129412857Y-117916247D02*
X129412857Y-118154342D01*
X129412857Y-118154342D02*
X129365238Y-118249580D01*
X129365238Y-118249580D02*
X129317619Y-118297200D01*
X129317619Y-118297200D02*
X129222381Y-118344819D01*
X129222381Y-118344819D02*
X128984286Y-118344819D01*
X128984286Y-118344819D02*
X128889048Y-118297200D01*
X128889048Y-118297200D02*
X128841429Y-118249580D01*
X147790476Y-118154819D02*
X147790476Y-118869104D01*
X147790476Y-118869104D02*
X147742857Y-119011961D01*
X147742857Y-119011961D02*
X147647619Y-119107200D01*
X147647619Y-119107200D02*
X147504762Y-119154819D01*
X147504762Y-119154819D02*
X147409524Y-119154819D01*
X148219048Y-118250057D02*
X148266667Y-118202438D01*
X148266667Y-118202438D02*
X148361905Y-118154819D01*
X148361905Y-118154819D02*
X148600000Y-118154819D01*
X148600000Y-118154819D02*
X148695238Y-118202438D01*
X148695238Y-118202438D02*
X148742857Y-118250057D01*
X148742857Y-118250057D02*
X148790476Y-118345295D01*
X148790476Y-118345295D02*
X148790476Y-118440533D01*
X148790476Y-118440533D02*
X148742857Y-118583390D01*
X148742857Y-118583390D02*
X148171429Y-119154819D01*
X148171429Y-119154819D02*
X148790476Y-119154819D01*
X149123810Y-118154819D02*
X149742857Y-118154819D01*
X149742857Y-118154819D02*
X149409524Y-118535771D01*
X149409524Y-118535771D02*
X149552381Y-118535771D01*
X149552381Y-118535771D02*
X149647619Y-118583390D01*
X149647619Y-118583390D02*
X149695238Y-118631009D01*
X149695238Y-118631009D02*
X149742857Y-118726247D01*
X149742857Y-118726247D02*
X149742857Y-118964342D01*
X149742857Y-118964342D02*
X149695238Y-119059580D01*
X149695238Y-119059580D02*
X149647619Y-119107200D01*
X149647619Y-119107200D02*
X149552381Y-119154819D01*
X149552381Y-119154819D02*
X149266667Y-119154819D01*
X149266667Y-119154819D02*
X149171429Y-119107200D01*
X149171429Y-119107200D02*
X149123810Y-119059580D01*
D11*
X239542580Y-67024395D02*
X238733057Y-67024395D01*
X238733057Y-67024395D02*
X238637819Y-67072014D01*
X238637819Y-67072014D02*
X238590200Y-67119633D01*
X238590200Y-67119633D02*
X238542580Y-67214871D01*
X238542580Y-67214871D02*
X238542580Y-67405347D01*
X238542580Y-67405347D02*
X238590200Y-67500585D01*
X238590200Y-67500585D02*
X238637819Y-67548204D01*
X238637819Y-67548204D02*
X238733057Y-67595823D01*
X238733057Y-67595823D02*
X239542580Y-67595823D01*
X239542580Y-67976776D02*
X239542580Y-68595823D01*
X239542580Y-68595823D02*
X239161628Y-68262490D01*
X239161628Y-68262490D02*
X239161628Y-68405347D01*
X239161628Y-68405347D02*
X239114009Y-68500585D01*
X239114009Y-68500585D02*
X239066390Y-68548204D01*
X239066390Y-68548204D02*
X238971152Y-68595823D01*
X238971152Y-68595823D02*
X238733057Y-68595823D01*
X238733057Y-68595823D02*
X238637819Y-68548204D01*
X238637819Y-68548204D02*
X238590200Y-68500585D01*
X238590200Y-68500585D02*
X238542580Y-68405347D01*
X238542580Y-68405347D02*
X238542580Y-68119633D01*
X238542580Y-68119633D02*
X238590200Y-68024395D01*
X238590200Y-68024395D02*
X238637819Y-67976776D01*
D10*
X241164619Y-60900723D02*
X240164619Y-60900723D01*
X240164619Y-60900723D02*
X240878904Y-60567390D01*
X240878904Y-60567390D02*
X240164619Y-60234057D01*
X240164619Y-60234057D02*
X241164619Y-60234057D01*
X241164619Y-59757866D02*
X240164619Y-59757866D01*
X240164619Y-59757866D02*
X240164619Y-59519771D01*
X240164619Y-59519771D02*
X240212238Y-59376914D01*
X240212238Y-59376914D02*
X240307476Y-59281676D01*
X240307476Y-59281676D02*
X240402714Y-59234057D01*
X240402714Y-59234057D02*
X240593190Y-59186438D01*
X240593190Y-59186438D02*
X240736047Y-59186438D01*
X240736047Y-59186438D02*
X240926523Y-59234057D01*
X240926523Y-59234057D02*
X241021761Y-59281676D01*
X241021761Y-59281676D02*
X241117000Y-59376914D01*
X241117000Y-59376914D02*
X241164619Y-59519771D01*
X241164619Y-59519771D02*
X241164619Y-59757866D01*
X241164619Y-58757866D02*
X240164619Y-58757866D01*
X240164619Y-58757866D02*
X240164619Y-58519771D01*
X240164619Y-58519771D02*
X240212238Y-58376914D01*
X240212238Y-58376914D02*
X240307476Y-58281676D01*
X240307476Y-58281676D02*
X240402714Y-58234057D01*
X240402714Y-58234057D02*
X240593190Y-58186438D01*
X240593190Y-58186438D02*
X240736047Y-58186438D01*
X240736047Y-58186438D02*
X240926523Y-58234057D01*
X240926523Y-58234057D02*
X241021761Y-58281676D01*
X241021761Y-58281676D02*
X241117000Y-58376914D01*
X241117000Y-58376914D02*
X241164619Y-58519771D01*
X241164619Y-58519771D02*
X241164619Y-58757866D01*
X240497952Y-57329295D02*
X241164619Y-57329295D01*
X240117000Y-57567390D02*
X240831285Y-57805485D01*
X240831285Y-57805485D02*
X240831285Y-57186438D01*
X211878719Y-76151757D02*
X211402528Y-76485090D01*
X211878719Y-76723185D02*
X210878719Y-76723185D01*
X210878719Y-76723185D02*
X210878719Y-76342233D01*
X210878719Y-76342233D02*
X210926338Y-76246995D01*
X210926338Y-76246995D02*
X210973957Y-76199376D01*
X210973957Y-76199376D02*
X211069195Y-76151757D01*
X211069195Y-76151757D02*
X211212052Y-76151757D01*
X211212052Y-76151757D02*
X211307290Y-76199376D01*
X211307290Y-76199376D02*
X211354909Y-76246995D01*
X211354909Y-76246995D02*
X211402528Y-76342233D01*
X211402528Y-76342233D02*
X211402528Y-76723185D01*
X211878719Y-75199376D02*
X211878719Y-75770804D01*
X211878719Y-75485090D02*
X210878719Y-75485090D01*
X210878719Y-75485090D02*
X211021576Y-75580328D01*
X211021576Y-75580328D02*
X211116814Y-75675566D01*
X211116814Y-75675566D02*
X211164433Y-75770804D01*
X210878719Y-74866042D02*
X210878719Y-74199376D01*
X210878719Y-74199376D02*
X211878719Y-74627947D01*
X167190476Y-133154819D02*
X167190476Y-133869104D01*
X167190476Y-133869104D02*
X167142857Y-134011961D01*
X167142857Y-134011961D02*
X167047619Y-134107200D01*
X167047619Y-134107200D02*
X166904762Y-134154819D01*
X166904762Y-134154819D02*
X166809524Y-134154819D01*
X167619048Y-133250057D02*
X167666667Y-133202438D01*
X167666667Y-133202438D02*
X167761905Y-133154819D01*
X167761905Y-133154819D02*
X168000000Y-133154819D01*
X168000000Y-133154819D02*
X168095238Y-133202438D01*
X168095238Y-133202438D02*
X168142857Y-133250057D01*
X168142857Y-133250057D02*
X168190476Y-133345295D01*
X168190476Y-133345295D02*
X168190476Y-133440533D01*
X168190476Y-133440533D02*
X168142857Y-133583390D01*
X168142857Y-133583390D02*
X167571429Y-134154819D01*
X167571429Y-134154819D02*
X168190476Y-134154819D01*
X169142857Y-134154819D02*
X168571429Y-134154819D01*
X168857143Y-134154819D02*
X168857143Y-133154819D01*
X168857143Y-133154819D02*
X168761905Y-133297676D01*
X168761905Y-133297676D02*
X168666667Y-133392914D01*
X168666667Y-133392914D02*
X168571429Y-133440533D01*
X236833333Y-96929580D02*
X236785714Y-96977200D01*
X236785714Y-96977200D02*
X236642857Y-97024819D01*
X236642857Y-97024819D02*
X236547619Y-97024819D01*
X236547619Y-97024819D02*
X236404762Y-96977200D01*
X236404762Y-96977200D02*
X236309524Y-96881961D01*
X236309524Y-96881961D02*
X236261905Y-96786723D01*
X236261905Y-96786723D02*
X236214286Y-96596247D01*
X236214286Y-96596247D02*
X236214286Y-96453390D01*
X236214286Y-96453390D02*
X236261905Y-96262914D01*
X236261905Y-96262914D02*
X236309524Y-96167676D01*
X236309524Y-96167676D02*
X236404762Y-96072438D01*
X236404762Y-96072438D02*
X236547619Y-96024819D01*
X236547619Y-96024819D02*
X236642857Y-96024819D01*
X236642857Y-96024819D02*
X236785714Y-96072438D01*
X236785714Y-96072438D02*
X236833333Y-96120057D01*
X237166667Y-96024819D02*
X237785714Y-96024819D01*
X237785714Y-96024819D02*
X237452381Y-96405771D01*
X237452381Y-96405771D02*
X237595238Y-96405771D01*
X237595238Y-96405771D02*
X237690476Y-96453390D01*
X237690476Y-96453390D02*
X237738095Y-96501009D01*
X237738095Y-96501009D02*
X237785714Y-96596247D01*
X237785714Y-96596247D02*
X237785714Y-96834342D01*
X237785714Y-96834342D02*
X237738095Y-96929580D01*
X237738095Y-96929580D02*
X237690476Y-96977200D01*
X237690476Y-96977200D02*
X237595238Y-97024819D01*
X237595238Y-97024819D02*
X237309524Y-97024819D01*
X237309524Y-97024819D02*
X237214286Y-96977200D01*
X237214286Y-96977200D02*
X237166667Y-96929580D01*
X167190476Y-105488152D02*
X167190476Y-106202437D01*
X167190476Y-106202437D02*
X167142857Y-106345294D01*
X167142857Y-106345294D02*
X167047619Y-106440533D01*
X167047619Y-106440533D02*
X166904762Y-106488152D01*
X166904762Y-106488152D02*
X166809524Y-106488152D01*
X167619048Y-105583390D02*
X167666667Y-105535771D01*
X167666667Y-105535771D02*
X167761905Y-105488152D01*
X167761905Y-105488152D02*
X168000000Y-105488152D01*
X168000000Y-105488152D02*
X168095238Y-105535771D01*
X168095238Y-105535771D02*
X168142857Y-105583390D01*
X168142857Y-105583390D02*
X168190476Y-105678628D01*
X168190476Y-105678628D02*
X168190476Y-105773866D01*
X168190476Y-105773866D02*
X168142857Y-105916723D01*
X168142857Y-105916723D02*
X167571429Y-106488152D01*
X167571429Y-106488152D02*
X168190476Y-106488152D01*
X169047619Y-105488152D02*
X168857143Y-105488152D01*
X168857143Y-105488152D02*
X168761905Y-105535771D01*
X168761905Y-105535771D02*
X168714286Y-105583390D01*
X168714286Y-105583390D02*
X168619048Y-105726247D01*
X168619048Y-105726247D02*
X168571429Y-105916723D01*
X168571429Y-105916723D02*
X168571429Y-106297675D01*
X168571429Y-106297675D02*
X168619048Y-106392913D01*
X168619048Y-106392913D02*
X168666667Y-106440533D01*
X168666667Y-106440533D02*
X168761905Y-106488152D01*
X168761905Y-106488152D02*
X168952381Y-106488152D01*
X168952381Y-106488152D02*
X169047619Y-106440533D01*
X169047619Y-106440533D02*
X169095238Y-106392913D01*
X169095238Y-106392913D02*
X169142857Y-106297675D01*
X169142857Y-106297675D02*
X169142857Y-106059580D01*
X169142857Y-106059580D02*
X169095238Y-105964342D01*
X169095238Y-105964342D02*
X169047619Y-105916723D01*
X169047619Y-105916723D02*
X168952381Y-105869104D01*
X168952381Y-105869104D02*
X168761905Y-105869104D01*
X168761905Y-105869104D02*
X168666667Y-105916723D01*
X168666667Y-105916723D02*
X168619048Y-105964342D01*
X168619048Y-105964342D02*
X168571429Y-106059580D01*
X146790476Y-60154819D02*
X146790476Y-60869104D01*
X146790476Y-60869104D02*
X146742857Y-61011961D01*
X146742857Y-61011961D02*
X146647619Y-61107200D01*
X146647619Y-61107200D02*
X146504762Y-61154819D01*
X146504762Y-61154819D02*
X146409524Y-61154819D01*
X147219048Y-60250057D02*
X147266667Y-60202438D01*
X147266667Y-60202438D02*
X147361905Y-60154819D01*
X147361905Y-60154819D02*
X147600000Y-60154819D01*
X147600000Y-60154819D02*
X147695238Y-60202438D01*
X147695238Y-60202438D02*
X147742857Y-60250057D01*
X147742857Y-60250057D02*
X147790476Y-60345295D01*
X147790476Y-60345295D02*
X147790476Y-60440533D01*
X147790476Y-60440533D02*
X147742857Y-60583390D01*
X147742857Y-60583390D02*
X147171429Y-61154819D01*
X147171429Y-61154819D02*
X147790476Y-61154819D01*
X148266667Y-61154819D02*
X148457143Y-61154819D01*
X148457143Y-61154819D02*
X148552381Y-61107200D01*
X148552381Y-61107200D02*
X148600000Y-61059580D01*
X148600000Y-61059580D02*
X148695238Y-60916723D01*
X148695238Y-60916723D02*
X148742857Y-60726247D01*
X148742857Y-60726247D02*
X148742857Y-60345295D01*
X148742857Y-60345295D02*
X148695238Y-60250057D01*
X148695238Y-60250057D02*
X148647619Y-60202438D01*
X148647619Y-60202438D02*
X148552381Y-60154819D01*
X148552381Y-60154819D02*
X148361905Y-60154819D01*
X148361905Y-60154819D02*
X148266667Y-60202438D01*
X148266667Y-60202438D02*
X148219048Y-60250057D01*
X148219048Y-60250057D02*
X148171429Y-60345295D01*
X148171429Y-60345295D02*
X148171429Y-60583390D01*
X148171429Y-60583390D02*
X148219048Y-60678628D01*
X148219048Y-60678628D02*
X148266667Y-60726247D01*
X148266667Y-60726247D02*
X148361905Y-60773866D01*
X148361905Y-60773866D02*
X148552381Y-60773866D01*
X148552381Y-60773866D02*
X148647619Y-60726247D01*
X148647619Y-60726247D02*
X148695238Y-60678628D01*
X148695238Y-60678628D02*
X148742857Y-60583390D01*
X204068095Y-50338944D02*
X204068095Y-49338944D01*
X204068095Y-49815134D02*
X204639523Y-49815134D01*
X204639523Y-50338944D02*
X204639523Y-49338944D01*
X205258571Y-49767515D02*
X205163333Y-49719896D01*
X205163333Y-49719896D02*
X205115714Y-49672277D01*
X205115714Y-49672277D02*
X205068095Y-49577039D01*
X205068095Y-49577039D02*
X205068095Y-49529420D01*
X205068095Y-49529420D02*
X205115714Y-49434182D01*
X205115714Y-49434182D02*
X205163333Y-49386563D01*
X205163333Y-49386563D02*
X205258571Y-49338944D01*
X205258571Y-49338944D02*
X205449047Y-49338944D01*
X205449047Y-49338944D02*
X205544285Y-49386563D01*
X205544285Y-49386563D02*
X205591904Y-49434182D01*
X205591904Y-49434182D02*
X205639523Y-49529420D01*
X205639523Y-49529420D02*
X205639523Y-49577039D01*
X205639523Y-49577039D02*
X205591904Y-49672277D01*
X205591904Y-49672277D02*
X205544285Y-49719896D01*
X205544285Y-49719896D02*
X205449047Y-49767515D01*
X205449047Y-49767515D02*
X205258571Y-49767515D01*
X205258571Y-49767515D02*
X205163333Y-49815134D01*
X205163333Y-49815134D02*
X205115714Y-49862753D01*
X205115714Y-49862753D02*
X205068095Y-49957991D01*
X205068095Y-49957991D02*
X205068095Y-50148467D01*
X205068095Y-50148467D02*
X205115714Y-50243705D01*
X205115714Y-50243705D02*
X205163333Y-50291325D01*
X205163333Y-50291325D02*
X205258571Y-50338944D01*
X205258571Y-50338944D02*
X205449047Y-50338944D01*
X205449047Y-50338944D02*
X205544285Y-50291325D01*
X205544285Y-50291325D02*
X205591904Y-50243705D01*
X205591904Y-50243705D02*
X205639523Y-50148467D01*
X205639523Y-50148467D02*
X205639523Y-49957991D01*
X205639523Y-49957991D02*
X205591904Y-49862753D01*
X205591904Y-49862753D02*
X205544285Y-49815134D01*
X205544285Y-49815134D02*
X205449047Y-49767515D01*
X167190476Y-119321486D02*
X167190476Y-120035771D01*
X167190476Y-120035771D02*
X167142857Y-120178628D01*
X167142857Y-120178628D02*
X167047619Y-120273867D01*
X167047619Y-120273867D02*
X166904762Y-120321486D01*
X166904762Y-120321486D02*
X166809524Y-120321486D01*
X167619048Y-119416724D02*
X167666667Y-119369105D01*
X167666667Y-119369105D02*
X167761905Y-119321486D01*
X167761905Y-119321486D02*
X168000000Y-119321486D01*
X168000000Y-119321486D02*
X168095238Y-119369105D01*
X168095238Y-119369105D02*
X168142857Y-119416724D01*
X168142857Y-119416724D02*
X168190476Y-119511962D01*
X168190476Y-119511962D02*
X168190476Y-119607200D01*
X168190476Y-119607200D02*
X168142857Y-119750057D01*
X168142857Y-119750057D02*
X167571429Y-120321486D01*
X167571429Y-120321486D02*
X168190476Y-120321486D01*
X168761905Y-119750057D02*
X168666667Y-119702438D01*
X168666667Y-119702438D02*
X168619048Y-119654819D01*
X168619048Y-119654819D02*
X168571429Y-119559581D01*
X168571429Y-119559581D02*
X168571429Y-119511962D01*
X168571429Y-119511962D02*
X168619048Y-119416724D01*
X168619048Y-119416724D02*
X168666667Y-119369105D01*
X168666667Y-119369105D02*
X168761905Y-119321486D01*
X168761905Y-119321486D02*
X168952381Y-119321486D01*
X168952381Y-119321486D02*
X169047619Y-119369105D01*
X169047619Y-119369105D02*
X169095238Y-119416724D01*
X169095238Y-119416724D02*
X169142857Y-119511962D01*
X169142857Y-119511962D02*
X169142857Y-119559581D01*
X169142857Y-119559581D02*
X169095238Y-119654819D01*
X169095238Y-119654819D02*
X169047619Y-119702438D01*
X169047619Y-119702438D02*
X168952381Y-119750057D01*
X168952381Y-119750057D02*
X168761905Y-119750057D01*
X168761905Y-119750057D02*
X168666667Y-119797676D01*
X168666667Y-119797676D02*
X168619048Y-119845295D01*
X168619048Y-119845295D02*
X168571429Y-119940533D01*
X168571429Y-119940533D02*
X168571429Y-120131009D01*
X168571429Y-120131009D02*
X168619048Y-120226247D01*
X168619048Y-120226247D02*
X168666667Y-120273867D01*
X168666667Y-120273867D02*
X168761905Y-120321486D01*
X168761905Y-120321486D02*
X168952381Y-120321486D01*
X168952381Y-120321486D02*
X169047619Y-120273867D01*
X169047619Y-120273867D02*
X169095238Y-120226247D01*
X169095238Y-120226247D02*
X169142857Y-120131009D01*
X169142857Y-120131009D02*
X169142857Y-119940533D01*
X169142857Y-119940533D02*
X169095238Y-119845295D01*
X169095238Y-119845295D02*
X169047619Y-119797676D01*
X169047619Y-119797676D02*
X168952381Y-119750057D01*
X143177677Y-107739269D02*
X143177677Y-108453554D01*
X143177677Y-108453554D02*
X143130058Y-108596411D01*
X143130058Y-108596411D02*
X143034820Y-108691650D01*
X143034820Y-108691650D02*
X142891963Y-108739269D01*
X142891963Y-108739269D02*
X142796725Y-108739269D01*
X143558630Y-107739269D02*
X144177677Y-107739269D01*
X144177677Y-107739269D02*
X143844344Y-108120221D01*
X143844344Y-108120221D02*
X143987201Y-108120221D01*
X143987201Y-108120221D02*
X144082439Y-108167840D01*
X144082439Y-108167840D02*
X144130058Y-108215459D01*
X144130058Y-108215459D02*
X144177677Y-108310697D01*
X144177677Y-108310697D02*
X144177677Y-108548792D01*
X144177677Y-108548792D02*
X144130058Y-108644030D01*
X144130058Y-108644030D02*
X144082439Y-108691650D01*
X144082439Y-108691650D02*
X143987201Y-108739269D01*
X143987201Y-108739269D02*
X143701487Y-108739269D01*
X143701487Y-108739269D02*
X143606249Y-108691650D01*
X143606249Y-108691650D02*
X143558630Y-108644030D01*
X144796725Y-107739269D02*
X144891963Y-107739269D01*
X144891963Y-107739269D02*
X144987201Y-107786888D01*
X144987201Y-107786888D02*
X145034820Y-107834507D01*
X145034820Y-107834507D02*
X145082439Y-107929745D01*
X145082439Y-107929745D02*
X145130058Y-108120221D01*
X145130058Y-108120221D02*
X145130058Y-108358316D01*
X145130058Y-108358316D02*
X145082439Y-108548792D01*
X145082439Y-108548792D02*
X145034820Y-108644030D01*
X145034820Y-108644030D02*
X144987201Y-108691650D01*
X144987201Y-108691650D02*
X144891963Y-108739269D01*
X144891963Y-108739269D02*
X144796725Y-108739269D01*
X144796725Y-108739269D02*
X144701487Y-108691650D01*
X144701487Y-108691650D02*
X144653868Y-108644030D01*
X144653868Y-108644030D02*
X144606249Y-108548792D01*
X144606249Y-108548792D02*
X144558630Y-108358316D01*
X144558630Y-108358316D02*
X144558630Y-108120221D01*
X144558630Y-108120221D02*
X144606249Y-107929745D01*
X144606249Y-107929745D02*
X144653868Y-107834507D01*
X144653868Y-107834507D02*
X144701487Y-107786888D01*
X144701487Y-107786888D02*
X144796725Y-107739269D01*
X183381009Y-78107195D02*
X183381009Y-77773862D01*
X183904819Y-77631005D02*
X183904819Y-78107195D01*
X183904819Y-78107195D02*
X182904819Y-78107195D01*
X182904819Y-78107195D02*
X182904819Y-77631005D01*
X183238152Y-77202433D02*
X183904819Y-77202433D01*
X183333390Y-77202433D02*
X183285771Y-77154814D01*
X183285771Y-77154814D02*
X183238152Y-77059576D01*
X183238152Y-77059576D02*
X183238152Y-76916719D01*
X183238152Y-76916719D02*
X183285771Y-76821481D01*
X183285771Y-76821481D02*
X183381009Y-76773862D01*
X183381009Y-76773862D02*
X183904819Y-76773862D01*
X183857200Y-75869100D02*
X183904819Y-75964338D01*
X183904819Y-75964338D02*
X183904819Y-76154814D01*
X183904819Y-76154814D02*
X183857200Y-76250052D01*
X183857200Y-76250052D02*
X183809580Y-76297671D01*
X183809580Y-76297671D02*
X183714342Y-76345290D01*
X183714342Y-76345290D02*
X183428628Y-76345290D01*
X183428628Y-76345290D02*
X183333390Y-76297671D01*
X183333390Y-76297671D02*
X183285771Y-76250052D01*
X183285771Y-76250052D02*
X183238152Y-76154814D01*
X183238152Y-76154814D02*
X183238152Y-75964338D01*
X183238152Y-75964338D02*
X183285771Y-75869100D01*
X183904819Y-75297671D02*
X183857200Y-75392909D01*
X183857200Y-75392909D02*
X183809580Y-75440528D01*
X183809580Y-75440528D02*
X183714342Y-75488147D01*
X183714342Y-75488147D02*
X183428628Y-75488147D01*
X183428628Y-75488147D02*
X183333390Y-75440528D01*
X183333390Y-75440528D02*
X183285771Y-75392909D01*
X183285771Y-75392909D02*
X183238152Y-75297671D01*
X183238152Y-75297671D02*
X183238152Y-75154814D01*
X183238152Y-75154814D02*
X183285771Y-75059576D01*
X183285771Y-75059576D02*
X183333390Y-75011957D01*
X183333390Y-75011957D02*
X183428628Y-74964338D01*
X183428628Y-74964338D02*
X183714342Y-74964338D01*
X183714342Y-74964338D02*
X183809580Y-75011957D01*
X183809580Y-75011957D02*
X183857200Y-75059576D01*
X183857200Y-75059576D02*
X183904819Y-75154814D01*
X183904819Y-75154814D02*
X183904819Y-75297671D01*
X183904819Y-74107195D02*
X182904819Y-74107195D01*
X183857200Y-74107195D02*
X183904819Y-74202433D01*
X183904819Y-74202433D02*
X183904819Y-74392909D01*
X183904819Y-74392909D02*
X183857200Y-74488147D01*
X183857200Y-74488147D02*
X183809580Y-74535766D01*
X183809580Y-74535766D02*
X183714342Y-74583385D01*
X183714342Y-74583385D02*
X183428628Y-74583385D01*
X183428628Y-74583385D02*
X183333390Y-74535766D01*
X183333390Y-74535766D02*
X183285771Y-74488147D01*
X183285771Y-74488147D02*
X183238152Y-74392909D01*
X183238152Y-74392909D02*
X183238152Y-74202433D01*
X183238152Y-74202433D02*
X183285771Y-74107195D01*
X183857200Y-73250052D02*
X183904819Y-73345290D01*
X183904819Y-73345290D02*
X183904819Y-73535766D01*
X183904819Y-73535766D02*
X183857200Y-73631004D01*
X183857200Y-73631004D02*
X183761961Y-73678623D01*
X183761961Y-73678623D02*
X183381009Y-73678623D01*
X183381009Y-73678623D02*
X183285771Y-73631004D01*
X183285771Y-73631004D02*
X183238152Y-73535766D01*
X183238152Y-73535766D02*
X183238152Y-73345290D01*
X183238152Y-73345290D02*
X183285771Y-73250052D01*
X183285771Y-73250052D02*
X183381009Y-73202433D01*
X183381009Y-73202433D02*
X183476247Y-73202433D01*
X183476247Y-73202433D02*
X183571485Y-73678623D01*
X183904819Y-72773861D02*
X183238152Y-72773861D01*
X183428628Y-72773861D02*
X183333390Y-72726242D01*
X183333390Y-72726242D02*
X183285771Y-72678623D01*
X183285771Y-72678623D02*
X183238152Y-72583385D01*
X183238152Y-72583385D02*
X183238152Y-72488147D01*
X183904819Y-71631004D02*
X183904819Y-72202432D01*
X183904819Y-71916718D02*
X182904819Y-71916718D01*
X182904819Y-71916718D02*
X183047676Y-72011956D01*
X183047676Y-72011956D02*
X183142914Y-72107194D01*
X183142914Y-72107194D02*
X183190533Y-72202432D01*
X154068095Y-100338944D02*
X154068095Y-99338944D01*
X154068095Y-99815134D02*
X154639523Y-99815134D01*
X154639523Y-100338944D02*
X154639523Y-99338944D01*
X155544285Y-99338944D02*
X155353809Y-99338944D01*
X155353809Y-99338944D02*
X155258571Y-99386563D01*
X155258571Y-99386563D02*
X155210952Y-99434182D01*
X155210952Y-99434182D02*
X155115714Y-99577039D01*
X155115714Y-99577039D02*
X155068095Y-99767515D01*
X155068095Y-99767515D02*
X155068095Y-100148467D01*
X155068095Y-100148467D02*
X155115714Y-100243705D01*
X155115714Y-100243705D02*
X155163333Y-100291325D01*
X155163333Y-100291325D02*
X155258571Y-100338944D01*
X155258571Y-100338944D02*
X155449047Y-100338944D01*
X155449047Y-100338944D02*
X155544285Y-100291325D01*
X155544285Y-100291325D02*
X155591904Y-100243705D01*
X155591904Y-100243705D02*
X155639523Y-100148467D01*
X155639523Y-100148467D02*
X155639523Y-99910372D01*
X155639523Y-99910372D02*
X155591904Y-99815134D01*
X155591904Y-99815134D02*
X155544285Y-99767515D01*
X155544285Y-99767515D02*
X155449047Y-99719896D01*
X155449047Y-99719896D02*
X155258571Y-99719896D01*
X155258571Y-99719896D02*
X155163333Y-99767515D01*
X155163333Y-99767515D02*
X155115714Y-99815134D01*
X155115714Y-99815134D02*
X155068095Y-99910372D01*
X217024819Y-107166666D02*
X216548628Y-107499999D01*
X217024819Y-107738094D02*
X216024819Y-107738094D01*
X216024819Y-107738094D02*
X216024819Y-107357142D01*
X216024819Y-107357142D02*
X216072438Y-107261904D01*
X216072438Y-107261904D02*
X216120057Y-107214285D01*
X216120057Y-107214285D02*
X216215295Y-107166666D01*
X216215295Y-107166666D02*
X216358152Y-107166666D01*
X216358152Y-107166666D02*
X216453390Y-107214285D01*
X216453390Y-107214285D02*
X216501009Y-107261904D01*
X216501009Y-107261904D02*
X216548628Y-107357142D01*
X216548628Y-107357142D02*
X216548628Y-107738094D01*
X217024819Y-106690475D02*
X217024819Y-106499999D01*
X217024819Y-106499999D02*
X216977200Y-106404761D01*
X216977200Y-106404761D02*
X216929580Y-106357142D01*
X216929580Y-106357142D02*
X216786723Y-106261904D01*
X216786723Y-106261904D02*
X216596247Y-106214285D01*
X216596247Y-106214285D02*
X216215295Y-106214285D01*
X216215295Y-106214285D02*
X216120057Y-106261904D01*
X216120057Y-106261904D02*
X216072438Y-106309523D01*
X216072438Y-106309523D02*
X216024819Y-106404761D01*
X216024819Y-106404761D02*
X216024819Y-106595237D01*
X216024819Y-106595237D02*
X216072438Y-106690475D01*
X216072438Y-106690475D02*
X216120057Y-106738094D01*
X216120057Y-106738094D02*
X216215295Y-106785713D01*
X216215295Y-106785713D02*
X216453390Y-106785713D01*
X216453390Y-106785713D02*
X216548628Y-106738094D01*
X216548628Y-106738094D02*
X216596247Y-106690475D01*
X216596247Y-106690475D02*
X216643866Y-106595237D01*
X216643866Y-106595237D02*
X216643866Y-106404761D01*
X216643866Y-106404761D02*
X216596247Y-106309523D01*
X216596247Y-106309523D02*
X216548628Y-106261904D01*
X216548628Y-106261904D02*
X216453390Y-106214285D01*
X129154819Y-27409523D02*
X129869104Y-27409523D01*
X129869104Y-27409523D02*
X130011961Y-27457142D01*
X130011961Y-27457142D02*
X130107200Y-27552380D01*
X130107200Y-27552380D02*
X130154819Y-27695237D01*
X130154819Y-27695237D02*
X130154819Y-27790475D01*
X130154819Y-26409523D02*
X130154819Y-26980951D01*
X130154819Y-26695237D02*
X129154819Y-26695237D01*
X129154819Y-26695237D02*
X129297676Y-26790475D01*
X129297676Y-26790475D02*
X129392914Y-26885713D01*
X129392914Y-26885713D02*
X129440533Y-26980951D01*
X129154819Y-25790475D02*
X129154819Y-25695237D01*
X129154819Y-25695237D02*
X129202438Y-25599999D01*
X129202438Y-25599999D02*
X129250057Y-25552380D01*
X129250057Y-25552380D02*
X129345295Y-25504761D01*
X129345295Y-25504761D02*
X129535771Y-25457142D01*
X129535771Y-25457142D02*
X129773866Y-25457142D01*
X129773866Y-25457142D02*
X129964342Y-25504761D01*
X129964342Y-25504761D02*
X130059580Y-25552380D01*
X130059580Y-25552380D02*
X130107200Y-25599999D01*
X130107200Y-25599999D02*
X130154819Y-25695237D01*
X130154819Y-25695237D02*
X130154819Y-25790475D01*
X130154819Y-25790475D02*
X130107200Y-25885713D01*
X130107200Y-25885713D02*
X130059580Y-25933332D01*
X130059580Y-25933332D02*
X129964342Y-25980951D01*
X129964342Y-25980951D02*
X129773866Y-26028570D01*
X129773866Y-26028570D02*
X129535771Y-26028570D01*
X129535771Y-26028570D02*
X129345295Y-25980951D01*
X129345295Y-25980951D02*
X129250057Y-25933332D01*
X129250057Y-25933332D02*
X129202438Y-25885713D01*
X129202438Y-25885713D02*
X129154819Y-25790475D01*
X148190476Y-132154819D02*
X148190476Y-132869104D01*
X148190476Y-132869104D02*
X148142857Y-133011961D01*
X148142857Y-133011961D02*
X148047619Y-133107200D01*
X148047619Y-133107200D02*
X147904762Y-133154819D01*
X147904762Y-133154819D02*
X147809524Y-133154819D01*
X148619048Y-132250057D02*
X148666667Y-132202438D01*
X148666667Y-132202438D02*
X148761905Y-132154819D01*
X148761905Y-132154819D02*
X149000000Y-132154819D01*
X149000000Y-132154819D02*
X149095238Y-132202438D01*
X149095238Y-132202438D02*
X149142857Y-132250057D01*
X149142857Y-132250057D02*
X149190476Y-132345295D01*
X149190476Y-132345295D02*
X149190476Y-132440533D01*
X149190476Y-132440533D02*
X149142857Y-132583390D01*
X149142857Y-132583390D02*
X148571429Y-133154819D01*
X148571429Y-133154819D02*
X149190476Y-133154819D01*
X149809524Y-132154819D02*
X149904762Y-132154819D01*
X149904762Y-132154819D02*
X150000000Y-132202438D01*
X150000000Y-132202438D02*
X150047619Y-132250057D01*
X150047619Y-132250057D02*
X150095238Y-132345295D01*
X150095238Y-132345295D02*
X150142857Y-132535771D01*
X150142857Y-132535771D02*
X150142857Y-132773866D01*
X150142857Y-132773866D02*
X150095238Y-132964342D01*
X150095238Y-132964342D02*
X150047619Y-133059580D01*
X150047619Y-133059580D02*
X150000000Y-133107200D01*
X150000000Y-133107200D02*
X149904762Y-133154819D01*
X149904762Y-133154819D02*
X149809524Y-133154819D01*
X149809524Y-133154819D02*
X149714286Y-133107200D01*
X149714286Y-133107200D02*
X149666667Y-133059580D01*
X149666667Y-133059580D02*
X149619048Y-132964342D01*
X149619048Y-132964342D02*
X149571429Y-132773866D01*
X149571429Y-132773866D02*
X149571429Y-132535771D01*
X149571429Y-132535771D02*
X149619048Y-132345295D01*
X149619048Y-132345295D02*
X149666667Y-132250057D01*
X149666667Y-132250057D02*
X149714286Y-132202438D01*
X149714286Y-132202438D02*
X149809524Y-132154819D01*
X138190476Y-51754819D02*
X138190476Y-52469104D01*
X138190476Y-52469104D02*
X138142857Y-52611961D01*
X138142857Y-52611961D02*
X138047619Y-52707200D01*
X138047619Y-52707200D02*
X137904762Y-52754819D01*
X137904762Y-52754819D02*
X137809524Y-52754819D01*
X138619048Y-51850057D02*
X138666667Y-51802438D01*
X138666667Y-51802438D02*
X138761905Y-51754819D01*
X138761905Y-51754819D02*
X139000000Y-51754819D01*
X139000000Y-51754819D02*
X139095238Y-51802438D01*
X139095238Y-51802438D02*
X139142857Y-51850057D01*
X139142857Y-51850057D02*
X139190476Y-51945295D01*
X139190476Y-51945295D02*
X139190476Y-52040533D01*
X139190476Y-52040533D02*
X139142857Y-52183390D01*
X139142857Y-52183390D02*
X138571429Y-52754819D01*
X138571429Y-52754819D02*
X139190476Y-52754819D01*
X140047619Y-52088152D02*
X140047619Y-52754819D01*
X139809524Y-51707200D02*
X139571429Y-52421485D01*
X139571429Y-52421485D02*
X140190476Y-52421485D01*
X183381009Y-93659690D02*
X183381009Y-93326357D01*
X183904819Y-93183500D02*
X183904819Y-93659690D01*
X183904819Y-93659690D02*
X182904819Y-93659690D01*
X182904819Y-93659690D02*
X182904819Y-93183500D01*
X183238152Y-92754928D02*
X183904819Y-92754928D01*
X183333390Y-92754928D02*
X183285771Y-92707309D01*
X183285771Y-92707309D02*
X183238152Y-92612071D01*
X183238152Y-92612071D02*
X183238152Y-92469214D01*
X183238152Y-92469214D02*
X183285771Y-92373976D01*
X183285771Y-92373976D02*
X183381009Y-92326357D01*
X183381009Y-92326357D02*
X183904819Y-92326357D01*
X183857200Y-91421595D02*
X183904819Y-91516833D01*
X183904819Y-91516833D02*
X183904819Y-91707309D01*
X183904819Y-91707309D02*
X183857200Y-91802547D01*
X183857200Y-91802547D02*
X183809580Y-91850166D01*
X183809580Y-91850166D02*
X183714342Y-91897785D01*
X183714342Y-91897785D02*
X183428628Y-91897785D01*
X183428628Y-91897785D02*
X183333390Y-91850166D01*
X183333390Y-91850166D02*
X183285771Y-91802547D01*
X183285771Y-91802547D02*
X183238152Y-91707309D01*
X183238152Y-91707309D02*
X183238152Y-91516833D01*
X183238152Y-91516833D02*
X183285771Y-91421595D01*
X183904819Y-90850166D02*
X183857200Y-90945404D01*
X183857200Y-90945404D02*
X183809580Y-90993023D01*
X183809580Y-90993023D02*
X183714342Y-91040642D01*
X183714342Y-91040642D02*
X183428628Y-91040642D01*
X183428628Y-91040642D02*
X183333390Y-90993023D01*
X183333390Y-90993023D02*
X183285771Y-90945404D01*
X183285771Y-90945404D02*
X183238152Y-90850166D01*
X183238152Y-90850166D02*
X183238152Y-90707309D01*
X183238152Y-90707309D02*
X183285771Y-90612071D01*
X183285771Y-90612071D02*
X183333390Y-90564452D01*
X183333390Y-90564452D02*
X183428628Y-90516833D01*
X183428628Y-90516833D02*
X183714342Y-90516833D01*
X183714342Y-90516833D02*
X183809580Y-90564452D01*
X183809580Y-90564452D02*
X183857200Y-90612071D01*
X183857200Y-90612071D02*
X183904819Y-90707309D01*
X183904819Y-90707309D02*
X183904819Y-90850166D01*
X183904819Y-89659690D02*
X182904819Y-89659690D01*
X183857200Y-89659690D02*
X183904819Y-89754928D01*
X183904819Y-89754928D02*
X183904819Y-89945404D01*
X183904819Y-89945404D02*
X183857200Y-90040642D01*
X183857200Y-90040642D02*
X183809580Y-90088261D01*
X183809580Y-90088261D02*
X183714342Y-90135880D01*
X183714342Y-90135880D02*
X183428628Y-90135880D01*
X183428628Y-90135880D02*
X183333390Y-90088261D01*
X183333390Y-90088261D02*
X183285771Y-90040642D01*
X183285771Y-90040642D02*
X183238152Y-89945404D01*
X183238152Y-89945404D02*
X183238152Y-89754928D01*
X183238152Y-89754928D02*
X183285771Y-89659690D01*
X183857200Y-88802547D02*
X183904819Y-88897785D01*
X183904819Y-88897785D02*
X183904819Y-89088261D01*
X183904819Y-89088261D02*
X183857200Y-89183499D01*
X183857200Y-89183499D02*
X183761961Y-89231118D01*
X183761961Y-89231118D02*
X183381009Y-89231118D01*
X183381009Y-89231118D02*
X183285771Y-89183499D01*
X183285771Y-89183499D02*
X183238152Y-89088261D01*
X183238152Y-89088261D02*
X183238152Y-88897785D01*
X183238152Y-88897785D02*
X183285771Y-88802547D01*
X183285771Y-88802547D02*
X183381009Y-88754928D01*
X183381009Y-88754928D02*
X183476247Y-88754928D01*
X183476247Y-88754928D02*
X183571485Y-89231118D01*
X183904819Y-88326356D02*
X183238152Y-88326356D01*
X183428628Y-88326356D02*
X183333390Y-88278737D01*
X183333390Y-88278737D02*
X183285771Y-88231118D01*
X183285771Y-88231118D02*
X183238152Y-88135880D01*
X183238152Y-88135880D02*
X183238152Y-88040642D01*
X183000057Y-87754927D02*
X182952438Y-87707308D01*
X182952438Y-87707308D02*
X182904819Y-87612070D01*
X182904819Y-87612070D02*
X182904819Y-87373975D01*
X182904819Y-87373975D02*
X182952438Y-87278737D01*
X182952438Y-87278737D02*
X183000057Y-87231118D01*
X183000057Y-87231118D02*
X183095295Y-87183499D01*
X183095295Y-87183499D02*
X183190533Y-87183499D01*
X183190533Y-87183499D02*
X183333390Y-87231118D01*
X183333390Y-87231118D02*
X183904819Y-87802546D01*
X183904819Y-87802546D02*
X183904819Y-87183499D01*
X204068095Y-100338944D02*
X204068095Y-99338944D01*
X204068095Y-99815134D02*
X204639523Y-99815134D01*
X204639523Y-100338944D02*
X204639523Y-99338944D01*
X205591904Y-99338944D02*
X205115714Y-99338944D01*
X205115714Y-99338944D02*
X205068095Y-99815134D01*
X205068095Y-99815134D02*
X205115714Y-99767515D01*
X205115714Y-99767515D02*
X205210952Y-99719896D01*
X205210952Y-99719896D02*
X205449047Y-99719896D01*
X205449047Y-99719896D02*
X205544285Y-99767515D01*
X205544285Y-99767515D02*
X205591904Y-99815134D01*
X205591904Y-99815134D02*
X205639523Y-99910372D01*
X205639523Y-99910372D02*
X205639523Y-100148467D01*
X205639523Y-100148467D02*
X205591904Y-100243705D01*
X205591904Y-100243705D02*
X205544285Y-100291325D01*
X205544285Y-100291325D02*
X205449047Y-100338944D01*
X205449047Y-100338944D02*
X205210952Y-100338944D01*
X205210952Y-100338944D02*
X205115714Y-100291325D01*
X205115714Y-100291325D02*
X205068095Y-100243705D01*
X169066666Y-61754819D02*
X169066666Y-62469104D01*
X169066666Y-62469104D02*
X169019047Y-62611961D01*
X169019047Y-62611961D02*
X168923809Y-62707200D01*
X168923809Y-62707200D02*
X168780952Y-62754819D01*
X168780952Y-62754819D02*
X168685714Y-62754819D01*
X169685714Y-62183390D02*
X169590476Y-62135771D01*
X169590476Y-62135771D02*
X169542857Y-62088152D01*
X169542857Y-62088152D02*
X169495238Y-61992914D01*
X169495238Y-61992914D02*
X169495238Y-61945295D01*
X169495238Y-61945295D02*
X169542857Y-61850057D01*
X169542857Y-61850057D02*
X169590476Y-61802438D01*
X169590476Y-61802438D02*
X169685714Y-61754819D01*
X169685714Y-61754819D02*
X169876190Y-61754819D01*
X169876190Y-61754819D02*
X169971428Y-61802438D01*
X169971428Y-61802438D02*
X170019047Y-61850057D01*
X170019047Y-61850057D02*
X170066666Y-61945295D01*
X170066666Y-61945295D02*
X170066666Y-61992914D01*
X170066666Y-61992914D02*
X170019047Y-62088152D01*
X170019047Y-62088152D02*
X169971428Y-62135771D01*
X169971428Y-62135771D02*
X169876190Y-62183390D01*
X169876190Y-62183390D02*
X169685714Y-62183390D01*
X169685714Y-62183390D02*
X169590476Y-62231009D01*
X169590476Y-62231009D02*
X169542857Y-62278628D01*
X169542857Y-62278628D02*
X169495238Y-62373866D01*
X169495238Y-62373866D02*
X169495238Y-62564342D01*
X169495238Y-62564342D02*
X169542857Y-62659580D01*
X169542857Y-62659580D02*
X169590476Y-62707200D01*
X169590476Y-62707200D02*
X169685714Y-62754819D01*
X169685714Y-62754819D02*
X169876190Y-62754819D01*
X169876190Y-62754819D02*
X169971428Y-62707200D01*
X169971428Y-62707200D02*
X170019047Y-62659580D01*
X170019047Y-62659580D02*
X170066666Y-62564342D01*
X170066666Y-62564342D02*
X170066666Y-62373866D01*
X170066666Y-62373866D02*
X170019047Y-62278628D01*
X170019047Y-62278628D02*
X169971428Y-62231009D01*
X169971428Y-62231009D02*
X169876190Y-62183390D01*
X222958333Y-96204819D02*
X222482143Y-96204819D01*
X222482143Y-96204819D02*
X222482143Y-95204819D01*
X223815476Y-96204819D02*
X223244048Y-96204819D01*
X223529762Y-96204819D02*
X223529762Y-95204819D01*
X223529762Y-95204819D02*
X223434524Y-95347676D01*
X223434524Y-95347676D02*
X223339286Y-95442914D01*
X223339286Y-95442914D02*
X223244048Y-95490533D01*
X127460476Y-102739819D02*
X127460476Y-103454104D01*
X127460476Y-103454104D02*
X127412857Y-103596961D01*
X127412857Y-103596961D02*
X127317619Y-103692200D01*
X127317619Y-103692200D02*
X127174762Y-103739819D01*
X127174762Y-103739819D02*
X127079524Y-103739819D01*
X128460476Y-103739819D02*
X127889048Y-103739819D01*
X128174762Y-103739819D02*
X128174762Y-102739819D01*
X128174762Y-102739819D02*
X128079524Y-102882676D01*
X128079524Y-102882676D02*
X127984286Y-102977914D01*
X127984286Y-102977914D02*
X127889048Y-103025533D01*
X129317619Y-103073152D02*
X129317619Y-103739819D01*
X129079524Y-102692200D02*
X128841429Y-103406485D01*
X128841429Y-103406485D02*
X129460476Y-103406485D01*
X241063019Y-23871323D02*
X240063019Y-23871323D01*
X240063019Y-23871323D02*
X240777304Y-23537990D01*
X240777304Y-23537990D02*
X240063019Y-23204657D01*
X240063019Y-23204657D02*
X241063019Y-23204657D01*
X241063019Y-22728466D02*
X240063019Y-22728466D01*
X240063019Y-22728466D02*
X240063019Y-22490371D01*
X240063019Y-22490371D02*
X240110638Y-22347514D01*
X240110638Y-22347514D02*
X240205876Y-22252276D01*
X240205876Y-22252276D02*
X240301114Y-22204657D01*
X240301114Y-22204657D02*
X240491590Y-22157038D01*
X240491590Y-22157038D02*
X240634447Y-22157038D01*
X240634447Y-22157038D02*
X240824923Y-22204657D01*
X240824923Y-22204657D02*
X240920161Y-22252276D01*
X240920161Y-22252276D02*
X241015400Y-22347514D01*
X241015400Y-22347514D02*
X241063019Y-22490371D01*
X241063019Y-22490371D02*
X241063019Y-22728466D01*
X241063019Y-21728466D02*
X240063019Y-21728466D01*
X240063019Y-21728466D02*
X240063019Y-21490371D01*
X240063019Y-21490371D02*
X240110638Y-21347514D01*
X240110638Y-21347514D02*
X240205876Y-21252276D01*
X240205876Y-21252276D02*
X240301114Y-21204657D01*
X240301114Y-21204657D02*
X240491590Y-21157038D01*
X240491590Y-21157038D02*
X240634447Y-21157038D01*
X240634447Y-21157038D02*
X240824923Y-21204657D01*
X240824923Y-21204657D02*
X240920161Y-21252276D01*
X240920161Y-21252276D02*
X241015400Y-21347514D01*
X241015400Y-21347514D02*
X241063019Y-21490371D01*
X241063019Y-21490371D02*
X241063019Y-21728466D01*
X241063019Y-20204657D02*
X241063019Y-20776085D01*
X241063019Y-20490371D02*
X240063019Y-20490371D01*
X240063019Y-20490371D02*
X240205876Y-20585609D01*
X240205876Y-20585609D02*
X240301114Y-20680847D01*
X240301114Y-20680847D02*
X240348733Y-20776085D01*
X183381009Y-63464285D02*
X183381009Y-63130952D01*
X183904819Y-62988095D02*
X183904819Y-63464285D01*
X183904819Y-63464285D02*
X182904819Y-63464285D01*
X182904819Y-63464285D02*
X182904819Y-62988095D01*
X183238152Y-62559523D02*
X183904819Y-62559523D01*
X183333390Y-62559523D02*
X183285771Y-62511904D01*
X183285771Y-62511904D02*
X183238152Y-62416666D01*
X183238152Y-62416666D02*
X183238152Y-62273809D01*
X183238152Y-62273809D02*
X183285771Y-62178571D01*
X183285771Y-62178571D02*
X183381009Y-62130952D01*
X183381009Y-62130952D02*
X183904819Y-62130952D01*
X183857200Y-61226190D02*
X183904819Y-61321428D01*
X183904819Y-61321428D02*
X183904819Y-61511904D01*
X183904819Y-61511904D02*
X183857200Y-61607142D01*
X183857200Y-61607142D02*
X183809580Y-61654761D01*
X183809580Y-61654761D02*
X183714342Y-61702380D01*
X183714342Y-61702380D02*
X183428628Y-61702380D01*
X183428628Y-61702380D02*
X183333390Y-61654761D01*
X183333390Y-61654761D02*
X183285771Y-61607142D01*
X183285771Y-61607142D02*
X183238152Y-61511904D01*
X183238152Y-61511904D02*
X183238152Y-61321428D01*
X183238152Y-61321428D02*
X183285771Y-61226190D01*
X183904819Y-60654761D02*
X183857200Y-60749999D01*
X183857200Y-60749999D02*
X183809580Y-60797618D01*
X183809580Y-60797618D02*
X183714342Y-60845237D01*
X183714342Y-60845237D02*
X183428628Y-60845237D01*
X183428628Y-60845237D02*
X183333390Y-60797618D01*
X183333390Y-60797618D02*
X183285771Y-60749999D01*
X183285771Y-60749999D02*
X183238152Y-60654761D01*
X183238152Y-60654761D02*
X183238152Y-60511904D01*
X183238152Y-60511904D02*
X183285771Y-60416666D01*
X183285771Y-60416666D02*
X183333390Y-60369047D01*
X183333390Y-60369047D02*
X183428628Y-60321428D01*
X183428628Y-60321428D02*
X183714342Y-60321428D01*
X183714342Y-60321428D02*
X183809580Y-60369047D01*
X183809580Y-60369047D02*
X183857200Y-60416666D01*
X183857200Y-60416666D02*
X183904819Y-60511904D01*
X183904819Y-60511904D02*
X183904819Y-60654761D01*
X183904819Y-59464285D02*
X182904819Y-59464285D01*
X183857200Y-59464285D02*
X183904819Y-59559523D01*
X183904819Y-59559523D02*
X183904819Y-59749999D01*
X183904819Y-59749999D02*
X183857200Y-59845237D01*
X183857200Y-59845237D02*
X183809580Y-59892856D01*
X183809580Y-59892856D02*
X183714342Y-59940475D01*
X183714342Y-59940475D02*
X183428628Y-59940475D01*
X183428628Y-59940475D02*
X183333390Y-59892856D01*
X183333390Y-59892856D02*
X183285771Y-59845237D01*
X183285771Y-59845237D02*
X183238152Y-59749999D01*
X183238152Y-59749999D02*
X183238152Y-59559523D01*
X183238152Y-59559523D02*
X183285771Y-59464285D01*
X183857200Y-58607142D02*
X183904819Y-58702380D01*
X183904819Y-58702380D02*
X183904819Y-58892856D01*
X183904819Y-58892856D02*
X183857200Y-58988094D01*
X183857200Y-58988094D02*
X183761961Y-59035713D01*
X183761961Y-59035713D02*
X183381009Y-59035713D01*
X183381009Y-59035713D02*
X183285771Y-58988094D01*
X183285771Y-58988094D02*
X183238152Y-58892856D01*
X183238152Y-58892856D02*
X183238152Y-58702380D01*
X183238152Y-58702380D02*
X183285771Y-58607142D01*
X183285771Y-58607142D02*
X183381009Y-58559523D01*
X183381009Y-58559523D02*
X183476247Y-58559523D01*
X183476247Y-58559523D02*
X183571485Y-59035713D01*
X183904819Y-58130951D02*
X183238152Y-58130951D01*
X183428628Y-58130951D02*
X183333390Y-58083332D01*
X183333390Y-58083332D02*
X183285771Y-58035713D01*
X183285771Y-58035713D02*
X183238152Y-57940475D01*
X183238152Y-57940475D02*
X183238152Y-57845237D01*
X182904819Y-57607141D02*
X182904819Y-56988094D01*
X182904819Y-56988094D02*
X183285771Y-57321427D01*
X183285771Y-57321427D02*
X183285771Y-57178570D01*
X183285771Y-57178570D02*
X183333390Y-57083332D01*
X183333390Y-57083332D02*
X183381009Y-57035713D01*
X183381009Y-57035713D02*
X183476247Y-56988094D01*
X183476247Y-56988094D02*
X183714342Y-56988094D01*
X183714342Y-56988094D02*
X183809580Y-57035713D01*
X183809580Y-57035713D02*
X183857200Y-57083332D01*
X183857200Y-57083332D02*
X183904819Y-57178570D01*
X183904819Y-57178570D02*
X183904819Y-57464284D01*
X183904819Y-57464284D02*
X183857200Y-57559522D01*
X183857200Y-57559522D02*
X183809580Y-57607141D01*
X127460476Y-131949819D02*
X127460476Y-132664104D01*
X127460476Y-132664104D02*
X127412857Y-132806961D01*
X127412857Y-132806961D02*
X127317619Y-132902200D01*
X127317619Y-132902200D02*
X127174762Y-132949819D01*
X127174762Y-132949819D02*
X127079524Y-132949819D01*
X127889048Y-132045057D02*
X127936667Y-131997438D01*
X127936667Y-131997438D02*
X128031905Y-131949819D01*
X128031905Y-131949819D02*
X128270000Y-131949819D01*
X128270000Y-131949819D02*
X128365238Y-131997438D01*
X128365238Y-131997438D02*
X128412857Y-132045057D01*
X128412857Y-132045057D02*
X128460476Y-132140295D01*
X128460476Y-132140295D02*
X128460476Y-132235533D01*
X128460476Y-132235533D02*
X128412857Y-132378390D01*
X128412857Y-132378390D02*
X127841429Y-132949819D01*
X127841429Y-132949819D02*
X128460476Y-132949819D01*
X129365238Y-131949819D02*
X128889048Y-131949819D01*
X128889048Y-131949819D02*
X128841429Y-132426009D01*
X128841429Y-132426009D02*
X128889048Y-132378390D01*
X128889048Y-132378390D02*
X128984286Y-132330771D01*
X128984286Y-132330771D02*
X129222381Y-132330771D01*
X129222381Y-132330771D02*
X129317619Y-132378390D01*
X129317619Y-132378390D02*
X129365238Y-132426009D01*
X129365238Y-132426009D02*
X129412857Y-132521247D01*
X129412857Y-132521247D02*
X129412857Y-132759342D01*
X129412857Y-132759342D02*
X129365238Y-132854580D01*
X129365238Y-132854580D02*
X129317619Y-132902200D01*
X129317619Y-132902200D02*
X129222381Y-132949819D01*
X129222381Y-132949819D02*
X128984286Y-132949819D01*
X128984286Y-132949819D02*
X128889048Y-132902200D01*
X128889048Y-132902200D02*
X128841429Y-132854580D01*
X229970833Y-96929580D02*
X229923214Y-96977200D01*
X229923214Y-96977200D02*
X229780357Y-97024819D01*
X229780357Y-97024819D02*
X229685119Y-97024819D01*
X229685119Y-97024819D02*
X229542262Y-96977200D01*
X229542262Y-96977200D02*
X229447024Y-96881961D01*
X229447024Y-96881961D02*
X229399405Y-96786723D01*
X229399405Y-96786723D02*
X229351786Y-96596247D01*
X229351786Y-96596247D02*
X229351786Y-96453390D01*
X229351786Y-96453390D02*
X229399405Y-96262914D01*
X229399405Y-96262914D02*
X229447024Y-96167676D01*
X229447024Y-96167676D02*
X229542262Y-96072438D01*
X229542262Y-96072438D02*
X229685119Y-96024819D01*
X229685119Y-96024819D02*
X229780357Y-96024819D01*
X229780357Y-96024819D02*
X229923214Y-96072438D01*
X229923214Y-96072438D02*
X229970833Y-96120057D01*
X230923214Y-97024819D02*
X230351786Y-97024819D01*
X230637500Y-97024819D02*
X230637500Y-96024819D01*
X230637500Y-96024819D02*
X230542262Y-96167676D01*
X230542262Y-96167676D02*
X230447024Y-96262914D01*
X230447024Y-96262914D02*
X230351786Y-96310533D01*
X230816666Y-126804819D02*
X230816666Y-127519104D01*
X230816666Y-127519104D02*
X230769047Y-127661961D01*
X230769047Y-127661961D02*
X230673809Y-127757200D01*
X230673809Y-127757200D02*
X230530952Y-127804819D01*
X230530952Y-127804819D02*
X230435714Y-127804819D01*
X231292857Y-127804819D02*
X231292857Y-126804819D01*
X231292857Y-126804819D02*
X231673809Y-126804819D01*
X231673809Y-126804819D02*
X231769047Y-126852438D01*
X231769047Y-126852438D02*
X231816666Y-126900057D01*
X231816666Y-126900057D02*
X231864285Y-126995295D01*
X231864285Y-126995295D02*
X231864285Y-127138152D01*
X231864285Y-127138152D02*
X231816666Y-127233390D01*
X231816666Y-127233390D02*
X231769047Y-127281009D01*
X231769047Y-127281009D02*
X231673809Y-127328628D01*
X231673809Y-127328628D02*
X231292857Y-127328628D01*
X232245238Y-126900057D02*
X232292857Y-126852438D01*
X232292857Y-126852438D02*
X232388095Y-126804819D01*
X232388095Y-126804819D02*
X232626190Y-126804819D01*
X232626190Y-126804819D02*
X232721428Y-126852438D01*
X232721428Y-126852438D02*
X232769047Y-126900057D01*
X232769047Y-126900057D02*
X232816666Y-126995295D01*
X232816666Y-126995295D02*
X232816666Y-127090533D01*
X232816666Y-127090533D02*
X232769047Y-127233390D01*
X232769047Y-127233390D02*
X232197619Y-127804819D01*
X232197619Y-127804819D02*
X232816666Y-127804819D01*
X211192919Y-67991166D02*
X210716728Y-68324499D01*
X211192919Y-68562594D02*
X210192919Y-68562594D01*
X210192919Y-68562594D02*
X210192919Y-68181642D01*
X210192919Y-68181642D02*
X210240538Y-68086404D01*
X210240538Y-68086404D02*
X210288157Y-68038785D01*
X210288157Y-68038785D02*
X210383395Y-67991166D01*
X210383395Y-67991166D02*
X210526252Y-67991166D01*
X210526252Y-67991166D02*
X210621490Y-68038785D01*
X210621490Y-68038785D02*
X210669109Y-68086404D01*
X210669109Y-68086404D02*
X210716728Y-68181642D01*
X210716728Y-68181642D02*
X210716728Y-68562594D01*
X210621490Y-67419737D02*
X210573871Y-67514975D01*
X210573871Y-67514975D02*
X210526252Y-67562594D01*
X210526252Y-67562594D02*
X210431014Y-67610213D01*
X210431014Y-67610213D02*
X210383395Y-67610213D01*
X210383395Y-67610213D02*
X210288157Y-67562594D01*
X210288157Y-67562594D02*
X210240538Y-67514975D01*
X210240538Y-67514975D02*
X210192919Y-67419737D01*
X210192919Y-67419737D02*
X210192919Y-67229261D01*
X210192919Y-67229261D02*
X210240538Y-67134023D01*
X210240538Y-67134023D02*
X210288157Y-67086404D01*
X210288157Y-67086404D02*
X210383395Y-67038785D01*
X210383395Y-67038785D02*
X210431014Y-67038785D01*
X210431014Y-67038785D02*
X210526252Y-67086404D01*
X210526252Y-67086404D02*
X210573871Y-67134023D01*
X210573871Y-67134023D02*
X210621490Y-67229261D01*
X210621490Y-67229261D02*
X210621490Y-67419737D01*
X210621490Y-67419737D02*
X210669109Y-67514975D01*
X210669109Y-67514975D02*
X210716728Y-67562594D01*
X210716728Y-67562594D02*
X210811966Y-67610213D01*
X210811966Y-67610213D02*
X211002442Y-67610213D01*
X211002442Y-67610213D02*
X211097680Y-67562594D01*
X211097680Y-67562594D02*
X211145300Y-67514975D01*
X211145300Y-67514975D02*
X211192919Y-67419737D01*
X211192919Y-67419737D02*
X211192919Y-67229261D01*
X211192919Y-67229261D02*
X211145300Y-67134023D01*
X211145300Y-67134023D02*
X211097680Y-67086404D01*
X211097680Y-67086404D02*
X211002442Y-67038785D01*
X211002442Y-67038785D02*
X210811966Y-67038785D01*
X210811966Y-67038785D02*
X210716728Y-67086404D01*
X210716728Y-67086404D02*
X210669109Y-67134023D01*
X210669109Y-67134023D02*
X210621490Y-67229261D01*
X126754819Y-27409523D02*
X127469104Y-27409523D01*
X127469104Y-27409523D02*
X127611961Y-27457142D01*
X127611961Y-27457142D02*
X127707200Y-27552380D01*
X127707200Y-27552380D02*
X127754819Y-27695237D01*
X127754819Y-27695237D02*
X127754819Y-27790475D01*
X127754819Y-26409523D02*
X127754819Y-26980951D01*
X127754819Y-26695237D02*
X126754819Y-26695237D01*
X126754819Y-26695237D02*
X126897676Y-26790475D01*
X126897676Y-26790475D02*
X126992914Y-26885713D01*
X126992914Y-26885713D02*
X127040533Y-26980951D01*
X127183390Y-25838094D02*
X127135771Y-25933332D01*
X127135771Y-25933332D02*
X127088152Y-25980951D01*
X127088152Y-25980951D02*
X126992914Y-26028570D01*
X126992914Y-26028570D02*
X126945295Y-26028570D01*
X126945295Y-26028570D02*
X126850057Y-25980951D01*
X126850057Y-25980951D02*
X126802438Y-25933332D01*
X126802438Y-25933332D02*
X126754819Y-25838094D01*
X126754819Y-25838094D02*
X126754819Y-25647618D01*
X126754819Y-25647618D02*
X126802438Y-25552380D01*
X126802438Y-25552380D02*
X126850057Y-25504761D01*
X126850057Y-25504761D02*
X126945295Y-25457142D01*
X126945295Y-25457142D02*
X126992914Y-25457142D01*
X126992914Y-25457142D02*
X127088152Y-25504761D01*
X127088152Y-25504761D02*
X127135771Y-25552380D01*
X127135771Y-25552380D02*
X127183390Y-25647618D01*
X127183390Y-25647618D02*
X127183390Y-25838094D01*
X127183390Y-25838094D02*
X127231009Y-25933332D01*
X127231009Y-25933332D02*
X127278628Y-25980951D01*
X127278628Y-25980951D02*
X127373866Y-26028570D01*
X127373866Y-26028570D02*
X127564342Y-26028570D01*
X127564342Y-26028570D02*
X127659580Y-25980951D01*
X127659580Y-25980951D02*
X127707200Y-25933332D01*
X127707200Y-25933332D02*
X127754819Y-25838094D01*
X127754819Y-25838094D02*
X127754819Y-25647618D01*
X127754819Y-25647618D02*
X127707200Y-25552380D01*
X127707200Y-25552380D02*
X127659580Y-25504761D01*
X127659580Y-25504761D02*
X127564342Y-25457142D01*
X127564342Y-25457142D02*
X127373866Y-25457142D01*
X127373866Y-25457142D02*
X127278628Y-25504761D01*
X127278628Y-25504761D02*
X127231009Y-25552380D01*
X127231009Y-25552380D02*
X127183390Y-25647618D01*
X161366905Y-18804819D02*
X161366905Y-17804819D01*
X161366905Y-17804819D02*
X161605000Y-17804819D01*
X161605000Y-17804819D02*
X161747857Y-17852438D01*
X161747857Y-17852438D02*
X161843095Y-17947676D01*
X161843095Y-17947676D02*
X161890714Y-18042914D01*
X161890714Y-18042914D02*
X161938333Y-18233390D01*
X161938333Y-18233390D02*
X161938333Y-18376247D01*
X161938333Y-18376247D02*
X161890714Y-18566723D01*
X161890714Y-18566723D02*
X161843095Y-18661961D01*
X161843095Y-18661961D02*
X161747857Y-18757200D01*
X161747857Y-18757200D02*
X161605000Y-18804819D01*
X161605000Y-18804819D02*
X161366905Y-18804819D01*
X162319286Y-17900057D02*
X162366905Y-17852438D01*
X162366905Y-17852438D02*
X162462143Y-17804819D01*
X162462143Y-17804819D02*
X162700238Y-17804819D01*
X162700238Y-17804819D02*
X162795476Y-17852438D01*
X162795476Y-17852438D02*
X162843095Y-17900057D01*
X162843095Y-17900057D02*
X162890714Y-17995295D01*
X162890714Y-17995295D02*
X162890714Y-18090533D01*
X162890714Y-18090533D02*
X162843095Y-18233390D01*
X162843095Y-18233390D02*
X162271667Y-18804819D01*
X162271667Y-18804819D02*
X162890714Y-18804819D01*
X127460476Y-73529819D02*
X127460476Y-74244104D01*
X127460476Y-74244104D02*
X127412857Y-74386961D01*
X127412857Y-74386961D02*
X127317619Y-74482200D01*
X127317619Y-74482200D02*
X127174762Y-74529819D01*
X127174762Y-74529819D02*
X127079524Y-74529819D01*
X128460476Y-74529819D02*
X127889048Y-74529819D01*
X128174762Y-74529819D02*
X128174762Y-73529819D01*
X128174762Y-73529819D02*
X128079524Y-73672676D01*
X128079524Y-73672676D02*
X127984286Y-73767914D01*
X127984286Y-73767914D02*
X127889048Y-73815533D01*
X128793810Y-73529819D02*
X129412857Y-73529819D01*
X129412857Y-73529819D02*
X129079524Y-73910771D01*
X129079524Y-73910771D02*
X129222381Y-73910771D01*
X129222381Y-73910771D02*
X129317619Y-73958390D01*
X129317619Y-73958390D02*
X129365238Y-74006009D01*
X129365238Y-74006009D02*
X129412857Y-74101247D01*
X129412857Y-74101247D02*
X129412857Y-74339342D01*
X129412857Y-74339342D02*
X129365238Y-74434580D01*
X129365238Y-74434580D02*
X129317619Y-74482200D01*
X129317619Y-74482200D02*
X129222381Y-74529819D01*
X129222381Y-74529819D02*
X128936667Y-74529819D01*
X128936667Y-74529819D02*
X128841429Y-74482200D01*
X128841429Y-74482200D02*
X128793810Y-74434580D01*
X183054819Y-112853333D02*
X183769104Y-112853333D01*
X183769104Y-112853333D02*
X183911961Y-112900952D01*
X183911961Y-112900952D02*
X184007200Y-112996190D01*
X184007200Y-112996190D02*
X184054819Y-113139047D01*
X184054819Y-113139047D02*
X184054819Y-113234285D01*
X183150057Y-112424761D02*
X183102438Y-112377142D01*
X183102438Y-112377142D02*
X183054819Y-112281904D01*
X183054819Y-112281904D02*
X183054819Y-112043809D01*
X183054819Y-112043809D02*
X183102438Y-111948571D01*
X183102438Y-111948571D02*
X183150057Y-111900952D01*
X183150057Y-111900952D02*
X183245295Y-111853333D01*
X183245295Y-111853333D02*
X183340533Y-111853333D01*
X183340533Y-111853333D02*
X183483390Y-111900952D01*
X183483390Y-111900952D02*
X184054819Y-112472380D01*
X184054819Y-112472380D02*
X184054819Y-111853333D01*
X167280205Y-18804819D02*
X167280205Y-17804819D01*
X167280205Y-17804819D02*
X167518300Y-17804819D01*
X167518300Y-17804819D02*
X167661157Y-17852438D01*
X167661157Y-17852438D02*
X167756395Y-17947676D01*
X167756395Y-17947676D02*
X167804014Y-18042914D01*
X167804014Y-18042914D02*
X167851633Y-18233390D01*
X167851633Y-18233390D02*
X167851633Y-18376247D01*
X167851633Y-18376247D02*
X167804014Y-18566723D01*
X167804014Y-18566723D02*
X167756395Y-18661961D01*
X167756395Y-18661961D02*
X167661157Y-18757200D01*
X167661157Y-18757200D02*
X167518300Y-18804819D01*
X167518300Y-18804819D02*
X167280205Y-18804819D01*
X168804014Y-18804819D02*
X168232586Y-18804819D01*
X168518300Y-18804819D02*
X168518300Y-17804819D01*
X168518300Y-17804819D02*
X168423062Y-17947676D01*
X168423062Y-17947676D02*
X168327824Y-18042914D01*
X168327824Y-18042914D02*
X168232586Y-18090533D01*
D11*
X228318095Y-90967219D02*
X228318095Y-91776742D01*
X228318095Y-91776742D02*
X228365714Y-91871980D01*
X228365714Y-91871980D02*
X228413333Y-91919600D01*
X228413333Y-91919600D02*
X228508571Y-91967219D01*
X228508571Y-91967219D02*
X228699047Y-91967219D01*
X228699047Y-91967219D02*
X228794285Y-91919600D01*
X228794285Y-91919600D02*
X228841904Y-91871980D01*
X228841904Y-91871980D02*
X228889523Y-91776742D01*
X228889523Y-91776742D02*
X228889523Y-90967219D01*
X229318095Y-91062457D02*
X229365714Y-91014838D01*
X229365714Y-91014838D02*
X229460952Y-90967219D01*
X229460952Y-90967219D02*
X229699047Y-90967219D01*
X229699047Y-90967219D02*
X229794285Y-91014838D01*
X229794285Y-91014838D02*
X229841904Y-91062457D01*
X229841904Y-91062457D02*
X229889523Y-91157695D01*
X229889523Y-91157695D02*
X229889523Y-91252933D01*
X229889523Y-91252933D02*
X229841904Y-91395790D01*
X229841904Y-91395790D02*
X229270476Y-91967219D01*
X229270476Y-91967219D02*
X229889523Y-91967219D01*
D10*
X146790476Y-86513383D02*
X146790476Y-87227668D01*
X146790476Y-87227668D02*
X146742857Y-87370525D01*
X146742857Y-87370525D02*
X146647619Y-87465764D01*
X146647619Y-87465764D02*
X146504762Y-87513383D01*
X146504762Y-87513383D02*
X146409524Y-87513383D01*
X147790476Y-87513383D02*
X147219048Y-87513383D01*
X147504762Y-87513383D02*
X147504762Y-86513383D01*
X147504762Y-86513383D02*
X147409524Y-86656240D01*
X147409524Y-86656240D02*
X147314286Y-86751478D01*
X147314286Y-86751478D02*
X147219048Y-86799097D01*
X148647619Y-86513383D02*
X148457143Y-86513383D01*
X148457143Y-86513383D02*
X148361905Y-86561002D01*
X148361905Y-86561002D02*
X148314286Y-86608621D01*
X148314286Y-86608621D02*
X148219048Y-86751478D01*
X148219048Y-86751478D02*
X148171429Y-86941954D01*
X148171429Y-86941954D02*
X148171429Y-87322906D01*
X148171429Y-87322906D02*
X148219048Y-87418144D01*
X148219048Y-87418144D02*
X148266667Y-87465764D01*
X148266667Y-87465764D02*
X148361905Y-87513383D01*
X148361905Y-87513383D02*
X148552381Y-87513383D01*
X148552381Y-87513383D02*
X148647619Y-87465764D01*
X148647619Y-87465764D02*
X148695238Y-87418144D01*
X148695238Y-87418144D02*
X148742857Y-87322906D01*
X148742857Y-87322906D02*
X148742857Y-87084811D01*
X148742857Y-87084811D02*
X148695238Y-86989573D01*
X148695238Y-86989573D02*
X148647619Y-86941954D01*
X148647619Y-86941954D02*
X148552381Y-86894335D01*
X148552381Y-86894335D02*
X148361905Y-86894335D01*
X148361905Y-86894335D02*
X148266667Y-86941954D01*
X148266667Y-86941954D02*
X148219048Y-86989573D01*
X148219048Y-86989573D02*
X148171429Y-87084811D01*
X127936666Y-58924819D02*
X127936666Y-59639104D01*
X127936666Y-59639104D02*
X127889047Y-59781961D01*
X127889047Y-59781961D02*
X127793809Y-59877200D01*
X127793809Y-59877200D02*
X127650952Y-59924819D01*
X127650952Y-59924819D02*
X127555714Y-59924819D01*
X128317619Y-58924819D02*
X128984285Y-58924819D01*
X128984285Y-58924819D02*
X128555714Y-59924819D01*
X117154819Y-48333333D02*
X117869104Y-48333333D01*
X117869104Y-48333333D02*
X118011961Y-48380952D01*
X118011961Y-48380952D02*
X118107200Y-48476190D01*
X118107200Y-48476190D02*
X118154819Y-48619047D01*
X118154819Y-48619047D02*
X118154819Y-48714285D01*
X118154819Y-47809523D02*
X118154819Y-47619047D01*
X118154819Y-47619047D02*
X118107200Y-47523809D01*
X118107200Y-47523809D02*
X118059580Y-47476190D01*
X118059580Y-47476190D02*
X117916723Y-47380952D01*
X117916723Y-47380952D02*
X117726247Y-47333333D01*
X117726247Y-47333333D02*
X117345295Y-47333333D01*
X117345295Y-47333333D02*
X117250057Y-47380952D01*
X117250057Y-47380952D02*
X117202438Y-47428571D01*
X117202438Y-47428571D02*
X117154819Y-47523809D01*
X117154819Y-47523809D02*
X117154819Y-47714285D01*
X117154819Y-47714285D02*
X117202438Y-47809523D01*
X117202438Y-47809523D02*
X117250057Y-47857142D01*
X117250057Y-47857142D02*
X117345295Y-47904761D01*
X117345295Y-47904761D02*
X117583390Y-47904761D01*
X117583390Y-47904761D02*
X117678628Y-47857142D01*
X117678628Y-47857142D02*
X117726247Y-47809523D01*
X117726247Y-47809523D02*
X117773866Y-47714285D01*
X117773866Y-47714285D02*
X117773866Y-47523809D01*
X117773866Y-47523809D02*
X117726247Y-47428571D01*
X117726247Y-47428571D02*
X117678628Y-47380952D01*
X117678628Y-47380952D02*
X117583390Y-47333333D01*
X179654819Y-119183333D02*
X180369104Y-119183333D01*
X180369104Y-119183333D02*
X180511961Y-119230952D01*
X180511961Y-119230952D02*
X180607200Y-119326190D01*
X180607200Y-119326190D02*
X180654819Y-119469047D01*
X180654819Y-119469047D02*
X180654819Y-119564285D01*
X180654819Y-118707142D02*
X179654819Y-118707142D01*
X179654819Y-118707142D02*
X179654819Y-118326190D01*
X179654819Y-118326190D02*
X179702438Y-118230952D01*
X179702438Y-118230952D02*
X179750057Y-118183333D01*
X179750057Y-118183333D02*
X179845295Y-118135714D01*
X179845295Y-118135714D02*
X179988152Y-118135714D01*
X179988152Y-118135714D02*
X180083390Y-118183333D01*
X180083390Y-118183333D02*
X180131009Y-118230952D01*
X180131009Y-118230952D02*
X180178628Y-118326190D01*
X180178628Y-118326190D02*
X180178628Y-118707142D01*
X180654819Y-117183333D02*
X180654819Y-117754761D01*
X180654819Y-117469047D02*
X179654819Y-117469047D01*
X179654819Y-117469047D02*
X179797676Y-117564285D01*
X179797676Y-117564285D02*
X179892914Y-117659523D01*
X179892914Y-117659523D02*
X179940533Y-117754761D01*
X146790476Y-72834101D02*
X146790476Y-73548386D01*
X146790476Y-73548386D02*
X146742857Y-73691243D01*
X146742857Y-73691243D02*
X146647619Y-73786482D01*
X146647619Y-73786482D02*
X146504762Y-73834101D01*
X146504762Y-73834101D02*
X146409524Y-73834101D01*
X147790476Y-73834101D02*
X147219048Y-73834101D01*
X147504762Y-73834101D02*
X147504762Y-72834101D01*
X147504762Y-72834101D02*
X147409524Y-72976958D01*
X147409524Y-72976958D02*
X147314286Y-73072196D01*
X147314286Y-73072196D02*
X147219048Y-73119815D01*
X148123810Y-72834101D02*
X148790476Y-72834101D01*
X148790476Y-72834101D02*
X148361905Y-73834101D01*
X241113819Y-48342323D02*
X240113819Y-48342323D01*
X240113819Y-48342323D02*
X240828104Y-48008990D01*
X240828104Y-48008990D02*
X240113819Y-47675657D01*
X240113819Y-47675657D02*
X241113819Y-47675657D01*
X241113819Y-47199466D02*
X240113819Y-47199466D01*
X240113819Y-47199466D02*
X240113819Y-46961371D01*
X240113819Y-46961371D02*
X240161438Y-46818514D01*
X240161438Y-46818514D02*
X240256676Y-46723276D01*
X240256676Y-46723276D02*
X240351914Y-46675657D01*
X240351914Y-46675657D02*
X240542390Y-46628038D01*
X240542390Y-46628038D02*
X240685247Y-46628038D01*
X240685247Y-46628038D02*
X240875723Y-46675657D01*
X240875723Y-46675657D02*
X240970961Y-46723276D01*
X240970961Y-46723276D02*
X241066200Y-46818514D01*
X241066200Y-46818514D02*
X241113819Y-46961371D01*
X241113819Y-46961371D02*
X241113819Y-47199466D01*
X241113819Y-46199466D02*
X240113819Y-46199466D01*
X240113819Y-46199466D02*
X240113819Y-45961371D01*
X240113819Y-45961371D02*
X240161438Y-45818514D01*
X240161438Y-45818514D02*
X240256676Y-45723276D01*
X240256676Y-45723276D02*
X240351914Y-45675657D01*
X240351914Y-45675657D02*
X240542390Y-45628038D01*
X240542390Y-45628038D02*
X240685247Y-45628038D01*
X240685247Y-45628038D02*
X240875723Y-45675657D01*
X240875723Y-45675657D02*
X240970961Y-45723276D01*
X240970961Y-45723276D02*
X241066200Y-45818514D01*
X241066200Y-45818514D02*
X241113819Y-45961371D01*
X241113819Y-45961371D02*
X241113819Y-46199466D01*
X240209057Y-45247085D02*
X240161438Y-45199466D01*
X240161438Y-45199466D02*
X240113819Y-45104228D01*
X240113819Y-45104228D02*
X240113819Y-44866133D01*
X240113819Y-44866133D02*
X240161438Y-44770895D01*
X240161438Y-44770895D02*
X240209057Y-44723276D01*
X240209057Y-44723276D02*
X240304295Y-44675657D01*
X240304295Y-44675657D02*
X240399533Y-44675657D01*
X240399533Y-44675657D02*
X240542390Y-44723276D01*
X240542390Y-44723276D02*
X241113819Y-45294704D01*
X241113819Y-45294704D02*
X241113819Y-44675657D01*
X183054819Y-143333333D02*
X183769104Y-143333333D01*
X183769104Y-143333333D02*
X183911961Y-143380952D01*
X183911961Y-143380952D02*
X184007200Y-143476190D01*
X184007200Y-143476190D02*
X184054819Y-143619047D01*
X184054819Y-143619047D02*
X184054819Y-143714285D01*
X184054819Y-142333333D02*
X184054819Y-142904761D01*
X184054819Y-142619047D02*
X183054819Y-142619047D01*
X183054819Y-142619047D02*
X183197676Y-142714285D01*
X183197676Y-142714285D02*
X183292914Y-142809523D01*
X183292914Y-142809523D02*
X183340533Y-142904761D01*
X127936666Y-88134819D02*
X127936666Y-88849104D01*
X127936666Y-88849104D02*
X127889047Y-88991961D01*
X127889047Y-88991961D02*
X127793809Y-89087200D01*
X127793809Y-89087200D02*
X127650952Y-89134819D01*
X127650952Y-89134819D02*
X127555714Y-89134819D01*
X128841428Y-88134819D02*
X128650952Y-88134819D01*
X128650952Y-88134819D02*
X128555714Y-88182438D01*
X128555714Y-88182438D02*
X128508095Y-88230057D01*
X128508095Y-88230057D02*
X128412857Y-88372914D01*
X128412857Y-88372914D02*
X128365238Y-88563390D01*
X128365238Y-88563390D02*
X128365238Y-88944342D01*
X128365238Y-88944342D02*
X128412857Y-89039580D01*
X128412857Y-89039580D02*
X128460476Y-89087200D01*
X128460476Y-89087200D02*
X128555714Y-89134819D01*
X128555714Y-89134819D02*
X128746190Y-89134819D01*
X128746190Y-89134819D02*
X128841428Y-89087200D01*
X128841428Y-89087200D02*
X128889047Y-89039580D01*
X128889047Y-89039580D02*
X128936666Y-88944342D01*
X128936666Y-88944342D02*
X128936666Y-88706247D01*
X128936666Y-88706247D02*
X128889047Y-88611009D01*
X128889047Y-88611009D02*
X128841428Y-88563390D01*
X128841428Y-88563390D02*
X128746190Y-88515771D01*
X128746190Y-88515771D02*
X128555714Y-88515771D01*
X128555714Y-88515771D02*
X128460476Y-88563390D01*
X128460476Y-88563390D02*
X128412857Y-88611009D01*
X128412857Y-88611009D02*
X128365238Y-88706247D01*
X143190476Y-98379819D02*
X143190476Y-99094104D01*
X143190476Y-99094104D02*
X143142857Y-99236961D01*
X143142857Y-99236961D02*
X143047619Y-99332200D01*
X143047619Y-99332200D02*
X142904762Y-99379819D01*
X142904762Y-99379819D02*
X142809524Y-99379819D01*
X143571429Y-98379819D02*
X144190476Y-98379819D01*
X144190476Y-98379819D02*
X143857143Y-98760771D01*
X143857143Y-98760771D02*
X144000000Y-98760771D01*
X144000000Y-98760771D02*
X144095238Y-98808390D01*
X144095238Y-98808390D02*
X144142857Y-98856009D01*
X144142857Y-98856009D02*
X144190476Y-98951247D01*
X144190476Y-98951247D02*
X144190476Y-99189342D01*
X144190476Y-99189342D02*
X144142857Y-99284580D01*
X144142857Y-99284580D02*
X144095238Y-99332200D01*
X144095238Y-99332200D02*
X144000000Y-99379819D01*
X144000000Y-99379819D02*
X143714286Y-99379819D01*
X143714286Y-99379819D02*
X143619048Y-99332200D01*
X143619048Y-99332200D02*
X143571429Y-99284580D01*
X145142857Y-99379819D02*
X144571429Y-99379819D01*
X144857143Y-99379819D02*
X144857143Y-98379819D01*
X144857143Y-98379819D02*
X144761905Y-98522676D01*
X144761905Y-98522676D02*
X144666667Y-98617914D01*
X144666667Y-98617914D02*
X144571429Y-98665533D01*
X167190476Y-63988152D02*
X167190476Y-64702437D01*
X167190476Y-64702437D02*
X167142857Y-64845294D01*
X167142857Y-64845294D02*
X167047619Y-64940533D01*
X167047619Y-64940533D02*
X166904762Y-64988152D01*
X166904762Y-64988152D02*
X166809524Y-64988152D01*
X167619048Y-64083390D02*
X167666667Y-64035771D01*
X167666667Y-64035771D02*
X167761905Y-63988152D01*
X167761905Y-63988152D02*
X168000000Y-63988152D01*
X168000000Y-63988152D02*
X168095238Y-64035771D01*
X168095238Y-64035771D02*
X168142857Y-64083390D01*
X168142857Y-64083390D02*
X168190476Y-64178628D01*
X168190476Y-64178628D02*
X168190476Y-64273866D01*
X168190476Y-64273866D02*
X168142857Y-64416723D01*
X168142857Y-64416723D02*
X167571429Y-64988152D01*
X167571429Y-64988152D02*
X168190476Y-64988152D01*
X168571429Y-64083390D02*
X168619048Y-64035771D01*
X168619048Y-64035771D02*
X168714286Y-63988152D01*
X168714286Y-63988152D02*
X168952381Y-63988152D01*
X168952381Y-63988152D02*
X169047619Y-64035771D01*
X169047619Y-64035771D02*
X169095238Y-64083390D01*
X169095238Y-64083390D02*
X169142857Y-64178628D01*
X169142857Y-64178628D02*
X169142857Y-64273866D01*
X169142857Y-64273866D02*
X169095238Y-64416723D01*
X169095238Y-64416723D02*
X168523810Y-64988152D01*
X168523810Y-64988152D02*
X169142857Y-64988152D01*
X209084819Y-29555357D02*
X208608628Y-29888690D01*
X209084819Y-30126785D02*
X208084819Y-30126785D01*
X208084819Y-30126785D02*
X208084819Y-29745833D01*
X208084819Y-29745833D02*
X208132438Y-29650595D01*
X208132438Y-29650595D02*
X208180057Y-29602976D01*
X208180057Y-29602976D02*
X208275295Y-29555357D01*
X208275295Y-29555357D02*
X208418152Y-29555357D01*
X208418152Y-29555357D02*
X208513390Y-29602976D01*
X208513390Y-29602976D02*
X208561009Y-29650595D01*
X208561009Y-29650595D02*
X208608628Y-29745833D01*
X208608628Y-29745833D02*
X208608628Y-30126785D01*
X209084819Y-28602976D02*
X209084819Y-29174404D01*
X209084819Y-28888690D02*
X208084819Y-28888690D01*
X208084819Y-28888690D02*
X208227676Y-28983928D01*
X208227676Y-28983928D02*
X208322914Y-29079166D01*
X208322914Y-29079166D02*
X208370533Y-29174404D01*
X208418152Y-27745833D02*
X209084819Y-27745833D01*
X208037200Y-27983928D02*
X208751485Y-28222023D01*
X208751485Y-28222023D02*
X208751485Y-27602976D01*
X206544819Y-29555357D02*
X206068628Y-29888690D01*
X206544819Y-30126785D02*
X205544819Y-30126785D01*
X205544819Y-30126785D02*
X205544819Y-29745833D01*
X205544819Y-29745833D02*
X205592438Y-29650595D01*
X205592438Y-29650595D02*
X205640057Y-29602976D01*
X205640057Y-29602976D02*
X205735295Y-29555357D01*
X205735295Y-29555357D02*
X205878152Y-29555357D01*
X205878152Y-29555357D02*
X205973390Y-29602976D01*
X205973390Y-29602976D02*
X206021009Y-29650595D01*
X206021009Y-29650595D02*
X206068628Y-29745833D01*
X206068628Y-29745833D02*
X206068628Y-30126785D01*
X206544819Y-28602976D02*
X206544819Y-29174404D01*
X206544819Y-28888690D02*
X205544819Y-28888690D01*
X205544819Y-28888690D02*
X205687676Y-28983928D01*
X205687676Y-28983928D02*
X205782914Y-29079166D01*
X205782914Y-29079166D02*
X205830533Y-29174404D01*
X205544819Y-28269642D02*
X205544819Y-27650595D01*
X205544819Y-27650595D02*
X205925771Y-27983928D01*
X205925771Y-27983928D02*
X205925771Y-27841071D01*
X205925771Y-27841071D02*
X205973390Y-27745833D01*
X205973390Y-27745833D02*
X206021009Y-27698214D01*
X206021009Y-27698214D02*
X206116247Y-27650595D01*
X206116247Y-27650595D02*
X206354342Y-27650595D01*
X206354342Y-27650595D02*
X206449580Y-27698214D01*
X206449580Y-27698214D02*
X206497200Y-27745833D01*
X206497200Y-27745833D02*
X206544819Y-27841071D01*
X206544819Y-27841071D02*
X206544819Y-28126785D01*
X206544819Y-28126785D02*
X206497200Y-28222023D01*
X206497200Y-28222023D02*
X206449580Y-28269642D01*
X169887319Y-34068166D02*
X169411128Y-34401499D01*
X169887319Y-34639594D02*
X168887319Y-34639594D01*
X168887319Y-34639594D02*
X168887319Y-34258642D01*
X168887319Y-34258642D02*
X168934938Y-34163404D01*
X168934938Y-34163404D02*
X168982557Y-34115785D01*
X168982557Y-34115785D02*
X169077795Y-34068166D01*
X169077795Y-34068166D02*
X169220652Y-34068166D01*
X169220652Y-34068166D02*
X169315890Y-34115785D01*
X169315890Y-34115785D02*
X169363509Y-34163404D01*
X169363509Y-34163404D02*
X169411128Y-34258642D01*
X169411128Y-34258642D02*
X169411128Y-34639594D01*
X169887319Y-33115785D02*
X169887319Y-33687213D01*
X169887319Y-33401499D02*
X168887319Y-33401499D01*
X168887319Y-33401499D02*
X169030176Y-33496737D01*
X169030176Y-33496737D02*
X169125414Y-33591975D01*
X169125414Y-33591975D02*
X169173033Y-33687213D01*
D12*
%TO.C,OC2*%
X203336000Y-74825000D02*
G75*
G02*
X203236000Y-74825000I-50000J0D01*
G01*
X203236000Y-74825000D02*
G75*
G02*
X203336000Y-74825000I50000J0D01*
G01*
X203411000Y-74825000D02*
G75*
G02*
X203161000Y-74825000I-125000J0D01*
G01*
X203161000Y-74825000D02*
G75*
G02*
X203411000Y-74825000I125000J0D01*
G01*
X203486000Y-74825000D02*
G75*
G02*
X203086000Y-74825000I-200000J0D01*
G01*
X203086000Y-74825000D02*
G75*
G02*
X203486000Y-74825000I200000J0D01*
G01*
X205810000Y-74130000D02*
G75*
G02*
X203810000Y-74130000I-1000000J0D01*
G01*
X202560000Y-74130000D02*
X202560000Y-84410000D01*
X202560000Y-84410000D02*
X207060000Y-84410000D01*
X203810000Y-74130000D02*
X202560000Y-74130000D01*
X207060000Y-74130000D02*
X205810000Y-74130000D01*
X207060000Y-84410000D02*
X207060000Y-74130000D01*
%TO.C,J4*%
X176980000Y-18600000D02*
X176980000Y-17220000D01*
X178360000Y-18600000D02*
X176980000Y-18600000D01*
X179630000Y-15840000D02*
X228000000Y-15840000D01*
X179630000Y-18600000D02*
X179630000Y-15840000D01*
X179630000Y-18600000D02*
X228000000Y-18600000D01*
X228000000Y-18600000D02*
X228000000Y-15840000D01*
D11*
%TO.C,MotorController2*%
X175820000Y-22300000D02*
X229160000Y-22300000D01*
X175820000Y-37540000D02*
X180900000Y-37540000D01*
X175820000Y-42620000D02*
X175820000Y-22300000D01*
X180900000Y-27380000D02*
X175820000Y-27380000D01*
X183440000Y-27380000D02*
X180900000Y-27380000D01*
X183440000Y-37540000D02*
X180900000Y-37540000D01*
X183440000Y-37540000D02*
X183440000Y-27380000D01*
X229160000Y-22300000D02*
X229160000Y-42620000D01*
X229160000Y-42620000D02*
X175820000Y-42620000D01*
D12*
%TO.C,J3*%
X176980000Y-49080000D02*
X176980000Y-47700000D01*
X178360000Y-49080000D02*
X176980000Y-49080000D01*
X179630000Y-46320000D02*
X228000000Y-46320000D01*
X179630000Y-49080000D02*
X179630000Y-46320000D01*
X179630000Y-49080000D02*
X228000000Y-49080000D01*
X228000000Y-49080000D02*
X228000000Y-46320000D01*
%TO.C,OC1*%
X206325300Y-69920900D02*
G75*
G02*
X206225300Y-69920900I-50000J0D01*
G01*
X206225300Y-69920900D02*
G75*
G02*
X206325300Y-69920900I50000J0D01*
G01*
X206400300Y-69920900D02*
G75*
G02*
X206150300Y-69920900I-125000J0D01*
G01*
X206150300Y-69920900D02*
G75*
G02*
X206400300Y-69920900I125000J0D01*
G01*
X206475300Y-69920900D02*
G75*
G02*
X206075300Y-69920900I-200000J0D01*
G01*
X206075300Y-69920900D02*
G75*
G02*
X206475300Y-69920900I200000J0D01*
G01*
X203751300Y-70615900D02*
G75*
G02*
X205751300Y-70615900I1000000J0D01*
G01*
X207001300Y-70615900D02*
X207001300Y-60335900D01*
X207001300Y-60335900D02*
X202501300Y-60335900D01*
X205751300Y-70615900D02*
X207001300Y-70615900D01*
X202501300Y-70615900D02*
X203751300Y-70615900D01*
X202501300Y-60335900D02*
X202501300Y-70615900D01*
%TO.C,STMFuse1*%
X181490000Y-113046267D02*
X181490000Y-112703733D01*
X182510000Y-113046267D02*
X182510000Y-112703733D01*
%TO.C,J27*%
X160150000Y-95900000D02*
X160150000Y-99050000D01*
X160150000Y-99050000D02*
X163000000Y-101650000D01*
X163000000Y-93350000D02*
X160150000Y-95900000D01*
X163000000Y-101650000D02*
X175850000Y-101650000D01*
X175850000Y-93350000D02*
X163000000Y-93350000D01*
X175850000Y-101650000D02*
X175850000Y-93350000D01*
%TO.C,C2*%
X217134700Y-102220567D02*
X217134700Y-101928033D01*
X218154700Y-102220567D02*
X218154700Y-101928033D01*
%TO.C,MDD3*%
X233548200Y-29117600D02*
X233548200Y-39237600D01*
X233548200Y-39237600D02*
X239518200Y-39237600D01*
X234308200Y-29877600D02*
X234308200Y-34177600D01*
X234308200Y-38477600D02*
X234308200Y-34177600D01*
X237258200Y-29127600D02*
X237258200Y-29877600D01*
X237258200Y-29877600D02*
X234308200Y-29877600D01*
X237258200Y-38477600D02*
X234308200Y-38477600D01*
X237258200Y-39227600D02*
X237258200Y-38477600D01*
X238758200Y-29127600D02*
X238758200Y-30927600D01*
X238758200Y-30927600D02*
X239508200Y-30927600D01*
X238758200Y-32427600D02*
X238758200Y-35927600D01*
X238758200Y-35927600D02*
X239508200Y-35927600D01*
X238758200Y-37427600D02*
X238758200Y-39227600D01*
X238758200Y-39227600D02*
X239508200Y-39227600D01*
X239508200Y-29127600D02*
X238758200Y-29127600D01*
X239508200Y-30927600D02*
X239508200Y-29127600D01*
X239508200Y-32427600D02*
X238758200Y-32427600D01*
X239508200Y-35927600D02*
X239508200Y-32427600D01*
X239508200Y-37427600D02*
X238758200Y-37427600D01*
X239508200Y-39227600D02*
X239508200Y-37427600D01*
X239518200Y-29117600D02*
X233548200Y-29117600D01*
X239518200Y-39237600D02*
X239518200Y-29117600D01*
X239808200Y-28827600D02*
X238558200Y-28827600D01*
X239808200Y-30077600D02*
X239808200Y-28827600D01*
%TO.C,J19*%
X160150000Y-82066667D02*
X160150000Y-85216667D01*
X160150000Y-85216667D02*
X163000000Y-87816667D01*
X163000000Y-79516667D02*
X160150000Y-82066667D01*
X163000000Y-87816667D02*
X175850000Y-87816667D01*
X175850000Y-79516667D02*
X163000000Y-79516667D01*
X175850000Y-87816667D02*
X175850000Y-79516667D01*
%TO.C,J11*%
X142850000Y-18750000D02*
X142850000Y-31600000D01*
X142850000Y-31600000D02*
X145400000Y-34450000D01*
X145400000Y-34450000D02*
X148550000Y-34450000D01*
X148550000Y-34450000D02*
X151150000Y-31600000D01*
X151150000Y-18750000D02*
X142850000Y-18750000D01*
X151150000Y-31600000D02*
X151150000Y-18750000D01*
%TO.C,R18*%
X212155400Y-79039500D02*
X212155400Y-82341500D01*
X212155400Y-82341500D02*
X213552400Y-82341500D01*
X213552400Y-79039500D02*
X212155400Y-79039500D01*
X213552400Y-82341500D02*
X213552400Y-79039500D01*
%TO.C,J15*%
X120420000Y-121590000D02*
X120420000Y-124740000D01*
X120420000Y-124740000D02*
X123270000Y-127340000D01*
X123270000Y-119040000D02*
X120420000Y-121590000D01*
X123270000Y-127340000D02*
X136120000Y-127340000D01*
X136120000Y-119040000D02*
X123270000Y-119040000D01*
X136120000Y-127340000D02*
X136120000Y-119040000D01*
%TO.C,J23*%
X140750000Y-122400000D02*
X140750000Y-125550000D01*
X140750000Y-125550000D02*
X143600000Y-128150000D01*
X143600000Y-119850000D02*
X140750000Y-122400000D01*
X143600000Y-128150000D02*
X156450000Y-128150000D01*
X156450000Y-119850000D02*
X143600000Y-119850000D01*
X156450000Y-128150000D02*
X156450000Y-119850000D01*
%TO.C,U3*%
D11*
X238267200Y-67786300D02*
X214857200Y-67786300D01*
X214857200Y-90596300D01*
X238267200Y-90596300D01*
X238267200Y-67786300D01*
D12*
%TO.C,MDD4*%
X233649800Y-54031200D02*
X233649800Y-64151200D01*
X233649800Y-64151200D02*
X239619800Y-64151200D01*
X234409800Y-54791200D02*
X234409800Y-59091200D01*
X234409800Y-63391200D02*
X234409800Y-59091200D01*
X237359800Y-54041200D02*
X237359800Y-54791200D01*
X237359800Y-54791200D02*
X234409800Y-54791200D01*
X237359800Y-63391200D02*
X234409800Y-63391200D01*
X237359800Y-64141200D02*
X237359800Y-63391200D01*
X238859800Y-54041200D02*
X238859800Y-55841200D01*
X238859800Y-55841200D02*
X239609800Y-55841200D01*
X238859800Y-57341200D02*
X238859800Y-60841200D01*
X238859800Y-60841200D02*
X239609800Y-60841200D01*
X238859800Y-62341200D02*
X238859800Y-64141200D01*
X238859800Y-64141200D02*
X239609800Y-64141200D01*
X239609800Y-54041200D02*
X238859800Y-54041200D01*
X239609800Y-55841200D02*
X239609800Y-54041200D01*
X239609800Y-57341200D02*
X238859800Y-57341200D01*
X239609800Y-60841200D02*
X239609800Y-57341200D01*
X239609800Y-62341200D02*
X238859800Y-62341200D01*
X239609800Y-64141200D02*
X239609800Y-62341200D01*
X239619800Y-54031200D02*
X233649800Y-54031200D01*
X239619800Y-64151200D02*
X239619800Y-54031200D01*
X239909800Y-53741200D02*
X238659800Y-53741200D01*
X239909800Y-54991200D02*
X239909800Y-53741200D01*
%TO.C,R17*%
X212155400Y-73857900D02*
X212155400Y-77159900D01*
X212155400Y-77159900D02*
X213552400Y-77159900D01*
X213552400Y-73857900D02*
X212155400Y-73857900D01*
X213552400Y-77159900D02*
X213552400Y-73857900D01*
%TO.C,J21*%
X160150000Y-137400000D02*
X160150000Y-140550000D01*
X160150000Y-140550000D02*
X163000000Y-143150000D01*
X163000000Y-134850000D02*
X160150000Y-137400000D01*
X163000000Y-143150000D02*
X175850000Y-143150000D01*
X175850000Y-134850000D02*
X163000000Y-134850000D01*
X175850000Y-143150000D02*
X175850000Y-134850000D01*
%TO.C,C3*%
X236853733Y-97490000D02*
X237146267Y-97490000D01*
X236853733Y-98510000D02*
X237146267Y-98510000D01*
%TO.C,J26*%
X160150000Y-109733333D02*
X160150000Y-112883333D01*
X160150000Y-112883333D02*
X163000000Y-115483333D01*
X163000000Y-107183333D02*
X160150000Y-109733333D01*
X163000000Y-115483333D02*
X175850000Y-115483333D01*
X175850000Y-107183333D02*
X163000000Y-107183333D01*
X175850000Y-115483333D02*
X175850000Y-107183333D01*
%TO.C,J29*%
X139750000Y-64400000D02*
X139750000Y-67550000D01*
X139750000Y-67550000D02*
X142600000Y-70150000D01*
X142600000Y-61850000D02*
X139750000Y-64400000D01*
X142600000Y-70150000D02*
X155450000Y-70150000D01*
X155450000Y-61850000D02*
X142600000Y-61850000D01*
X155450000Y-70150000D02*
X155450000Y-61850000D01*
%TO.C,J28*%
X160150000Y-123566667D02*
X160150000Y-126716667D01*
X160150000Y-126716667D02*
X163000000Y-129316667D01*
X163000000Y-121016667D02*
X160150000Y-123566667D01*
X163000000Y-129316667D02*
X175850000Y-129316667D01*
X175850000Y-121016667D02*
X163000000Y-121016667D01*
X175850000Y-129316667D02*
X175850000Y-121016667D01*
%TO.C,J30*%
X138637201Y-109084450D02*
X138637201Y-110334450D01*
X138927201Y-109374450D02*
X138927201Y-115344450D01*
X138927201Y-115344450D02*
X149047201Y-115344450D01*
X138937201Y-109384450D02*
X138937201Y-110134450D01*
X138937201Y-110134450D02*
X140737201Y-110134450D01*
X138937201Y-111634450D02*
X139687201Y-111634450D01*
X139687201Y-111634450D02*
X139687201Y-114584450D01*
X139687201Y-114584450D02*
X143987201Y-114584450D01*
X139887201Y-109084450D02*
X138637201Y-109084450D01*
X140737201Y-109384450D02*
X138937201Y-109384450D01*
X140737201Y-110134450D02*
X140737201Y-109384450D01*
X142237201Y-109384450D02*
X142237201Y-110134450D01*
X142237201Y-110134450D02*
X145737201Y-110134450D01*
X145737201Y-109384450D02*
X142237201Y-109384450D01*
X145737201Y-110134450D02*
X145737201Y-109384450D01*
X147237201Y-109384450D02*
X147237201Y-110134450D01*
X147237201Y-110134450D02*
X149037201Y-110134450D01*
X148287201Y-111634450D02*
X148287201Y-114584450D01*
X148287201Y-114584450D02*
X143987201Y-114584450D01*
X149037201Y-109384450D02*
X147237201Y-109384450D01*
X149037201Y-110134450D02*
X149037201Y-109384450D01*
X149037201Y-111634450D02*
X148287201Y-111634450D01*
X149047201Y-109374450D02*
X138927201Y-109374450D01*
X149047201Y-115344450D02*
X149047201Y-109374450D01*
%TO.C,Encoder1*%
X184250000Y-80242910D02*
X184250000Y-81492910D01*
X184250000Y-81492910D02*
X185500000Y-81492910D01*
X184540000Y-68582910D02*
X184540000Y-81202910D01*
X184540000Y-81202910D02*
X190510000Y-81202910D01*
X184550000Y-68592910D02*
X184550000Y-70392910D01*
X184550000Y-70392910D02*
X185300000Y-70392910D01*
X184550000Y-71892910D02*
X184550000Y-77892910D01*
X184550000Y-77892910D02*
X185300000Y-77892910D01*
X184550000Y-79392910D02*
X184550000Y-81192910D01*
X184550000Y-81192910D02*
X185300000Y-81192910D01*
X185300000Y-68592910D02*
X184550000Y-68592910D01*
X185300000Y-70392910D02*
X185300000Y-68592910D01*
X185300000Y-71892910D02*
X184550000Y-71892910D01*
X185300000Y-77892910D02*
X185300000Y-71892910D01*
X185300000Y-79392910D02*
X184550000Y-79392910D01*
X185300000Y-81192910D02*
X185300000Y-79392910D01*
X186800000Y-68592910D02*
X186800000Y-69342910D01*
X186800000Y-69342910D02*
X189750000Y-69342910D01*
X186800000Y-80442910D02*
X189750000Y-80442910D01*
X186800000Y-81192910D02*
X186800000Y-80442910D01*
X189750000Y-69342910D02*
X189750000Y-74892910D01*
X189750000Y-80442910D02*
X189750000Y-74892910D01*
X190510000Y-68582910D02*
X184540000Y-68582910D01*
X190510000Y-81202910D02*
X190510000Y-68582910D01*
%TO.C,R9*%
X217301500Y-105349000D02*
X217301500Y-108651000D01*
X217301500Y-108651000D02*
X218698500Y-108651000D01*
X218698500Y-105349000D02*
X217301500Y-105349000D01*
X218698500Y-108651000D02*
X218698500Y-105349000D01*
%TO.C,J10*%
X130850000Y-18750000D02*
X130850000Y-31600000D01*
X130850000Y-31600000D02*
X133400000Y-34450000D01*
X133400000Y-34450000D02*
X136550000Y-34450000D01*
X136550000Y-34450000D02*
X139150000Y-31600000D01*
X139150000Y-18750000D02*
X130850000Y-18750000D01*
X139150000Y-31600000D02*
X139150000Y-18750000D01*
%TO.C,J20*%
X141150000Y-136400000D02*
X141150000Y-139550000D01*
X141150000Y-139550000D02*
X144000000Y-142150000D01*
X144000000Y-133850000D02*
X141150000Y-136400000D01*
X144000000Y-142150000D02*
X156850000Y-142150000D01*
X156850000Y-133850000D02*
X144000000Y-133850000D01*
X156850000Y-142150000D02*
X156850000Y-133850000D01*
%TO.C,J24*%
X131150000Y-42850000D02*
X131150000Y-51150000D01*
X131150000Y-51150000D02*
X144000000Y-51150000D01*
X144000000Y-42850000D02*
X131150000Y-42850000D01*
X144000000Y-51150000D02*
X146850000Y-48600000D01*
X146850000Y-45450000D02*
X144000000Y-42850000D01*
X146850000Y-48600000D02*
X146850000Y-45450000D01*
%TO.C,Encoder2*%
X184250000Y-95795405D02*
X184250000Y-97045405D01*
X184250000Y-97045405D02*
X185500000Y-97045405D01*
X184540000Y-84135405D02*
X184540000Y-96755405D01*
X184540000Y-96755405D02*
X190510000Y-96755405D01*
X184550000Y-84145405D02*
X184550000Y-85945405D01*
X184550000Y-85945405D02*
X185300000Y-85945405D01*
X184550000Y-87445405D02*
X184550000Y-93445405D01*
X184550000Y-93445405D02*
X185300000Y-93445405D01*
X184550000Y-94945405D02*
X184550000Y-96745405D01*
X184550000Y-96745405D02*
X185300000Y-96745405D01*
X185300000Y-84145405D02*
X184550000Y-84145405D01*
X185300000Y-85945405D02*
X185300000Y-84145405D01*
X185300000Y-87445405D02*
X184550000Y-87445405D01*
X185300000Y-93445405D02*
X185300000Y-87445405D01*
X185300000Y-94945405D02*
X184550000Y-94945405D01*
X185300000Y-96745405D02*
X185300000Y-94945405D01*
X186800000Y-84145405D02*
X186800000Y-84895405D01*
X186800000Y-84895405D02*
X189750000Y-84895405D01*
X186800000Y-95995405D02*
X189750000Y-95995405D01*
X186800000Y-96745405D02*
X186800000Y-95995405D01*
X189750000Y-84895405D02*
X189750000Y-90445405D01*
X189750000Y-95995405D02*
X189750000Y-90445405D01*
X190510000Y-84135405D02*
X184540000Y-84135405D01*
X190510000Y-96755405D02*
X190510000Y-84135405D01*
%TO.C,J8*%
X161550000Y-52850000D02*
X161550000Y-61150000D01*
X161550000Y-61150000D02*
X174400000Y-61150000D01*
X174400000Y-52850000D02*
X161550000Y-52850000D01*
X174400000Y-61150000D02*
X177250000Y-58600000D01*
X177250000Y-55450000D02*
X174400000Y-52850000D01*
X177250000Y-58600000D02*
X177250000Y-55450000D01*
D13*
%TO.C,L1*%
X220394500Y-93019500D02*
X220394500Y-93305203D01*
X220394500Y-98194797D02*
X220394500Y-98480500D01*
X220394500Y-98480500D02*
X225855500Y-98480500D01*
X225855500Y-93019500D02*
X220394500Y-93019500D01*
X225855500Y-93305203D02*
X225855500Y-93019500D01*
X225855500Y-98480500D02*
X225855500Y-98194797D01*
X219391200Y-95750000D02*
G75*
G02*
X219238800Y-95750000I-76200J0D01*
G01*
X219238800Y-95750000D02*
G75*
G02*
X219391200Y-95750000I76200J0D01*
G01*
D12*
%TO.C,J14*%
X120420000Y-106985000D02*
X120420000Y-110135000D01*
X120420000Y-110135000D02*
X123270000Y-112735000D01*
X123270000Y-104435000D02*
X120420000Y-106985000D01*
X123270000Y-112735000D02*
X136120000Y-112735000D01*
X136120000Y-104435000D02*
X123270000Y-104435000D01*
X136120000Y-112735000D02*
X136120000Y-104435000D01*
%TO.C,MDD1*%
X233548200Y-17001800D02*
X233548200Y-27121800D01*
X233548200Y-27121800D02*
X239518200Y-27121800D01*
X234308200Y-17761800D02*
X234308200Y-22061800D01*
X234308200Y-26361800D02*
X234308200Y-22061800D01*
X237258200Y-17011800D02*
X237258200Y-17761800D01*
X237258200Y-17761800D02*
X234308200Y-17761800D01*
X237258200Y-26361800D02*
X234308200Y-26361800D01*
X237258200Y-27111800D02*
X237258200Y-26361800D01*
X238758200Y-17011800D02*
X238758200Y-18811800D01*
X238758200Y-18811800D02*
X239508200Y-18811800D01*
X238758200Y-20311800D02*
X238758200Y-23811800D01*
X238758200Y-23811800D02*
X239508200Y-23811800D01*
X238758200Y-25311800D02*
X238758200Y-27111800D01*
X238758200Y-27111800D02*
X239508200Y-27111800D01*
X239508200Y-17011800D02*
X238758200Y-17011800D01*
X239508200Y-18811800D02*
X239508200Y-17011800D01*
X239508200Y-20311800D02*
X238758200Y-20311800D01*
X239508200Y-23811800D02*
X239508200Y-20311800D01*
X239508200Y-25311800D02*
X238758200Y-25311800D01*
X239508200Y-27111800D02*
X239508200Y-25311800D01*
X239518200Y-17001800D02*
X233548200Y-17001800D01*
X239518200Y-27121800D02*
X239518200Y-17001800D01*
X239808200Y-16711800D02*
X238558200Y-16711800D01*
X239808200Y-17961800D02*
X239808200Y-16711800D01*
%TO.C,Encoder3*%
X184250000Y-65600000D02*
X184250000Y-66850000D01*
X184250000Y-66850000D02*
X185500000Y-66850000D01*
X184540000Y-53940000D02*
X184540000Y-66560000D01*
X184540000Y-66560000D02*
X190510000Y-66560000D01*
X184550000Y-53950000D02*
X184550000Y-55750000D01*
X184550000Y-55750000D02*
X185300000Y-55750000D01*
X184550000Y-57250000D02*
X184550000Y-63250000D01*
X184550000Y-63250000D02*
X185300000Y-63250000D01*
X184550000Y-64750000D02*
X184550000Y-66550000D01*
X184550000Y-66550000D02*
X185300000Y-66550000D01*
X185300000Y-53950000D02*
X184550000Y-53950000D01*
X185300000Y-55750000D02*
X185300000Y-53950000D01*
X185300000Y-57250000D02*
X184550000Y-57250000D01*
X185300000Y-63250000D02*
X185300000Y-57250000D01*
X185300000Y-64750000D02*
X184550000Y-64750000D01*
X185300000Y-66550000D02*
X185300000Y-64750000D01*
X186800000Y-53950000D02*
X186800000Y-54700000D01*
X186800000Y-54700000D02*
X189750000Y-54700000D01*
X186800000Y-65800000D02*
X189750000Y-65800000D01*
X186800000Y-66550000D02*
X186800000Y-65800000D01*
X189750000Y-54700000D02*
X189750000Y-60250000D01*
X189750000Y-65800000D02*
X189750000Y-60250000D01*
X190510000Y-53940000D02*
X184540000Y-53940000D01*
X190510000Y-66560000D02*
X190510000Y-53940000D01*
%TO.C,J25*%
X120420000Y-136195000D02*
X120420000Y-139345000D01*
X120420000Y-139345000D02*
X123270000Y-141945000D01*
X123270000Y-133645000D02*
X120420000Y-136195000D01*
X123270000Y-141945000D02*
X136120000Y-141945000D01*
X136120000Y-133645000D02*
X123270000Y-133645000D01*
X136120000Y-141945000D02*
X136120000Y-133645000D01*
%TO.C,C1*%
X229991233Y-97490000D02*
X230283767Y-97490000D01*
X229991233Y-98510000D02*
X230283767Y-98510000D01*
%TO.C,JP2*%
X230650000Y-130700000D02*
X230650000Y-129300000D01*
X231350000Y-128600000D02*
X231950000Y-128600000D01*
X231950000Y-131400000D02*
X231350000Y-131400000D01*
X232650000Y-129300000D02*
X232650000Y-130700000D01*
X230650000Y-129300000D02*
G75*
G02*
X231350000Y-128600000I699999J1D01*
G01*
X231350000Y-131400000D02*
G75*
G02*
X230650000Y-130700000I0J700000D01*
G01*
X231950000Y-128600000D02*
G75*
G02*
X232650000Y-129300000I1J-699999D01*
G01*
X232650000Y-130700000D02*
G75*
G02*
X231950000Y-131400000I-700000J0D01*
G01*
%TO.C,R8*%
X211469600Y-66173500D02*
X211469600Y-69475500D01*
X211469600Y-69475500D02*
X212866600Y-69475500D01*
X212866600Y-66173500D02*
X211469600Y-66173500D01*
X212866600Y-69475500D02*
X212866600Y-66173500D01*
%TO.C,J18*%
X117850000Y-21600000D02*
X117850000Y-34450000D01*
X117850000Y-34450000D02*
X126150000Y-34450000D01*
X120450000Y-18750000D02*
X117850000Y-21600000D01*
X123600000Y-18750000D02*
X120450000Y-18750000D01*
X126150000Y-21600000D02*
X123600000Y-18750000D01*
X126150000Y-34450000D02*
X126150000Y-21600000D01*
%TO.C,D2*%
X160245000Y-19040000D02*
X160245000Y-20960000D01*
X160245000Y-20960000D02*
X163105000Y-20960000D01*
X163105000Y-19040000D02*
X160245000Y-19040000D01*
%TO.C,J13*%
X120420000Y-77775000D02*
X120420000Y-80925000D01*
X120420000Y-80925000D02*
X123270000Y-83525000D01*
X123270000Y-75225000D02*
X120420000Y-77775000D01*
X123270000Y-83525000D02*
X136120000Y-83525000D01*
X136120000Y-75225000D02*
X123270000Y-75225000D01*
X136120000Y-83525000D02*
X136120000Y-75225000D01*
%TO.C,J2*%
X184600000Y-113900000D02*
X184600000Y-112520000D01*
X185980000Y-113900000D02*
X184600000Y-113900000D01*
X187250000Y-111140000D02*
X235620000Y-111140000D01*
X187250000Y-113900000D02*
X187250000Y-111140000D01*
X187250000Y-113900000D02*
X235620000Y-113900000D01*
X235620000Y-113900000D02*
X235620000Y-111140000D01*
D11*
%TO.C,MotorController1*%
X183440000Y-117600000D02*
X236780000Y-117600000D01*
X183440000Y-132840000D02*
X188520000Y-132840000D01*
X183440000Y-137920000D02*
X183440000Y-117600000D01*
X188520000Y-122680000D02*
X183440000Y-122680000D01*
X191060000Y-122680000D02*
X188520000Y-122680000D01*
X191060000Y-132840000D02*
X188520000Y-132840000D01*
X191060000Y-132840000D02*
X191060000Y-122680000D01*
X236780000Y-117600000D02*
X236780000Y-137920000D01*
X236780000Y-137920000D02*
X183440000Y-137920000D01*
D12*
%TO.C,D1*%
X166158300Y-19040000D02*
X166158300Y-20960000D01*
X166158300Y-20960000D02*
X169018300Y-20960000D01*
X169018300Y-19040000D02*
X166158300Y-19040000D01*
%TO.C,U2*%
D11*
X219350000Y-99460000D02*
X241350000Y-99460000D01*
X241350000Y-108960000D01*
X219350000Y-108960000D01*
X219350000Y-99460000D01*
D12*
%TO.C,J16*%
X139750000Y-90758564D02*
X139750000Y-93908564D01*
X139750000Y-93908564D02*
X142600000Y-96508564D01*
X142600000Y-88208564D02*
X139750000Y-90758564D01*
X142600000Y-96508564D02*
X155450000Y-96508564D01*
X155450000Y-88208564D02*
X142600000Y-88208564D01*
X155450000Y-96508564D02*
X155450000Y-88208564D01*
%TO.C,J7*%
X120420000Y-63170000D02*
X120420000Y-66320000D01*
X120420000Y-66320000D02*
X123270000Y-68920000D01*
X123270000Y-60620000D02*
X120420000Y-63170000D01*
X123270000Y-68920000D02*
X136120000Y-68920000D01*
X136120000Y-60620000D02*
X123270000Y-60620000D01*
X136120000Y-68920000D02*
X136120000Y-60620000D01*
%TO.C,J9*%
X118850000Y-40150000D02*
X118850000Y-53000000D01*
X118850000Y-53000000D02*
X121400000Y-55850000D01*
X121400000Y-55850000D02*
X124550000Y-55850000D01*
X124550000Y-55850000D02*
X127150000Y-53000000D01*
X127150000Y-40150000D02*
X118850000Y-40150000D01*
X127150000Y-53000000D02*
X127150000Y-40150000D01*
%TO.C,JP1*%
X181000000Y-119050000D02*
X181000000Y-117650000D01*
X181700000Y-116950000D02*
X182300000Y-116950000D01*
X182300000Y-119750000D02*
X181700000Y-119750000D01*
X183000000Y-117650000D02*
X183000000Y-119050000D01*
X181000000Y-117650000D02*
G75*
G02*
X181700000Y-116950000I700000J0D01*
G01*
X181700000Y-119750000D02*
G75*
G02*
X181000000Y-119050000I-1J699999D01*
G01*
X182300000Y-116950000D02*
G75*
G02*
X183000000Y-117650000I0J-700000D01*
G01*
X183000000Y-119050000D02*
G75*
G02*
X182300000Y-119750000I-699999J-1D01*
G01*
%TO.C,J17*%
X139750000Y-77079282D02*
X139750000Y-80229282D01*
X139750000Y-80229282D02*
X142600000Y-82829282D01*
X142600000Y-74529282D02*
X139750000Y-77079282D01*
X142600000Y-82829282D02*
X155450000Y-82829282D01*
X155450000Y-74529282D02*
X142600000Y-74529282D01*
X155450000Y-82829282D02*
X155450000Y-74529282D01*
%TO.C,MDD2*%
X233599000Y-41472800D02*
X233599000Y-51592800D01*
X233599000Y-51592800D02*
X239569000Y-51592800D01*
X234359000Y-42232800D02*
X234359000Y-46532800D01*
X234359000Y-50832800D02*
X234359000Y-46532800D01*
X237309000Y-41482800D02*
X237309000Y-42232800D01*
X237309000Y-42232800D02*
X234359000Y-42232800D01*
X237309000Y-50832800D02*
X234359000Y-50832800D01*
X237309000Y-51582800D02*
X237309000Y-50832800D01*
X238809000Y-41482800D02*
X238809000Y-43282800D01*
X238809000Y-43282800D02*
X239559000Y-43282800D01*
X238809000Y-44782800D02*
X238809000Y-48282800D01*
X238809000Y-48282800D02*
X239559000Y-48282800D01*
X238809000Y-49782800D02*
X238809000Y-51582800D01*
X238809000Y-51582800D02*
X239559000Y-51582800D01*
X239559000Y-41482800D02*
X238809000Y-41482800D01*
X239559000Y-43282800D02*
X239559000Y-41482800D01*
X239559000Y-44782800D02*
X238809000Y-44782800D01*
X239559000Y-48282800D02*
X239559000Y-44782800D01*
X239559000Y-49782800D02*
X238809000Y-49782800D01*
X239559000Y-51582800D02*
X239559000Y-49782800D01*
X239569000Y-41472800D02*
X233599000Y-41472800D01*
X239569000Y-51592800D02*
X239569000Y-41472800D01*
X239859000Y-41182800D02*
X238609000Y-41182800D01*
X239859000Y-42432800D02*
X239859000Y-41182800D01*
%TO.C,J1*%
X184600000Y-144380000D02*
X184600000Y-143000000D01*
X185980000Y-144380000D02*
X184600000Y-144380000D01*
X187250000Y-141620000D02*
X235620000Y-141620000D01*
X187250000Y-144380000D02*
X187250000Y-141620000D01*
X187250000Y-144380000D02*
X235620000Y-144380000D01*
X235620000Y-144380000D02*
X235620000Y-141620000D01*
%TO.C,J6*%
X120420000Y-92380000D02*
X120420000Y-95530000D01*
X120420000Y-95530000D02*
X123270000Y-98130000D01*
X123270000Y-89830000D02*
X120420000Y-92380000D01*
X123270000Y-98130000D02*
X136120000Y-98130000D01*
X136120000Y-89830000D02*
X123270000Y-89830000D01*
X136120000Y-98130000D02*
X136120000Y-89830000D01*
%TO.C,J31*%
X138650000Y-99725000D02*
X138650000Y-100975000D01*
X138940000Y-100015000D02*
X138940000Y-105985000D01*
X138940000Y-105985000D02*
X149060000Y-105985000D01*
X138950000Y-100025000D02*
X138950000Y-100775000D01*
X138950000Y-100775000D02*
X140750000Y-100775000D01*
X138950000Y-102275000D02*
X139700000Y-102275000D01*
X139700000Y-102275000D02*
X139700000Y-105225000D01*
X139700000Y-105225000D02*
X144000000Y-105225000D01*
X139900000Y-99725000D02*
X138650000Y-99725000D01*
X140750000Y-100025000D02*
X138950000Y-100025000D01*
X140750000Y-100775000D02*
X140750000Y-100025000D01*
X142250000Y-100025000D02*
X142250000Y-100775000D01*
X142250000Y-100775000D02*
X145750000Y-100775000D01*
X145750000Y-100025000D02*
X142250000Y-100025000D01*
X145750000Y-100775000D02*
X145750000Y-100025000D01*
X147250000Y-100025000D02*
X147250000Y-100775000D01*
X147250000Y-100775000D02*
X149050000Y-100775000D01*
X148300000Y-102275000D02*
X148300000Y-105225000D01*
X148300000Y-105225000D02*
X144000000Y-105225000D01*
X149050000Y-100025000D02*
X147250000Y-100025000D01*
X149050000Y-100775000D02*
X149050000Y-100025000D01*
X149050000Y-102275000D02*
X148300000Y-102275000D01*
X149060000Y-100015000D02*
X138940000Y-100015000D01*
X149060000Y-105985000D02*
X149060000Y-100015000D01*
%TO.C,J22*%
X160150000Y-68233333D02*
X160150000Y-71383333D01*
X160150000Y-71383333D02*
X163000000Y-73983333D01*
X163000000Y-65683333D02*
X160150000Y-68233333D01*
X163000000Y-73983333D02*
X175850000Y-73983333D01*
X175850000Y-65683333D02*
X163000000Y-65683333D01*
X175850000Y-73983333D02*
X175850000Y-65683333D01*
%TO.C,R1*%
X170164000Y-32250500D02*
X170164000Y-35552500D01*
X170164000Y-35552500D02*
X171561000Y-35552500D01*
X171561000Y-32250500D02*
X170164000Y-32250500D01*
X171561000Y-35552500D02*
X171561000Y-32250500D01*
%TD*%
M02*
