M48
; DRILL file {KiCad 9.0.2} date 2026-02-12T20:42:34+0530
; FORMAT={-:-/ absolute / inch / decimal}
; #@! TF.CreationDate,2026-02-12T20:42:34+05:30
; #@! TF.GenerationSoftware,Kicad,Pcbnew,9.0.2
; #@! TF.FileFunction,Plated,1,2,PTH
FMAT,2
INCH
; #@! TA.AperFunction,Plated,PTH,ViaDrill
T1C0.0118
; #@! TA.AperFunction,Plated,PTH,ComponentDrill
T2C0.0300
; #@! TA.AperFunction,Plated,PTH,ViaDrill
T3C0.0315
; #@! TA.AperFunction,Plated,PTH,ComponentDrill
T4C0.0315
; #@! TA.AperFunction,Plated,PTH,ComponentDrill
T5C0.0374
; #@! TA.AperFunction,Plated,PTH,ComponentDrill
T6C0.0394
; #@! TA.AperFunction,Plated,PTH,ComponentDrill
T7C0.1693
; #@! TA.AperFunction,Plated,PTH,ComponentDrill
T8C0.1772
%
G90
G05
T1
X5.3972Y-2.4366
X5.4047Y-2.472
X5.4063Y-2.5531
X5.4154Y-2.6976
X5.4256Y-2.6232
X5.4272Y-2.6634
X5.4323Y-2.5185
X5.4484Y-2.4587
X5.4591Y-2.5512
X5.4618Y-2.5957
X5.463Y-2.6433
X5.4681Y-2.6972
X5.4843Y-2.4598
X5.5098Y-2.7224
X5.5217Y-2.4559
X6.2731Y-3.0512
X6.8819Y-1.8268
X6.8831Y-0.6039
X6.9213Y-1.7323
X6.9264Y-0.5831
X6.9697Y-0.6039
X7.013Y-0.5831
X7.0157Y-1.7323
X7.0563Y-0.6039
X7.063Y-2.4377
X7.0996Y-0.5831
X7.1181Y-1.7323
X7.1232Y-2.2311
X7.1429Y-0.6039
X7.1862Y-0.5831
X7.1874Y-2.0539
X7.1953Y-2.3244
X7.2205Y-0.8268
X7.2205Y-1.7323
X7.2295Y-0.6039
X7.2451Y-4.3937
X7.25Y-4.6256
X7.2598Y-4.122
X7.2744Y-0.5709
X7.2999Y-2.5474
X7.3071Y-2.7244
X7.311Y-4.0866
X7.3177Y-0.5917
X7.3189Y-3.9685
X7.3228Y-0.8268
X7.3228Y-2.2047
X7.3339Y-1.0287
X7.3386Y-4.9012
X7.361Y-0.5709
X7.378Y-1.378
X7.4016Y-1.0969
X7.4016Y-1.189
X7.4043Y-0.5917
X7.4094Y-1.7323
X7.4252Y-0.8268
X7.4331Y-4.1811
X7.4469Y-5.1866
X7.4476Y-0.5709
X7.4571Y-5.4638
X7.4588Y-2.4273
X7.4909Y-0.5917
X7.5039Y-4.2323
X7.5213Y-1.3332
X7.5213Y-1.4227
X7.5276Y-0.8268
X7.5319Y-2.5949
X7.5327Y-2.2965
X7.5343Y-0.5709
X7.5354Y-4.5764
X7.5433Y-1.2756
X7.5512Y-1.2205
X7.5512Y-4.1142
X7.5551Y-5.4622
X7.5576Y-3.0616
X7.5591Y-1.0394
X7.5669Y-2.3701
X7.5776Y-0.5917
X7.5827Y-1.1102
X7.5832Y-2.7323
X7.5866Y-2.9055
X7.5906Y-2.2283
X7.5945Y-3.5039
X7.5988Y-2.5228
X7.6043Y-2.7087
X7.6063Y-1.2598
X7.6063Y-1.4488
X7.6209Y-0.5709
X7.622Y-0.8268
X7.622Y-1.7244
X7.622Y-3.6102
X7.6259Y-1.3858
X7.6299Y-2.4882
X7.6299Y-2.6693
X7.6299Y-3.1181
X7.6299Y-4.1378
X7.6341Y-1.0435
X7.6476Y-4.0748
X7.6496Y-3.7992
X7.6535Y-5.472
X7.6555Y-2.2756
X7.6634Y-4.5469
X7.6642Y-0.5917
X7.6689Y-2.3598
X7.6693Y-3.4055
X7.6772Y-1.0969
X7.6772Y-1.2598
X7.6772Y-1.4882
X7.6776Y-2.4673
X7.6831Y-1.1811
X7.685Y-3.8858
X7.6882Y-1.3709
X7.6882Y-1.7323
X7.6929Y-1.2992
X7.6929Y-3.7087
X7.6937Y-1.4488
X7.6937Y-1.233
X7.6988Y-3.8213
X7.7051Y-2.1634
X7.7091Y-2.6051
X7.7126Y-4.2165
X7.7126Y-4.9799
X7.7165Y-0.8268
X7.7165Y-1.0079
X7.7165Y-2.4016
X7.723Y-2.8962
X7.7323Y-4.2795
X7.7359Y-2.2084
X7.7362Y-3.3307
X7.7421Y-2.2906
X7.748Y-4.0079
X7.752Y-4.8323
X7.7618Y-4.537
X7.7638Y-1.2677
X7.7638Y-2.6644
X7.7661Y-2.0449
X7.7677Y-3.1614
X7.7717Y-2.9291
X7.7717Y-5.4622
X7.7756Y-3.063
X7.7756Y-4.2126
X7.7795Y-2.8268
X7.7874Y-1.9528
X7.7913Y-2.9764
X7.796Y-2.7008
X7.7992Y-3.3465
X7.7992Y-3.4528
X7.8031Y-1.1181
X7.8031Y-3.1969
X7.8031Y-3.5861
X7.8031Y-3.7559
X7.8035Y-1.7087
X7.8039Y-3.8335
X7.8071Y-3.2992
X7.815Y-4.1693
X7.8161Y-2.1753
X7.8189Y-1.0394
X7.8189Y-3.1299
X7.8228Y-3.0433
X7.8268Y-0.8268
X7.8268Y-1.3858
X7.8346Y-1.9843
X7.8382Y-1.4921
X7.8425Y-4.3622
X7.8504Y-4.2205
X7.8504Y-4.537
X7.8504Y-5.4622
X7.8543Y-3.8622
X7.8667Y-2.04
X7.878Y-4.1772
X7.8819Y-4.0157
X7.8823Y-1.6441
X7.8898Y-1.2362
X7.8898Y-4.0709
X7.9Y-1.0417
X7.9169Y-2.2835
X7.9213Y-0.8268
X7.9213Y-1.3543
X7.9232Y-2.8346
X7.9291Y-2.3661
X7.9291Y-3.874
X7.9303Y-1.4705
X7.9354Y-1.6835
X7.9361Y-1.5341
X7.937Y-2.0315
X7.9382Y-1.7906
X7.9587Y-5.4622
X7.9602Y-1.9536
X7.9626Y-2.8642
X7.9685Y-1.9921
X7.9685Y-4.5469
X7.9843Y-2.3543
X7.9882Y-2.4331
X7.9882Y-2.5866
X7.9882Y-2.6614
X7.9961Y-2.4882
X7.9961Y-3.3858
X8.0039Y-2.6102
X8.0087Y-1.7602
X8.0157Y-1.063
X8.0197Y-2.5236
X8.0213Y-1.2779
X8.0236Y-0.8268
X8.0236Y-2.3419
X8.0315Y-1.378
X8.0315Y-1.9536
X8.0472Y-1.2067
X8.0571Y-4.537
X8.0571Y-5.4622
X8.063Y-1.1339
X8.0748Y-1.7228
X8.0787Y-1.2205
X8.0866Y-1.4409
X8.0866Y-3.1398
X8.0866Y-4.8815
X8.1024Y-1.4705
X8.1063Y-3.8661
X8.112Y-1.9763
X8.1339Y-0.8268
X8.1405Y-1.3248
X8.1441Y-1.75
X8.1524Y-5.4669
X8.1654Y-4.5567
X8.1732Y-1.2047
X8.1732Y-1.4469
X8.1764Y-1.3559
X8.1819Y-1.9252
X8.1839Y-1.6555
X8.2008Y-4.2362
X8.2047Y-1.0787
X8.2126Y-1.3937
X8.2205Y-0.8268
X8.2283Y-2.0157
X8.2323Y-4.0157
X8.2362Y-4.2008
X8.2409Y-1.7142
X8.2441Y-1.1339
X8.2441Y-4.1102
X8.2441Y-4.5469
X8.2448Y-1.4705
X8.2458Y-1.9895
X8.2543Y-1.3539
X8.2638Y-5.4622
X8.2677Y-1.4961
X8.2677Y-2.0669
X8.2835Y-4.0591
X8.2839Y-2.7146
X8.2913Y-3.9528
X8.2913Y-4.1614
X8.2913Y-4.2126
X8.2972Y-3.2874
X8.315Y-1.5276
X8.315Y-1.748
X8.315Y-3.0551
X8.3189Y-2.1142
X8.3228Y-0.8268
X8.326Y-2.5646
X8.3307Y-1.0551
X8.3366Y-2.8051
X8.3465Y-2.4705
X8.3524Y-4.5469
X8.3524Y-5.4622
X8.3531Y-2.6343
X8.3622Y-2.0157
X8.3657Y-1.9748
X8.3701Y-3.6806
X8.3724Y-3.3756
X8.376Y-2.9331
X8.3801Y-3.0087
X8.3801Y-3.2127
X8.3917Y-3.937
X8.3957Y-4.2248
X8.4016Y-2.0591
X8.4173Y-0.8268
X8.4173Y-1.748
X8.437Y-4.7874
X8.4409Y-4.5469
X8.4409Y-5.4622
X8.4449Y-1.1524
X8.4752Y-2.6677
X8.4843Y-3.2283
X8.4902Y-5.098
X8.4921Y-2.8744
X8.5011Y-4.2102
X8.5039Y-2.9429
X8.5197Y-0.8268
X8.5197Y-1.748
X8.5276Y-4.3622
X8.5492Y-5.4622
X8.5591Y-4.5665
X8.563Y-3.6909
X8.563Y-4.6457
X8.5729Y-4.2102
X8.5925Y-3.4744
X8.5945Y-3.937
X8.5984Y-5.0094
X8.6142Y-1.748
X8.622Y-1.6378
X8.622Y-1.9567
X8.6299Y-0.8268
X8.6476Y-4.5567
X8.6476Y-5.4622
X8.6575Y-5.2457
X8.6811Y-3.3366
X8.6909Y-4.0945
X8.7051Y-3.1689
X8.7104Y-3.7697
X8.7165Y-1.7244
X8.7165Y-4.8815
X8.7323Y-0.8268
X8.75Y-3.4941
X8.7559Y-5.4622
X8.7606Y-3.2327
X8.7638Y-1.9567
X8.7657Y-4.5567
X8.7911Y-3.0871
X8.811Y-1.7244
X8.8189Y-0.8268
X8.8295Y-2.9776
X8.8346Y-3.1764
X8.8346Y-4.8323
X8.8434Y-3.0663
X8.8465Y-1.9567
X8.8543Y-4.5567
X8.8543Y-5.4622
X8.8567Y-3.3508
X8.8583Y-3.4744
X8.8583Y-3.5335
X8.8584Y-3.7697
X8.8661Y-2.5433
X8.8776Y-3.0684
X8.8882Y-3.2677
X8.9075Y-4.2126
X8.9083Y-4.1142
X8.9091Y-3.0689
X8.9144Y-1.5265
X8.9173Y-1.9567
X8.9331Y-4.852
X8.9409Y-2.5512
X8.9425Y-3.0422
X8.9528Y-4.5567
X8.9626Y-5.1669
X8.9724Y-5.0488
X8.9724Y-5.4622
X8.9803Y-1.9567
X8.9921Y-1.1339
X8.9953Y-1.4693
X9.0039Y-2.5315
X9.0192Y-3.357
X9.0216Y-3.0259
X9.0216Y-3.0948
X9.0217Y-4.9307
X9.0256Y-3.4646
X9.0256Y-3.5236
X9.0315Y-2.563
X9.0472Y-1.9528
X9.0512Y-4.5567
X9.0566Y-3.357
X9.061Y-5.472
X9.0795Y-4.5389
X9.0866Y-2.5394
X9.1185Y-3.4283
X9.1339Y-3.1299
X9.1339Y-4.5115
X9.1496Y-4.5567
X9.1516Y-3.9146
X9.1535Y-2.5551
X9.185Y-3.6339
X9.1929Y-4.0866
X9.1949Y-4.178
X9.2087Y-4.2717
X9.2169Y-3.4618
X9.2205Y-4.7992
X9.2323Y-2.5492
X9.2362Y-2.5039
X9.248Y-4.5665
X9.252Y-3.4941
X9.2756Y-4.1693
X9.2913Y-2.5118
X9.2992Y-2.563
X9.315Y-4.0827
X9.315Y-4.311
X9.3421Y-3.6846
X9.3504Y-2.9035
X9.3504Y-3.5827
X9.3602Y-3.3661
X9.3661Y-4.2559
X9.3819Y-2.5079
X9.3819Y-2.5591
X9.3824Y-4.178
X9.3898Y-3.0709
X9.4331Y-2.4685
X9.4335Y-2.7551
X9.4488Y-3.0118
X9.4528Y-2.5512
X9.4646Y-4.8028
X9.4685Y-1.7283
X9.4724Y-1.5748
X9.4764Y-1.4685
X9.4803Y-1.6535
X9.4803Y-1.9606
X9.4803Y-2.0315
X9.4843Y-2.0827
X9.4843Y-2.1378
X9.4843Y-2.4567
T2
X6.9646Y-0.9748
X6.9646Y-1.5748
X7.0646Y-0.9748
X7.0646Y-1.5748
X7.1646Y-0.9748
X7.1646Y-1.5748
X7.2646Y-0.9748
X7.2646Y-1.5748
X7.3646Y-0.9748
X7.3646Y-1.5748
X7.4079Y-4.7189
X7.4079Y-5.3189
X7.4646Y-0.9748
X7.4646Y-1.5748
X7.5079Y-4.7189
X7.5079Y-5.3189
X7.5646Y-0.9748
X7.5646Y-1.5748
X7.6079Y-4.7189
X7.6079Y-5.3189
X7.6646Y-0.9748
X7.6646Y-1.5748
X7.7079Y-4.7189
X7.7079Y-5.3189
X7.7646Y-0.9748
X7.7646Y-1.5748
X7.8079Y-4.7189
X7.8079Y-5.3189
X7.8646Y-0.9748
X7.8646Y-1.5748
X7.9079Y-4.7189
X7.9079Y-5.3189
X7.9646Y-0.9748
X7.9646Y-1.5748
X8.0079Y-4.7189
X8.0079Y-5.3189
X8.0646Y-0.9748
X8.0646Y-1.5748
X8.1079Y-4.7189
X8.1079Y-5.3189
X8.1646Y-0.9748
X8.1646Y-1.5748
X8.2079Y-4.7189
X8.2079Y-5.3189
X8.2646Y-0.9748
X8.2646Y-1.5748
X8.3079Y-4.7189
X8.3079Y-5.3189
X8.3646Y-0.9748
X8.3646Y-1.5748
X8.4079Y-4.7189
X8.4079Y-5.3189
X8.4646Y-0.9748
X8.4646Y-1.5748
X8.5079Y-4.7189
X8.5079Y-5.3189
X8.5646Y-0.9748
X8.5646Y-1.5748
X8.6079Y-4.7189
X8.6079Y-5.3189
X8.6646Y-0.9748
X8.6646Y-1.5748
X8.7079Y-4.7189
X8.7079Y-5.3189
X8.7646Y-0.9748
X8.7646Y-1.5748
X8.8079Y-4.7189
X8.8079Y-5.3189
X8.8646Y-0.9748
X8.8646Y-1.5748
X8.9079Y-4.7189
X8.9079Y-5.3189
X9.0079Y-4.7189
X9.0079Y-5.3189
X9.1079Y-4.7189
X9.1079Y-5.3189
X9.2079Y-4.7189
X9.2079Y-5.3189
X9.3079Y-4.7189
X9.3079Y-5.3189
T3
X4.6457Y-1.3583
X4.6496Y-1.4606
X4.6693Y-2.252
X4.6693Y-2.3268
X4.6732Y-2.6575
X4.6732Y-2.7913
X4.6732Y-2.9252
X4.6732Y-3.0591
X4.6732Y-3.1929
X4.6732Y-3.3268
X4.6732Y-3.4606
X4.6732Y-3.5945
X4.6732Y-3.7283
X4.6732Y-3.8622
X4.6732Y-3.9764
X4.6732Y-4.1102
X4.6732Y-4.2441
X4.6732Y-4.378
X4.6732Y-4.5118
X4.6732Y-4.6457
X4.6732Y-4.7795
X4.6732Y-4.9134
X4.6732Y-5.0472
X4.6732Y-5.1811
X4.6732Y-5.2992
X4.6732Y-5.4331
X4.6732Y-5.5669
X4.685Y-0.622
X4.7795Y-1.3583
X4.7835Y-1.4606
X4.7913Y-5.1772
X4.8031Y-2.252
X4.8031Y-2.3268
X4.8031Y-3.3228
X4.8031Y-3.4567
X4.8031Y-3.9764
X4.8031Y-4.1102
X4.8071Y-2.7913
X4.8071Y-2.9252
X4.811Y-4.5079
X4.811Y-4.6417
X4.8189Y-0.622
X4.9134Y-1.3583
X4.9173Y-1.4606
X4.9252Y-5.1772
X4.937Y-2.252
X4.937Y-2.3268
X4.9528Y-0.622
X4.9528Y-3.4567
X5.0472Y-1.3583
X5.0512Y-1.4606
X5.0866Y-0.622
X5.126Y-2.8622
X5.1299Y-4.5748
X5.1339Y-3.4331
X5.1417Y-4.0197
X5.1496Y-5.1772
X5.1811Y-1.3583
X5.185Y-1.4606
X5.2205Y-0.622
X5.2402Y-2.8661
X5.2441Y-4.5787
X5.248Y-3.437
X5.2559Y-4.0236
X5.2953Y-5.1929
X5.311Y-2.126
X5.3189Y-2.2283
X5.3504Y-1.4724
X5.3543Y-0.622
X5.4724Y-5.0394
X5.4843Y-3.7677
X5.4843Y-4.8661
X5.4882Y-0.622
X5.4961Y-4.7323
X5.4961Y-5.4094
X5.5Y-3.4606
X5.5354Y-5.2126
X5.5472Y-1.4094
X5.5472Y-2.1063
X5.5512Y-1.4882
X5.6063Y-2.2283
X5.622Y-0.622
X5.6339Y-3.3976
X5.689Y-1.4094
X5.689Y-5.2047
X5.6969Y-1.5
X5.6969Y-4.6732
X5.7559Y-0.622
X5.8268Y-1.4094
X5.8307Y-2.0787
X5.8346Y-1.5
X5.8465Y-1.8071
X5.8622Y-1.9331
X5.8622Y-2.8898
X5.874Y-2.2244
X5.8898Y-0.622
X5.9291Y-1.4016
X5.9488Y-1.5
X5.9764Y-2.3661
X5.9882Y-0.622
X6.0354Y-2.8819
X6.0512Y-1.4803
X6.0551Y-1.2244
X6.0669Y-1.378
X6.0669Y-1.811
X6.0709Y-1.9409
X6.122Y-0.622
X6.122Y-0.7244
X6.2559Y-0.622
X6.2559Y-0.7244
X6.2874Y-2.5748
X6.2913Y-2.9409
X6.3819Y-4.7008
X6.3819Y-5.2323
X6.3898Y-0.622
X6.3898Y-0.7244
X6.4173Y-3.6063
X6.4685Y-2.5394
X6.5236Y-0.622
X6.5236Y-0.7244
X6.5433Y-3.6102
X6.5906Y-4.6969
X6.5906Y-5.248
X6.6929Y-3.6024
X6.7283Y-4.1496
X6.7441Y-3.0669
X6.7913Y-3.6063
X6.8583Y-3.0748
X6.8701Y-4.1496
X6.9016Y-3.6024
T4
X7.889Y-2.4278
X7.889Y-2.5278
X7.889Y-2.6278
X7.889Y-2.7278
X7.889Y-2.9626
X7.889Y-3.0626
X7.889Y-3.1626
X7.889Y-3.2626
X7.9057Y-3.4795
X7.9057Y-3.5795
X7.9057Y-3.6795
X7.9057Y-3.7795
X8.189Y-2.4278
X8.189Y-2.5278
X8.189Y-2.6278
X8.189Y-2.7278
X8.189Y-2.9626
X8.189Y-3.0626
X8.189Y-3.1626
X8.189Y-3.2626
X8.2057Y-3.4795
X8.2057Y-3.5795
X8.2057Y-3.6795
X8.2057Y-3.7795
X8.5806Y-2.8688
X8.5806Y-2.9688
X8.5806Y-3.0688
X8.5806Y-3.1688
X8.5806Y-3.2688
X8.5806Y-3.3688
X9.2806Y-2.9688
X9.2806Y-3.0688
X9.2806Y-3.1688
X9.2806Y-3.2688
T5
X5.5704Y-4.4029
X5.5709Y-4.0344
X5.6688Y-4.4029
X5.6693Y-4.0344
X5.7672Y-4.4029
X5.7677Y-4.0344
X7.4016Y-2.4805
X7.4016Y-2.5789
X7.4016Y-2.6773
X7.4016Y-2.7758
X7.4016Y-3.057
X7.4016Y-3.1554
X7.4016Y-3.2538
X7.4016Y-3.3523
X7.4016Y-3.6693
X7.4016Y-3.7677
X7.4016Y-3.8661
X7.4016Y-3.9646
X8.4852Y-2.1457
X8.4852Y-2.2441
X8.4852Y-2.3425
X8.9065Y-2.1457
X8.9065Y-2.2441
X8.9065Y-2.3425
X9.1811Y-0.6929
X9.2795Y-0.6929
X9.3278Y-2.1457
X9.3278Y-2.2441
X9.3278Y-2.3425
X9.378Y-0.6929
T6
X6.9646Y-0.6748
X6.9646Y-1.8748
X7.0646Y-0.6748
X7.0646Y-1.8748
X7.1646Y-0.6748
X7.1646Y-1.8748
X7.2646Y-0.6748
X7.2646Y-1.8748
X7.2874Y-2.126
X7.3646Y-0.6748
X7.3646Y-1.8748
X7.3858Y-2.126
X7.4079Y-4.4189
X7.4079Y-5.6189
X7.4646Y-0.6748
X7.4646Y-1.8748
X7.5079Y-4.4189
X7.5079Y-5.6189
X7.5646Y-0.6748
X7.5646Y-1.8748
X7.6079Y-4.4189
X7.6079Y-5.6189
X7.6646Y-0.6748
X7.6646Y-1.8748
X7.7079Y-4.4189
X7.7079Y-5.6189
X7.7646Y-0.6748
X7.7646Y-1.8748
X7.8079Y-4.4189
X7.8079Y-5.6189
X7.8646Y-0.6748
X7.8646Y-1.8748
X7.9079Y-4.4189
X7.9079Y-5.6189
X7.9646Y-0.6748
X7.9646Y-1.8748
X8.0079Y-4.4189
X8.0079Y-5.6189
X8.0646Y-0.6748
X8.0646Y-1.8748
X8.1079Y-4.4189
X8.1079Y-5.6189
X8.1646Y-0.6748
X8.1646Y-1.8748
X8.2079Y-4.4189
X8.2079Y-5.6189
X8.2646Y-0.6748
X8.2646Y-1.8748
X8.3079Y-4.4189
X8.3079Y-5.6189
X8.3646Y-0.6748
X8.3646Y-1.8748
X8.4079Y-4.4189
X8.4079Y-5.6189
X8.4646Y-0.6748
X8.4646Y-1.8748
X8.5079Y-4.4189
X8.5079Y-5.6189
X8.5646Y-0.6748
X8.5646Y-1.8748
X8.602Y-2.7811
X8.6079Y-4.4189
X8.6079Y-5.6189
X8.6646Y-0.6748
X8.6646Y-1.8748
X8.702Y-2.7811
X8.7079Y-4.4189
X8.7079Y-5.6189
X8.7189Y-4.0157
X8.7646Y-0.6748
X8.7646Y-1.8748
X8.802Y-2.7811
X8.8079Y-4.4189
X8.8079Y-5.6189
X8.8189Y-4.0157
X8.8646Y-0.6748
X8.8646Y-1.8748
X8.902Y-2.7811
X8.9079Y-4.4189
X8.9079Y-5.6189
X8.9189Y-4.0157
X9.002Y-2.7811
X9.0079Y-4.4189
X9.0079Y-5.6189
X9.102Y-2.7811
X9.1079Y-4.4189
X9.1079Y-5.6189
X9.1189Y-4.0157
X9.202Y-2.7811
X9.2079Y-4.4189
X9.2079Y-5.6189
X9.2189Y-4.0157
X9.302Y-2.7811
X9.3079Y-4.4189
X9.3079Y-5.6189
X9.3189Y-4.0157
X9.4189Y-4.0157
T7
X6.0957Y-2.149
X6.0957Y-4.1175
X8.0642Y-2.149
X8.0642Y-4.1175
T8
X4.8031Y-0.9055
X4.8031Y-1.189
X4.8425Y-1.748
X4.8425Y-2.0315
X4.9055Y-4.8386
X4.9055Y-5.4136
X4.9083Y-2.55
X4.9083Y-3.125
X4.9083Y-3.7
X4.9083Y-4.275
X5.189Y-4.8386
X5.189Y-5.4136
X5.1917Y-2.55
X5.1917Y-3.125
X5.1917Y-3.7
X5.1917Y-4.275
X5.315Y-0.9055
X5.315Y-1.189
X5.3307Y-1.8504
X5.6142Y-1.8504
X5.6693Y-2.5984
X5.6693Y-3.0976
X5.6693Y-3.6362
X5.7087Y-4.8819
X5.7244Y-5.4331
X5.7874Y-0.9055
X5.7874Y-1.189
X5.9528Y-2.5984
X5.9528Y-3.0976
X5.9528Y-3.6362
X5.9921Y-4.8819
X6.0079Y-5.4331
X6.4724Y-2.7493
X6.4724Y-3.294
X6.4724Y-3.8386
X6.4724Y-4.3832
X6.4724Y-4.9278
X6.4724Y-5.4724
X6.5276Y-2.2441
X6.7559Y-2.7493
X6.7559Y-3.294
X6.7559Y-3.8386
X6.7559Y-4.3832
X6.7559Y-4.9278
X6.7559Y-5.4724
X6.811Y-2.2441
M30
