M48
; DRILL file {KiCad 9.0.2} date 2025-11-08T23:40:08+0530
; FORMAT={-:-/ absolute / inch / decimal}
; #@! TF.CreationDate,2025-11-08T23:40:08+05:30
; #@! TF.GenerationSoftware,Kicad,Pcbnew,9.0.2
; #@! TF.FileFunction,Plated,1,2,PTH
FMAT,2
INCH
; #@! TA.AperFunction,Plated,PTH,ViaDrill
T1C0.0118
; #@! TA.AperFunction,Plated,PTH,ComponentDrill
T2C0.0300
; #@! TA.AperFunction,Plated,PTH,ComponentDrill
T3C0.0315
; #@! TA.AperFunction,Plated,PTH,ComponentDrill
T4C0.0374
; #@! TA.AperFunction,Plated,PTH,ComponentDrill
T5C0.0394
; #@! TA.AperFunction,Plated,PTH,ComponentDrill
T6C0.1693
; #@! TA.AperFunction,Plated,PTH,ComponentDrill
T7C0.1772
%
G90
G05
T1
X4.6024Y-0.8937
X4.6142Y-0.8071
X4.6142Y-0.9843
X4.626Y-0.5827
X4.6339Y-0.7559
X4.6358Y-1.5453
X4.6358Y-1.7224
X4.6457Y-1.8012
X4.6693Y-0.7165
X4.6752Y-1.6142
X4.6752Y-1.7717
X4.6949Y-2.3917
X4.6949Y-2.4705
X4.6949Y-2.6772
X4.6949Y-2.7264
X4.6949Y-3.1594
X4.6949Y-3.8484
X4.6949Y-4.4291
X4.6949Y-4.6555
X4.6949Y-4.7343
X4.6969Y-0.6142
X4.7047Y-1.3287
X4.7047Y-1.4567
X4.7047Y-1.7421
X4.7047Y-2.2539
X4.7047Y-2.5295
X4.7047Y-2.8051
X4.7047Y-3.1988
X4.7047Y-3.4547
X4.7047Y-3.5335
X4.7047Y-3.6417
X4.7047Y-3.7402
X4.7047Y-5.0098
X4.7146Y-2.0472
X4.7146Y-3.0512
X4.7146Y-3.2972
X4.7146Y-3.376
X4.7146Y-4.1929
X4.7146Y-4.3012
X4.7146Y-4.9213
X4.7146Y-5.2657
X4.7244Y-1.811
X4.7244Y-1.9685
X4.7244Y-3.1102
X4.7244Y-3.8189
X4.7244Y-4.0551
X4.7244Y-4.8327
X4.7323Y-0.6575
X4.7343Y-3.5531
X4.7343Y-3.7598
X4.7343Y-4.1142
X4.7441Y-2.628
X4.7441Y-3.0118
X4.7441Y-3.5138
X4.7441Y-3.9665
X4.7441Y-4.5177
X4.7539Y-1.3484
X4.7539Y-1.4173
X4.7539Y-2.1654
X4.7539Y-2.8642
X4.7539Y-2.9429
X4.7539Y-3.2185
X4.7539Y-4.6752
X4.7539Y-4.7539
X4.7638Y-2.7461
X4.7638Y-2.8248
X4.7638Y-3.1102
X4.7638Y-3.2874
X4.7638Y-4.8819
X4.7638Y-5.0591
X4.7736Y-3.5827
X4.7736Y-3.6319
X4.7736Y-4.252
X4.7835Y-0.6417
X4.7835Y-1.3878
X4.7835Y-2.372
X4.7835Y-2.4311
X4.7835Y-4.0453
X4.7835Y-4.3996
X4.7835Y-4.5669
X4.7933Y-2.2638
X4.7933Y-3.4449
X4.7933Y-3.8878
X4.7933Y-4.124
X4.7953Y-0.5906
X4.8031Y-1.5945
X4.8031Y-2.7067
X4.8031Y-2.7756
X4.8031Y-3.4941
X4.8031Y-5.187
X4.813Y-1.4567
X4.813Y-2.9921
X4.813Y-3.5433
X4.813Y-3.8583
X4.813Y-4.4685
X4.813Y-4.6555
X4.8228Y-3.9469
X4.8327Y-1.5453
X4.8327Y-2.8543
X4.8327Y-2.9232
X4.8327Y-3.3366
X4.8327Y-5.0591
X4.8425Y-1.3583
X4.8425Y-2.185
X4.8425Y-5.0098
X4.8524Y-4.0748
X4.8622Y-2.3327
X4.8622Y-2.7461
X4.8622Y-2.8051
X4.872Y-3.4449
X4.872Y-3.4941
X4.872Y-4.5276
X4.8819Y-1.4075
X4.8819Y-2.9921
X4.8819Y-3.9173
X4.8819Y-3.9862
X4.8819Y-4.1437
X4.8819Y-4.5768
X4.8819Y-5.2264
X4.8917Y-2.9134
X4.8917Y-3.3169
X4.8917Y-3.3957
X4.8917Y-3.563
X4.8917Y-4.685
X4.9016Y-4.065
X4.9016Y-4.4291
X4.9016Y-4.626
X4.9114Y-2.6772
X4.9114Y-5.0492
X4.9173Y-0.6496
X4.9213Y-1.3386
X4.9213Y-2.7362
X4.9213Y-3.3563
X4.9213Y-4.1142
X4.9311Y-2.8051
X4.9311Y-3.4646
X4.9311Y-3.9075
X4.9508Y-2.7067
X4.9508Y-2.8642
X4.9508Y-3.5236
X4.9508Y-3.9961
X4.9508Y-4.0453
X4.9508Y-5.0
X4.9567Y-0.6299
X4.9606Y-1.5846
X4.9606Y-2.9134
X4.9606Y-2.9823
X4.9606Y-3.4154
X4.9606Y-4.1339
X4.9606Y-5.187
X4.9803Y-0.7992
X4.9803Y-1.4665
X4.9803Y-1.6929
X4.9803Y-3.563
X4.9902Y-4.439
X4.9902Y-5.0984
X5.0Y-1.1024
X5.0Y-1.2402
X5.0Y-1.6437
X5.0Y-1.7913
X5.0Y-2.0965
X5.0Y-3.3563
X5.0Y-3.4744
X5.0Y-4.5768
X5.0Y-4.6654
X5.0Y-4.7244
X5.0039Y-0.6654
X5.0098Y-2.2638
X5.0098Y-2.7756
X5.0098Y-2.8543
X5.0098Y-3.002
X5.0098Y-3.8878
X5.0098Y-4.0059
X5.0098Y-4.0748
X5.0118Y-0.874
X5.0157Y-0.9685
X5.0197Y-3.5335
X5.0197Y-3.6122
X5.0197Y-3.9567
X5.0197Y-4.3996
X5.0197Y-4.5177
X5.0295Y-1.1614
X5.0295Y-1.565
X5.0295Y-4.9803
X5.0394Y-4.3504
X5.0492Y-1.2106
X5.0492Y-1.2992
X5.0492Y-2.2047
X5.0512Y-0.5748
X5.0591Y-1.1122
X5.0689Y-1.1516
X5.0709Y-0.7362
X5.0748Y-0.878
X5.0787Y-2.0965
X5.0787Y-2.3031
X5.0866Y-0.6732
X5.0886Y-1.2598
X5.0886Y-1.6732
X5.0886Y-1.9193
X5.1083Y-1.0925
X5.1083Y-1.3878
X5.1083Y-1.4665
X5.1142Y-0.6024
X5.1181Y-1.2106
X5.1181Y-1.7815
X5.128Y-1.3091
X5.128Y-2.1752
X5.1378Y-2.313
X5.1476Y-1.5945
X5.1476Y-2.372
X5.1673Y-1.9291
X5.1673Y-2.1457
X5.1673Y-2.7461
X5.1673Y-2.874
X5.1673Y-3.3268
X5.1673Y-3.4055
X5.1772Y-1.437
X5.1772Y-3.4941
X5.1772Y-5.0886
X5.187Y-1.8406
X5.187Y-1.9882
X5.187Y-5.128
X5.1969Y-2.687
X5.1969Y-2.9626
X5.1969Y-3.2776
X5.2008Y-0.6417
X5.2165Y-1.6535
X5.2165Y-2.8445
X5.2165Y-3.3465
X5.2165Y-3.563
X5.2264Y-1.378
X5.2264Y-2.7559
X5.2441Y-0.6024
X5.2461Y-1.4567
X5.2461Y-2.1949
X5.2461Y-2.3622
X5.2461Y-3.4547
X5.2559Y-1.5354
X5.2559Y-1.7421
X5.2559Y-2.6969
X5.2657Y-2.8051
X5.2657Y-2.9232
X5.2657Y-3.2874
X5.2657Y-3.4055
X5.2657Y-5.128
X5.2756Y-3.3465
X5.2756Y-3.5236
X5.2854Y-2.0571
X5.2854Y-5.0787
X5.2953Y-1.6339
X5.2953Y-2.126
X5.3051Y-2.2441
X5.311Y-0.685
X5.3248Y-3.2677
X5.3445Y-3.002
X5.3445Y-3.2283
X5.3543Y-1.437
X5.3543Y-3.1102
X5.3642Y-1.378
X5.3701Y-0.6063
X5.374Y-1.565
X5.374Y-2.2146
X5.374Y-3.1594
X5.374Y-3.2874
X5.3839Y-1.6831
X5.3839Y-2.3425
X5.3898Y-0.6732
X5.3937Y-2.4114
X5.3937Y-2.4705
X5.3937Y-2.5689
X5.4035Y-3.0512
X5.4134Y-3.1693
X5.4134Y-3.2283
X5.4232Y-4.439
X5.4232Y-5.0
X5.4252Y-3.374
X5.4331Y-2.0669
X5.4331Y-3.0906
X5.4331Y-3.7303
X5.437Y-3.4724
X5.4429Y-2.6378
X5.4429Y-2.9724
X5.4429Y-3.2874
X5.4429Y-5.2362
X5.4449Y-3.5591
X5.4488Y-3.5118
X5.4528Y-2.2441
X5.4528Y-3.1496
X5.4528Y-3.248
X5.4528Y-3.8386
X5.4528Y-3.9961
X5.4528Y-4.1831
X5.4528Y-4.6457
X5.4528Y-5.1083
X5.4626Y-2.1752
X5.4626Y-4.7736
X5.4626Y-4.8622
X5.4724Y-0.6654
X5.4724Y-2.4606
X5.4724Y-3.2087
X5.4823Y-3.0709
X5.4823Y-4.3209
X5.4823Y-5.1673
X5.4961Y-3.3543
X5.4961Y-3.5039
X5.502Y-1.1811
X5.502Y-5.2953
X5.5118Y-3.0315
X5.5118Y-3.1299
X5.5118Y-3.2382
X5.5118Y-3.3976
X5.5118Y-3.8878
X5.5118Y-4.5669
X5.5118Y-4.9213
X5.5118Y-5.0295
X5.5157Y-0.5866
X5.5217Y-1.25
X5.5217Y-2.0472
X5.5217Y-3.1988
X5.5217Y-4.2421
X5.5217Y-4.7047
X5.5315Y-1.0925
X5.5315Y-1.4764
X5.5315Y-2.1358
X5.5413Y-2.6083
X5.5413Y-3.2776
X5.5512Y-1.3091
X5.5512Y-1.3976
X5.5512Y-2.2343
X5.5512Y-3.4961
X5.5512Y-3.7894
X5.5512Y-5.2067
X5.5591Y-0.685
X5.5591Y-3.4409
X5.561Y-1.1909
X5.561Y-2.4409
X5.563Y-3.3898
X5.5807Y-1.2598
X5.5807Y-1.3681
X5.5807Y-2.1752
X5.5807Y-5.1575
X5.5906Y-1.1319
X5.6102Y-1.4862
X5.6201Y-1.1811
X5.6201Y-1.2303
X5.6201Y-1.3287
X5.6201Y-5.3346
X5.622Y-3.3543
X5.622Y-3.437
X5.626Y-0.6732
X5.6299Y-1.437
X5.6299Y-3.2579
X5.6378Y-0.5787
X5.6398Y-1.0925
X5.6398Y-5.1673
X5.6496Y-1.1417
X5.6496Y-2.1654
X5.6594Y-1.2402
X5.6594Y-1.378
X5.6594Y-2.0669
X5.6594Y-2.2146
X5.685Y-3.3858
X5.689Y-1.5157
X5.689Y-3.2776
X5.6988Y-5.128
X5.6988Y-5.2165
X5.7087Y-1.4075
X5.7185Y-1.4567
X5.7185Y-2.4409
X5.7244Y-0.6378
X5.7283Y-3.2579
X5.7382Y-2.2047
X5.748Y-1.752
X5.748Y-1.9094
X5.752Y-3.3583
X5.7579Y-2.0768
X5.7579Y-2.4803
X5.7677Y-2.2441
X5.7776Y-1.4173
X5.7776Y-1.8209
X5.7874Y-5.2067
X5.7972Y-1.9291
X5.8071Y-1.4961
X5.815Y-0.5787
X5.815Y-3.3425
X5.8268Y-1.4567
X5.8268Y-3.5118
X5.8366Y-2.0866
X5.8465Y-2.8445
X5.8465Y-3.0217
X5.8563Y-1.3878
X5.8563Y-2.1457
X5.8563Y-2.4311
X5.8563Y-2.7264
X5.8661Y-1.8701
X5.8661Y-3.2087
X5.8701Y-3.3504
X5.876Y-1.7618
X5.876Y-2.9921
X5.8858Y-2.2736
X5.8858Y-2.3622
X5.8858Y-2.4902
X5.8957Y-2.2146
X5.8957Y-2.7461
X5.9016Y-0.6575
X5.9055Y-1.4469
X5.9154Y-1.939
X5.9154Y-2.4114
X5.9213Y-1.252
X5.9252Y-1.3681
X5.9252Y-1.5256
X5.9252Y-2.8346
X5.9291Y-3.3622
X5.935Y-1.7815
X5.935Y-1.8504
X5.9449Y-2.9528
X5.9528Y-1.1024
X5.9547Y-2.0276
X5.9567Y-1.1929
X5.9567Y-3.3268
X5.9606Y-0.5787
X5.9646Y-1.437
X5.9646Y-1.4862
X5.9646Y-2.3622
X5.9646Y-2.4409
X5.9724Y-1.2756
X5.9744Y-1.9488
X5.9744Y-2.8543
X6.0039Y-2.7461
X6.0079Y-1.1142
X6.0079Y-1.2205
X6.0079Y-3.3504
X6.0118Y-3.3071
X6.0138Y-1.7815
X6.0138Y-1.9094
X6.0197Y-1.3346
X6.0315Y-0.9252
X6.0315Y-1.5
X6.0335Y-2.4114
X6.0335Y-2.4705
X6.0354Y-0.689
X6.0354Y-0.8386
X6.0394Y-1.4409
X6.0433Y-1.9094
X6.0433Y-3.1988
X6.0472Y-1.1614
X6.0531Y-2.6673
X6.0551Y-1.2402
X6.063Y-2.3524
X6.063Y-2.8346
X6.063Y-2.8937
X6.063Y-2.9724
X6.0728Y-1.5453
X6.0728Y-2.5098
X6.0728Y-2.6083
X6.0728Y-3.0217
X6.0787Y-1.1417
X6.0787Y-3.3504
X6.0827Y-1.2087
X6.0827Y-1.3898
X6.0827Y-3.1004
X6.0827Y-3.1693
X6.1024Y-1.4606
X6.1181Y-0.874
X6.1181Y-1.3425
X6.122Y-0.6063
X6.122Y-1.3858
X6.122Y-1.5197
X6.1339Y-1.5787
X6.1378Y-3.3386
X6.1417Y-1.2638
X6.1417Y-1.4252
X6.1457Y-0.9331
X6.1614Y-3.3031
X6.1693Y-1.1496
X6.1693Y-1.3976
X6.1772Y-1.5039
X6.1772Y-1.5827
X6.1811Y-3.0315
X6.189Y-2.815
X6.189Y-3.2559
X6.1969Y-0.5827
X6.1969Y-0.8937
X6.2008Y-3.0906
X6.2008Y-3.1969
X6.2047Y-2.7559
X6.2087Y-2.8898
X6.2087Y-3.3504
X6.2165Y-1.1102
X6.2205Y-1.8583
X6.2205Y-2.313
X6.2244Y-2.5433
X6.2362Y-0.6575
X6.2402Y-1.2283
X6.2441Y-1.1614
X6.2441Y-3.0354
X6.248Y-3.2402
X6.252Y-3.0945
X6.252Y-3.2953
X6.252Y-5.2795
X6.2559Y-2.937
X6.2559Y-4.3976
X6.2559Y-4.6339
X6.2598Y-3.3504
X6.2638Y-2.8386
X6.2638Y-4.9567
X6.2638Y-5.1732
X6.2677Y-2.5118
X6.2677Y-5.6024
X6.2697Y-2.2441
X6.2697Y-2.3622
X6.2717Y-5.5
X6.2756Y-2.7638
X6.2756Y-4.5748
X6.2756Y-4.8465
X6.2756Y-5.3858
X6.2795Y-2.5984
X6.2795Y-2.6811
X6.2835Y-2.9764
X6.2874Y-4.3819
X6.2874Y-4.4921
X6.2894Y-2.313
X6.2913Y-4.752
X6.2953Y-0.6654
X6.2953Y-3.0354
X6.2953Y-3.1457
X6.2953Y-5.0079
X6.2992Y-1.1929
X6.2992Y-2.0374
X6.2992Y-2.1063
X6.311Y-1.1299
X6.311Y-5.3189
X6.3189Y-2.2146
X6.3189Y-3.0906
X6.3189Y-4.7992
X6.3228Y-4.4606
X6.3268Y-1.2677
X6.3268Y-2.937
X6.3346Y-0.6102
X6.3346Y-1.3622
X6.3386Y-2.3425
X6.3425Y-1.6339
X6.3504Y-1.2008
X6.3583Y-2.0965
X6.3583Y-2.8976
X6.3583Y-4.6811
X6.3622Y-0.874
X6.3622Y-3.0591
X6.374Y-2.5039
X6.374Y-2.9685
X6.374Y-5.1457
X6.374Y-5.2559
X6.378Y-1.1654
X6.3819Y-1.3307
X6.3819Y-5.6614
X6.3878Y-2.0374
X6.3878Y-2.372
X6.3881Y-1.5714
X6.3937Y-4.6063
X6.4094Y-0.9213
X6.4134Y-1.1378
X6.4173Y-1.5256
X6.4173Y-1.7323
X6.4213Y-3.0787
X6.4252Y-3.0236
X6.4272Y-2.1457
X6.4291Y-4.6693
X6.4409Y-4.748
X6.4449Y-1.2165
X6.4488Y-0.9606
X6.4488Y-2.5827
X6.4488Y-2.9449
X6.4567Y-1.3346
X6.4606Y-5.1535
X6.4646Y-2.5197
X6.4724Y-1.1811
X6.4764Y-2.0768
X6.4764Y-2.3917
X6.4764Y-4.5709
X6.4764Y-5.2244
X6.4803Y-0.8504
X6.4803Y-0.9961
X6.4843Y-1.378
X6.4961Y-1.752
X6.5039Y-3.063
X6.5039Y-4.6457
X6.5118Y-0.6142
X6.5118Y-5.3346
X6.5157Y-0.874
X6.5236Y-2.5236
X6.5256Y-1.7996
X6.5276Y-1.0354
X6.5315Y-4.7165
X6.5315Y-5.1339
X6.5354Y-5.2323
X6.5394Y-2.9449
X6.5433Y-0.6654
X6.5433Y-0.9094
X6.5453Y-2.0965
X6.5591Y-2.5984
X6.5709Y-4.7717
X6.5709Y-5.6732
X6.5745Y-0.7874
X6.5748Y-0.9449
X6.5748Y-1.0827
X6.5748Y-5.0866
X6.5846Y-1.6535
X6.5846Y-1.7126
X6.5906Y-4.6063
X6.5945Y-0.6063
X6.5945Y-3.0354
X6.6024Y-1.8386
X6.6043Y-2.3917
X6.6063Y-4.5079
X6.6063Y-5.622
X6.6102Y-0.9724
X6.6142Y-1.5945
X6.6142Y-2.5118
X6.6142Y-2.9685
X6.6181Y-1.122
X6.6181Y-5.3425
X6.622Y-4.8268
X6.622Y-5.2165
X6.624Y-2.3425
X6.6299Y-5.0433
X6.6299Y-5.0945
X6.6496Y-4.748
X6.6535Y-1.4961
X6.6575Y-1.7992
X6.6575Y-1.8622
X6.6614Y-1.1654
X6.6654Y-4.689
X6.6811Y-5.1811
X6.6929Y-1.8346
X6.6969Y-1.2087
X6.7126Y-1.0709
X6.7205Y-0.6102
X6.7205Y-4.6457
X6.7282Y-1.7722
X6.7323Y-1.252
X6.7441Y-0.8661
X6.7441Y-1.874
X6.7559Y-0.7362
X6.7598Y-1.9252
X6.7638Y-2.4921
X6.7795Y-1.3386
X6.7795Y-1.4134
X6.7795Y-2.4449
X6.7835Y-1.2835
X6.7835Y-1.8307
X6.7874Y-2.0354
X6.7874Y-4.6142
X6.8031Y-1.1654
X6.8031Y-1.9094
X6.8031Y-1.9724
X6.811Y-1.3661
X6.815Y-1.6339
X6.815Y-1.7598
X6.8268Y-1.4646
X6.8268Y-1.5827
X6.8307Y-1.7087
X6.8346Y-1.5394
X6.8386Y-5.6457
X6.8425Y-1.4252
X6.8425Y-5.2559
X6.8465Y-0.6102
X6.8465Y-2.0197
X6.8504Y-0.9606
X6.8504Y-1.3504
X6.8583Y-1.2323
X6.8583Y-1.9449
X6.8622Y-0.8976
X6.8701Y-1.3898
X6.8701Y-1.7638
X6.8701Y-1.8071
X6.8701Y-2.5
X6.874Y-2.0433
X6.874Y-2.4528
X6.878Y-0.7638
X6.8819Y-1.4803
X6.8858Y-1.0394
X6.8858Y-5.0906
X6.8898Y-5.0315
X6.8937Y-5.3465
X6.8976Y-1.6811
X6.9016Y-1.5472
X6.9016Y-1.811
X6.9055Y-0.6339
X6.9055Y-1.5984
X6.9094Y-4.7047
X6.9134Y-5.5591
X6.9173Y-1.9882
X6.9173Y-2.5
X6.9252Y-5.4134
X6.9291Y-0.7205
X6.9291Y-5.2795
X6.9331Y-1.4685
X6.9331Y-1.752
X6.9331Y-4.7835
X6.9409Y-1.5866
X6.9488Y-1.1339
X6.9528Y-0.5945
X6.9528Y-4.8937
X6.9528Y-4.9449
X6.9528Y-5.1614
X6.9567Y-4.6535
X6.9606Y-1.8031
X6.9606Y-5.4764
X6.9646Y-1.5236
X6.9646Y-5.3268
X6.9685Y-1.0276
X6.9685Y-2.8898
X6.9685Y-3.1614
X6.9685Y-4.2008
X6.9724Y-1.6575
X6.9764Y-2.9646
X6.9764Y-3.0472
X6.9764Y-3.4685
X6.9764Y-5.2047
X6.9764Y-5.4016
X6.9803Y-3.252
X6.9803Y-3.6811
X6.9803Y-5.0827
X6.9843Y-1.3622
X6.9843Y-2.5827
X6.9843Y-2.8386
X6.9843Y-3.6181
X6.9843Y-5.0236
X6.9882Y-0.5748
X6.9882Y-4.378
X6.9961Y-2.0079
X6.9961Y-2.0709
X6.9961Y-2.6378
X6.9961Y-2.7677
X6.9961Y-3.5433
X7.0Y-3.874
X7.0Y-3.9921
X7.0Y-4.2717
X7.0Y-4.626
X7.0Y-4.7205
X7.0039Y-2.5157
X7.0039Y-3.0984
X7.0039Y-4.0827
X7.0039Y-5.2953
X7.0079Y-2.4173
X7.0157Y-1.1181
X7.0157Y-2.5984
X7.0157Y-4.2087
X7.0157Y-4.9331
X7.0197Y-2.4488
X7.0197Y-3.7598
X7.0236Y-3.4961
X7.0236Y-5.0118
X7.0276Y-3.9291
X7.0315Y-2.2362
X7.0315Y-2.9016
X7.0315Y-4.563
X7.0433Y-1.2087
X7.0433Y-2.1063
X7.0433Y-2.3031
X7.0433Y-3.3819
X7.0472Y-2.5433
X7.0472Y-2.7126
X7.0472Y-3.0394
X7.0472Y-4.1772
X7.0591Y-2.0669
X7.0591Y-3.2992
X7.063Y-2.1535
X7.0669Y-2.8583
X7.0669Y-3.6024
X7.0709Y-3.0787
X7.0709Y-3.2047
X7.0709Y-3.7205
X7.0827Y-3.5118
X7.0827Y-3.815
X7.0866Y-2.9724
X7.0866Y-4.2362
X7.0906Y-1.2835
X7.0906Y-2.4488
X7.0906Y-2.6102
X7.0945Y-1.4646
X7.0945Y-2.2323
X7.0945Y-2.4843
X7.0984Y-2.7913
X7.0984Y-3.4449
X7.1024Y-3.2362
X7.1063Y-2.0945
X7.1063Y-2.6496
X7.1063Y-3.1417
X7.1142Y-2.1654
X7.1142Y-2.5512
X7.1191Y-4.0719
X7.122Y-3.0394
X7.122Y-3.3031
X7.126Y-0.563
X7.1299Y-1.5118
X7.1378Y-3.874
X7.1394Y-3.9922
X7.1417Y-3.5984
X7.1457Y-0.6102
X7.1457Y-2.4213
X7.1496Y-2.2323
X7.1535Y-1.2165
X7.1575Y-2.5
X7.1575Y-2.6063
X7.1575Y-4.2165
X7.1614Y-1.3268
X7.1614Y-2.1614
X7.1614Y-2.5433
X7.1614Y-3.7008
X7.1654Y-5.2461
X7.1693Y-2.2913
X7.1732Y-2.0827
X7.1772Y-1.1654
X7.1772Y-2.3543
X7.1969Y-1.2559
X7.1969Y-3.9094
X7.2047Y-2.1181
X7.2047Y-2.2008
X7.2126Y-2.4567
X7.2146Y-3.4547
X7.2165Y-2.5276
X7.2205Y-0.5748
X7.2205Y-2.4016
X7.2205Y-3.3031
X7.2205Y-3.8071
X7.2244Y-2.3268
X7.2283Y-1.4173
X7.2343Y-5.0689
X7.2362Y-2.2638
X7.2402Y-2.1614
X7.2402Y-2.7638
X7.2402Y-2.8346
X7.2441Y-4.9606
X7.2559Y-0.6024
X7.2559Y-3.3425
X7.2598Y-4.122
X7.2638Y-1.4843
X7.2638Y-1.6437
X7.2677Y-1.3071
X7.2717Y-1.3819
X7.2717Y-3.2598
X7.2736Y-0.8169
X7.2835Y-3.8543
X7.2913Y-1.2087
X7.2933Y-5.2264
X7.3031Y-1.0512
X7.3031Y-3.374
X7.3071Y-1.5079
X7.3071Y-2.6969
X7.311Y-4.0866
X7.315Y-2.7441
X7.3189Y-3.9685
X7.3228Y-5.1083
X7.3268Y-1.2913
X7.3268Y-3.2913
X7.3465Y-0.5748
X7.3465Y-3.3465
X7.3504Y-1.4685
X7.3504Y-3.2087
X7.3524Y-4.8819
X7.3543Y-2.7244
X7.3622Y-2.6299
X7.372Y-1.7224
X7.374Y-1.1024
X7.374Y-3.2795
X7.378Y-2.6693
X7.3819Y-0.8169
X7.3819Y-1.1654
X7.3819Y-5.4823
X7.3898Y-1.4449
X7.3898Y-3.8976
X7.3917Y-5.2067
X7.3976Y-1.3583
X7.4016Y-3.9449
X7.4094Y-2.7008
X7.4173Y-3.1929
X7.4213Y-5.0787
X7.4252Y-0.5827
X7.4252Y-2.7559
X7.4291Y-1.1654
X7.4311Y-4.9902
X7.4331Y-1.0472
X7.4331Y-3.2677
X7.4331Y-4.1811
X7.437Y-2.5669
X7.4409Y-2.6181
X7.4409Y-3.7677
X7.4508Y-2.0276
X7.4528Y-3.2165
X7.4567Y-2.3898
X7.4606Y-2.4803
X7.4606Y-3.0709
X7.4646Y-2.6496
X7.4646Y-3.126
X7.4705Y-1.4173
X7.4705Y-1.7224
X7.4738Y-1.3254
X7.4798Y-2.7455
X7.4803Y-2.5236
X7.4803Y-3.6378
X7.4803Y-4.872
X7.4803Y-5.4921
X7.4882Y-2.3661
X7.4882Y-2.5709
X7.4961Y-3.2087
X7.5Y-2.9646
X7.5Y-3.5728
X7.5039Y-2.6929
X7.5039Y-4.2323
X7.5079Y-2.4921
X7.5118Y-3.8819
X7.5197Y-2.6181
X7.5236Y-2.437
X7.524Y-0.6063
X7.5276Y-3.7323
X7.5276Y-3.8228
X7.5315Y-1.248
X7.5315Y-3.0748
X7.5315Y-3.6929
X7.5354Y-2.6654
X7.5354Y-3.1339
X7.5394Y-2.7756
X7.5472Y-2.5787
X7.5512Y-4.1142
X7.5551Y-3.0157
X7.5591Y-1.7224
X7.5669Y-1.2559
X7.5689Y-0.7972
X7.5689Y-1.1909
X7.5689Y-1.6437
X7.5689Y-4.5768
X7.5787Y-1.5256
X7.5787Y-2.4311
X7.5787Y-3.0866
X7.5787Y-5.4921
X7.5821Y-2.1392
X7.5866Y-2.9055
X7.5945Y-3.5039
X7.5945Y-3.7165
X7.6083Y-5.1181
X7.622Y-3.6102
X7.628Y-2.7854
X7.6299Y-4.1378
X7.6374Y-2.5294
X7.6432Y-1.3406
X7.6432Y-1.378
X7.6476Y-4.0748
X7.6496Y-0.5787
X7.6496Y-3.5472
X7.6496Y-3.7992
X7.6575Y-1.9783
X7.6575Y-2.5787
X7.6575Y-4.5866
X7.6575Y-5.0
X7.6673Y-2.5394
X7.6673Y-4.8819
X7.6693Y-1.2323
X7.6693Y-3.4055
X7.6772Y-5.4921
X7.685Y-2.1969
X7.685Y-3.8858
X7.6929Y-3.7087
X7.6969Y-2.1378
X7.6969Y-5.1969
X7.7067Y-2.0276
X7.7126Y-1.3228
X7.7126Y-4.2165
X7.7165Y-3.374
X7.7165Y-3.811
X7.7205Y-0.5787
X7.7283Y-2.2283
X7.7362Y-2.0748
X7.7362Y-3.3307
X7.7402Y-1.9685
X7.748Y-4.0079
X7.752Y-3.5512
X7.7559Y-0.8169
X7.7575Y-1.1024
X7.7657Y-2.7559
X7.7657Y-4.9803
X7.7677Y-3.1614
X7.7717Y-0.6181
X7.7717Y-2.9291
X7.7756Y-1.4173
X7.7756Y-3.063
X7.7756Y-4.2126
X7.7756Y-4.5866
X7.7756Y-5.4921
X7.7835Y-3.6417
X7.7874Y-1.2402
X7.7913Y-2.9764
X7.7953Y-3.8268
X7.7953Y-5.0984
X7.7953Y-5.2165
X7.7992Y-3.3465
X7.7992Y-3.4528
X7.7992Y-3.7441
X7.8031Y-2.0748
X7.8031Y-3.1969
X7.8071Y-3.2992
X7.811Y-1.9803
X7.811Y-2.2992
X7.815Y-4.1693
X7.8189Y-3.1299
X7.8228Y-3.0433
X7.8248Y-1.3878
X7.8248Y-1.4429
X7.8248Y-4.8622
X7.8268Y-2.122
X7.8307Y-1.3425
X7.8307Y-2.0276
X7.8307Y-3.5591
X7.8425Y-2.3228
X7.8504Y-4.2205
X7.852Y-1.1742
X7.8543Y-3.8622
X7.8583Y-3.811
X7.8642Y-1.6339
X7.8642Y-5.4921
X7.8661Y-3.7362
X7.8701Y-1.252
X7.874Y-0.8169
X7.874Y-1.5256
X7.874Y-4.5866
X7.878Y-4.1772
X7.8819Y-1.2874
X7.8819Y-4.0157
X7.8839Y-3.4154
X7.8839Y-5.0
X7.8898Y-4.0709
X7.8937Y-3.5394
X7.8976Y-3.6417
X7.8976Y-3.8307
X7.9026Y-1.3799
X7.9134Y-5.1673
X7.9232Y-2.8346
X7.9291Y-2.3661
X7.9291Y-3.874
X7.9331Y-1.5118
X7.937Y-2.0315
X7.937Y-3.7402
X7.9409Y-2.2913
X7.9606Y-0.5748
X7.9626Y-1.1811
X7.9626Y-2.8642
X7.9724Y-0.8268
X7.9724Y-3.8228
X7.9724Y-4.8031
X7.9823Y-4.5866
X7.9823Y-5.4921
X7.9843Y-2.3543
X7.9843Y-3.4488
X7.9882Y-2.4331
X7.9882Y-2.5866
X7.9882Y-2.6614
X7.9882Y-3.6457
X7.9882Y-3.685
X7.9921Y-0.9252
X7.9921Y-1.3386
X7.9921Y-1.3799
X7.9921Y-1.4173
X7.9961Y-2.4882
X7.9961Y-3.3858
X8.0039Y-2.6102
X8.0118Y-1.9685
X8.0197Y-2.5236
X8.0217Y-1.2894
X8.0236Y-3.748
X8.0315Y-3.189
X8.0315Y-5.0394
X8.0413Y-1.0433
X8.0512Y-1.4606
X8.0575Y-1.1742
X8.0591Y-3.5433
X8.063Y-3.8425
X8.0709Y-1.7224
X8.0709Y-3.189
X8.0709Y-5.4823
X8.0807Y-0.7972
X8.0807Y-4.5866
X8.1024Y-3.8228
X8.1063Y-3.8661
X8.1102Y-1.1319
X8.1102Y-3.189
X8.1102Y-3.2283
X8.1201Y-1.2697
X8.122Y-3.5433
X8.1299Y-1.063
X8.1398Y-4.9508
X8.1496Y-1.378
X8.1535Y-3.8504
X8.1614Y-3.6024
X8.1693Y-0.8169
X8.1791Y-3.75
X8.1878Y-1.3448
X8.189Y-1.6437
X8.189Y-4.5866
X8.189Y-5.502
X8.1965Y-1.4961
X8.1976Y-1.4154
X8.2008Y-4.2362
X8.2126Y-3.5551
X8.2283Y-2.0157
X8.2283Y-5.128
X8.2315Y-1.2795
X8.2323Y-3.8701
X8.2323Y-4.0157
X8.2362Y-3.6654
X8.2362Y-4.2008
X8.2441Y-4.1102
X8.248Y-1.2008
X8.248Y-3.7126
X8.2579Y-1.063
X8.2677Y-1.1319
X8.2677Y-1.4862
X8.2677Y-1.7421
X8.2677Y-2.0669
X8.2717Y-1.378
X8.2731Y-1.3406
X8.2776Y-0.8268
X8.2776Y-4.5866
X8.2776Y-5.502
X8.2795Y-3.6496
X8.2835Y-4.0591
X8.2874Y-2.0276
X8.2913Y-4.1614
X8.2913Y-4.2126
X8.2972Y-3.2874
X8.3071Y-1.1417
X8.3071Y-1.2697
X8.3071Y-1.4764
X8.3189Y-2.1142
X8.3234Y-1.3714
X8.3265Y-1.2992
X8.3268Y-1.9843
X8.3268Y-5.1378
X8.3366Y-2.8051
X8.3465Y-2.4705
X8.3531Y-2.6343
X8.3661Y-4.5866
X8.3723Y-1.2505
X8.376Y-1.7323
X8.376Y-2.9331
X8.3776Y-1.5059
X8.3801Y-3.0087
X8.3801Y-3.2127
X8.3858Y-0.8268
X8.3858Y-5.0098
X8.3858Y-5.502
X8.4016Y-2.0591
X8.4252Y-1.2205
X8.4252Y-3.5335
X8.4449Y-2.1142
X8.4547Y-4.2126
X8.4646Y-1.7323
X8.4646Y-5.4921
X8.4843Y-3.2283
X8.4941Y-0.8563
X8.4985Y-1.378
X8.5039Y-2.9429
X8.5138Y-1.5059
X8.5197Y-2.063
X8.5335Y-1.0728
X8.5354Y-2.1181
X8.5433Y-5.1673
X8.5531Y-0.8268
X8.563Y-3.6909
X8.5654Y-1.4701
X8.5687Y-3.9847
X8.5728Y-4.5866
X8.5728Y-5.5118
X8.5827Y-4.1767
X8.5827Y-4.2485
X8.5827Y-5.2461
X8.5925Y-1.378
X8.5925Y-3.4744
X8.6024Y-2.0571
X8.6063Y-2.1142
X8.6122Y-2.7461
X8.622Y-1.2106
X8.622Y-1.9567
X8.6417Y-3.9567
X8.6496Y-1.4252
X8.6614Y-5.502
X8.6713Y-0.8366
X8.6713Y-1.5315
X8.6713Y-1.7421
X8.6713Y-4.2126
X8.6713Y-4.5866
X8.6713Y-5.0886
X8.6811Y-3.3366
X8.6811Y-5.2067
X8.6909Y-4.0945
X8.6929Y-1.4528
X8.7104Y-3.7697
X8.7362Y-1.3465
X8.75Y-3.4941
X8.7566Y-3.0408
X8.7638Y-1.9567
X8.7638Y-2.1142
X8.7677Y-1.6654
X8.7795Y-0.8366
X8.7795Y-4.5866
X8.7795Y-5.0787
X8.7795Y-5.187
X8.7795Y-5.5118
X8.7874Y-1.3386
X8.7874Y-1.7362
X8.7894Y-4.9705
X8.7953Y-2.1024
X8.7992Y-1.4134
X8.8031Y-1.7913
X8.8189Y-1.2205
X8.8189Y-2.7854
X8.8307Y-1.7047
X8.8425Y-1.3228
X8.8465Y-1.374
X8.8465Y-1.6299
X8.8465Y-1.9567
X8.8504Y-2.2559
X8.8543Y-2.4291
X8.8583Y-3.4744
X8.8583Y-3.5335
X8.8583Y-4.5866
X8.8584Y-3.7697
X8.8661Y-2.5433
X8.8681Y-0.8169
X8.8681Y-4.1732
X8.8681Y-5.5118
X8.8701Y-1.5157
X8.8701Y-2.1929
X8.874Y-1.7953
X8.878Y-5.2165
X8.8819Y-2.3031
X8.8858Y-1.3386
X8.8858Y-2.378
X8.8976Y-1.4606
X8.9075Y-4.2126
X8.9173Y-1.5039
X8.9173Y-1.9567
X8.9173Y-2.2323
X8.9173Y-2.3386
X8.9173Y-5.0689
X8.9272Y-3.0413
X8.937Y-2.1181
X8.937Y-4.9213
X8.9409Y-2.5512
X8.9449Y-2.4567
X8.9469Y-5.1575
X8.9606Y-2.3583
X8.9646Y-2.2913
X8.9665Y-5.502
X8.9724Y-0.7992
X8.9764Y-0.8543
X8.9764Y-1.3976
X8.9764Y-4.5768
X8.9803Y-1.9567
X8.9882Y-1.4488
X8.9921Y-0.9213
X8.9961Y-2.1299
X9.0039Y-0.6969
X9.0039Y-2.5315
X9.0079Y-1.6339
X9.0118Y-0.8268
X9.0118Y-1.8071
X9.0118Y-2.437
X9.0157Y-0.7756
X9.0157Y-1.8425
X9.0157Y-2.3898
X9.0197Y-1.7047
X9.0197Y-1.8976
X9.0216Y-3.0259
X9.0236Y-1.5433
X9.0256Y-3.5236
X9.0266Y-3.8583
X9.0315Y-0.8583
X9.0315Y-2.2205
X9.0315Y-2.563
X9.0394Y-0.685
X9.0394Y-0.8976
X9.0394Y-1.5984
X9.0453Y-2.7165
X9.0453Y-2.8346
X9.0472Y-1.3701
X9.0472Y-1.5079
X9.0472Y-1.9528
X9.0512Y-0.7992
X9.0551Y-0.7362
X9.0565Y-4.2187
X9.0566Y-3.357
X9.063Y-1.8898
X9.063Y-2.4331
X9.0709Y-0.8425
X9.0709Y-2.1378
X9.0748Y-4.5866
X9.0827Y-2.2559
X9.0866Y-2.5394
X9.0945Y-1.4449
X9.0945Y-1.7913
X9.0945Y-1.8622
X9.0945Y-5.4724
X9.0984Y-1.5197
X9.1024Y-1.7205
X9.1024Y-1.9213
X9.1063Y-2.315
X9.1102Y-2.4488
X9.1142Y-1.3189
X9.1181Y-2.2244
X9.1299Y-1.2402
X9.1299Y-2.1693
X9.1339Y-0.7913
X9.1339Y-1.6457
X9.1339Y-1.8228
X9.1339Y-1.937
X9.1339Y-3.1299
X9.1378Y-0.7087
X9.1378Y-1.378
X9.1417Y-1.5315
X9.1417Y-2.1024
X9.1437Y-2.7756
X9.1437Y-3.8583
X9.1496Y-1.874
X9.1535Y-2.5551
X9.1575Y-1.6929
X9.1614Y-2.3425
X9.1654Y-1.5709
X9.1654Y-1.7835
X9.1654Y-1.9134
X9.1693Y-0.7047
X9.1732Y-1.2598
X9.1772Y-1.311
X9.1772Y-1.4134
X9.1811Y-1.8268
X9.1831Y-4.8622
X9.185Y-0.7835
X9.1929Y-1.185
X9.1929Y-2.1102
X9.2008Y-1.7992
X9.2087Y-1.8858
X9.2126Y-1.7362
X9.2126Y-2.2283
X9.2205Y-1.5039
X9.2244Y-0.7598
X9.2244Y-2.2992
X9.2283Y-1.3071
X9.2323Y-1.2283
X9.2323Y-2.5748
X9.2323Y-2.9331
X9.2362Y-2.5039
X9.2402Y-1.5709
X9.2441Y-0.7205
X9.2441Y-2.3622
X9.248Y-4.178
X9.248Y-1.6496
X9.252Y-1.126
X9.252Y-1.3819
X9.252Y-1.4843
X9.252Y-2.2795
X9.252Y-3.4941
X9.2559Y-1.7047
X9.2559Y-1.7677
X9.2598Y-1.2677
X9.2598Y-1.437
X9.2618Y-3.7992
X9.2638Y-0.7756
X9.2638Y-1.3346
X9.2638Y-2.2126
X9.2795Y-2.0591
X9.2795Y-2.1024
X9.2913Y-2.5118
X9.2913Y-5.1476
X9.2953Y-0.7402
X9.2968Y-3.8583
X9.2992Y-2.563
X9.311Y-1.6063
X9.315Y-1.6654
X9.3159Y-4.178
X9.3189Y-2.0276
X9.3189Y-2.1339
X9.3189Y-2.1693
X9.3386Y-1.5197
X9.3406Y-2.7756
X9.3425Y-0.5866
X9.3504Y-2.0827
X9.3504Y-2.9035
X9.3583Y-2.0118
X9.3602Y-3.3661
X9.3647Y-3.8583
X9.3661Y-2.1339
X9.378Y-0.6024
X9.378Y-1.6142
X9.3799Y-5.4232
X9.3819Y-2.5079
X9.3819Y-2.5591
X9.3858Y-1.5591
X9.3858Y-2.1693
X9.3898Y-3.0709
X9.4094Y-5.6299
X9.4134Y-0.5906
X9.4173Y-0.6339
X9.4173Y-2.4055
X9.4213Y-2.3425
X9.4331Y-2.4685
X9.4488Y-3.0118
X9.4528Y-2.5512
X9.4567Y-0.6457
X9.4567Y-2.3031
X9.4567Y-2.3976
X9.4606Y-0.685
X9.4685Y-0.6102
X9.4685Y-1.7283
X9.4724Y-0.9291
X9.4724Y-1.0945
X9.4724Y-1.1457
X9.4724Y-1.5748
X9.4724Y-1.8189
X9.4724Y-1.878
X9.4764Y-0.7283
X9.4764Y-0.8307
X9.4764Y-0.874
X9.4764Y-0.9843
X9.4764Y-1.0472
X9.4764Y-1.2402
X9.4764Y-1.4685
X9.4764Y-2.2165
X9.4764Y-2.3622
X9.4803Y-0.7874
X9.4803Y-1.2008
X9.4803Y-1.3031
X9.4803Y-1.6535
X9.4803Y-1.9606
X9.4803Y-2.0315
X9.4843Y-2.0827
X9.4843Y-2.1378
X9.4843Y-2.2756
X9.4843Y-2.4567
X9.4882Y-1.3543
T2
X7.022Y-0.978
X7.022Y-1.578
X7.122Y-0.978
X7.122Y-1.578
X7.222Y-0.978
X7.222Y-1.578
X7.322Y-0.978
X7.322Y-1.578
X7.322Y-4.7299
X7.322Y-5.3299
X7.422Y-0.978
X7.422Y-1.578
X7.422Y-4.7299
X7.422Y-5.3299
X7.522Y-0.978
X7.522Y-1.578
X7.522Y-4.7299
X7.522Y-5.3299
X7.622Y-0.978
X7.622Y-1.578
X7.622Y-4.7299
X7.622Y-5.3299
X7.722Y-0.978
X7.722Y-1.578
X7.722Y-4.7299
X7.722Y-5.3299
X7.822Y-0.978
X7.822Y-1.578
X7.822Y-4.7299
X7.822Y-5.3299
X7.922Y-0.978
X7.922Y-1.578
X7.922Y-4.7299
X7.922Y-5.3299
X8.022Y-0.978
X8.022Y-1.578
X8.022Y-4.7299
X8.022Y-5.3299
X8.122Y-0.978
X8.122Y-1.578
X8.122Y-4.7299
X8.122Y-5.3299
X8.222Y-0.978
X8.222Y-1.578
X8.222Y-4.7299
X8.222Y-5.3299
X8.322Y-0.978
X8.322Y-1.578
X8.322Y-4.7299
X8.322Y-5.3299
X8.422Y-0.978
X8.422Y-1.578
X8.422Y-4.7299
X8.422Y-5.3299
X8.522Y-0.978
X8.522Y-1.578
X8.522Y-4.7299
X8.522Y-5.3299
X8.622Y-0.978
X8.622Y-1.578
X8.622Y-4.7299
X8.622Y-5.3299
X8.722Y-0.978
X8.722Y-1.578
X8.722Y-4.7299
X8.722Y-5.3299
X8.822Y-0.978
X8.822Y-1.578
X8.822Y-4.7299
X8.822Y-5.3299
X8.922Y-0.978
X8.922Y-1.578
X8.922Y-4.7299
X8.922Y-5.3299
X9.022Y-4.7299
X9.022Y-5.3299
X9.122Y-4.7299
X9.122Y-5.3299
X9.222Y-4.7299
X9.222Y-5.3299
T3
X7.9111Y-2.4278
X7.9111Y-2.5278
X7.9111Y-2.6278
X7.9111Y-2.7278
X7.9134Y-2.9709
X7.9134Y-3.0709
X7.9134Y-3.1709
X7.9134Y-3.2709
X8.2111Y-2.4278
X8.2111Y-2.5278
X8.2111Y-2.6278
X8.2111Y-2.7278
X8.2134Y-2.9709
X8.2134Y-3.0709
X8.2134Y-3.1709
X8.2134Y-3.2709
X8.5806Y-2.8688
X8.5806Y-2.9688
X8.5806Y-3.0688
X8.5806Y-3.1688
X8.5806Y-3.2688
X8.5806Y-3.3688
X9.2806Y-2.9688
X9.2806Y-3.0688
X9.2806Y-3.1688
X9.2806Y-3.2688
T4
X5.5704Y-4.4029
X5.5709Y-4.0344
X5.6688Y-4.4029
X5.6693Y-4.0344
X5.7672Y-4.4029
X5.7677Y-4.0344
X7.3622Y-2.2244
X7.3622Y-2.3228
X7.3622Y-2.4213
X7.3622Y-2.5197
X7.3622Y-2.8009
X7.3622Y-2.8993
X7.3622Y-2.9978
X7.3622Y-3.0962
X7.3622Y-3.4132
X7.3622Y-3.5116
X7.3622Y-3.6101
X7.3622Y-3.7085
X9.333Y-0.7701
X9.333Y-0.8686
X9.333Y-0.967
X9.333Y-1.2471
X9.333Y-1.3456
X9.333Y-1.444
X9.335Y-1.7336
X9.335Y-1.832
X9.335Y-1.9304
X9.337Y-2.228
X9.337Y-2.3264
X9.337Y-2.4249
T5
X7.022Y-0.678
X7.022Y-1.878
X7.122Y-0.678
X7.122Y-1.878
X7.222Y-0.678
X7.222Y-1.878
X7.322Y-0.678
X7.322Y-1.878
X7.322Y-4.4299
X7.322Y-5.6299
X7.422Y-0.678
X7.422Y-1.878
X7.422Y-4.4299
X7.422Y-5.6299
X7.522Y-0.678
X7.522Y-1.878
X7.522Y-4.4299
X7.522Y-5.6299
X7.622Y-0.678
X7.622Y-1.878
X7.622Y-4.4299
X7.622Y-5.6299
X7.722Y-0.678
X7.722Y-1.878
X7.722Y-4.4299
X7.722Y-5.6299
X7.822Y-0.678
X7.822Y-1.878
X7.822Y-4.4299
X7.822Y-5.6299
X7.922Y-0.678
X7.922Y-1.878
X7.922Y-4.4299
X7.922Y-5.6299
X8.022Y-0.678
X8.022Y-1.878
X8.022Y-4.4299
X8.022Y-5.6299
X8.122Y-0.678
X8.122Y-1.878
X8.122Y-4.4299
X8.122Y-5.6299
X8.222Y-0.678
X8.222Y-1.878
X8.222Y-4.4299
X8.222Y-5.6299
X8.322Y-0.678
X8.322Y-1.878
X8.322Y-4.4299
X8.322Y-5.6299
X8.422Y-0.678
X8.422Y-1.878
X8.422Y-4.4299
X8.422Y-5.6299
X8.522Y-0.678
X8.522Y-1.878
X8.522Y-4.4299
X8.522Y-5.6299
X8.622Y-0.678
X8.622Y-1.878
X8.622Y-4.4299
X8.622Y-5.6299
X8.7189Y-4.0157
X8.722Y-0.678
X8.722Y-1.878
X8.722Y-4.4299
X8.722Y-5.6299
X8.8189Y-4.0157
X8.822Y-0.678
X8.822Y-1.878
X8.822Y-4.4299
X8.822Y-5.6299
X8.9189Y-4.0157
X8.922Y-0.678
X8.922Y-1.878
X8.922Y-4.4299
X8.922Y-5.6299
X9.022Y-4.4299
X9.022Y-5.6299
X9.1189Y-4.0157
X9.122Y-4.4299
X9.122Y-5.6299
X9.2189Y-4.0157
X9.222Y-4.4299
X9.222Y-5.6299
X9.3189Y-4.0157
X9.4189Y-4.0157
T6
X6.0957Y-2.149
X6.0957Y-4.1175
X8.0642Y-2.149
X8.0642Y-4.1175
T7
X4.8031Y-0.9055
X4.8031Y-1.189
X4.8425Y-1.748
X4.8425Y-2.0315
X4.9083Y-2.55
X4.9083Y-3.125
X4.9083Y-3.7
X4.9083Y-4.275
X4.9083Y-4.85
X4.9083Y-5.425
X5.1917Y-2.55
X5.1917Y-3.125
X5.1917Y-3.7
X5.1917Y-4.275
X5.1917Y-4.85
X5.1917Y-5.425
X5.315Y-0.9055
X5.315Y-1.189
X5.3307Y-1.8504
X5.6142Y-1.8504
X5.6693Y-2.5984
X5.6693Y-3.0976
X5.6693Y-3.6362
X5.7087Y-4.8819
X5.7244Y-5.4331
X5.7874Y-0.9055
X5.7874Y-1.189
X5.9528Y-2.5984
X5.9528Y-3.0976
X5.9528Y-3.6362
X5.9921Y-4.8819
X6.0079Y-5.4331
X6.4724Y-2.7493
X6.4724Y-3.294
X6.4724Y-3.8386
X6.4724Y-4.3832
X6.4724Y-4.9278
X6.4724Y-5.4724
X6.5276Y-2.2441
X6.7559Y-2.7493
X6.7559Y-3.294
X6.7559Y-3.8386
X6.7559Y-4.3832
X6.7559Y-4.9278
X6.7559Y-5.4724
X6.811Y-2.2441
M30
