%TF.GenerationSoftware,KiCad,Pcbnew,9.0.2*%
%TF.CreationDate,2026-02-12T20:42:31+05:30*%
%TF.ProjectId,RCUP_BASE_PCB_2,52435550-5f42-4415-9345-5f5043425f32,rev?*%
%TF.SameCoordinates,Original*%
%TF.FileFunction,Soldermask,Top*%
%TF.FilePolarity,Negative*%
%FSLAX46Y46*%
G04 Gerber Fmt 4.6, Leading zero omitted, Abs format (unit mm)*
G04 Created by KiCad (PCBNEW 9.0.2) date 2026-02-12 20:42:31*
%MOMM*%
%LPD*%
G01*
G04 APERTURE LIST*
G04 Aperture macros list*
%AMRoundRect*
0 Rectangle with rounded corners*
0 $1 Rounding radius*
0 $2 $3 $4 $5 $6 $7 $8 $9 X,Y pos of 4 corners*
0 Add a 4 corners polygon primitive as box body*
4,1,4,$2,$3,$4,$5,$6,$7,$8,$9,$2,$3,0*
0 Add four circle primitives for the rounded corners*
1,1,$1+$1,$2,$3*
1,1,$1+$1,$4,$5*
1,1,$1+$1,$6,$7*
1,1,$1+$1,$8,$9*
0 Add four rect primitives between the rounded corners*
20,1,$1+$1,$2,$3,$4,$5,0*
20,1,$1+$1,$4,$5,$6,$7,0*
20,1,$1+$1,$6,$7,$8,$9,0*
20,1,$1+$1,$8,$9,$2,$3,0*%
%AMFreePoly0*
4,1,23,0.000000,0.745722,0.065263,0.745722,0.191342,0.711940,0.304381,0.646677,0.396677,0.554381,0.461940,0.441342,0.495722,0.315263,0.495722,0.250000,0.500000,0.250000,0.500000,-0.250000,0.495722,-0.250000,0.495722,-0.315263,0.461940,-0.441342,0.396677,-0.554381,0.304381,-0.646677,0.191342,-0.711940,0.065263,-0.745722,0.000000,-0.745722,0.000000,-0.750000,-0.500000,-0.750000,
-0.500000,0.750000,0.000000,0.750000,0.000000,0.745722,0.000000,0.745722,$1*%
%AMFreePoly1*
4,1,23,0.500000,-0.750000,0.000000,-0.750000,0.000000,-0.745722,-0.065263,-0.745722,-0.191342,-0.711940,-0.304381,-0.646677,-0.396677,-0.554381,-0.461940,-0.441342,-0.495722,-0.315263,-0.495722,-0.250000,-0.500000,-0.250000,-0.500000,0.250000,-0.495722,0.250000,-0.495722,0.315263,-0.461940,0.441342,-0.396677,0.554381,-0.304381,0.646677,-0.191342,0.711940,-0.065263,0.745722,0.000000,0.745722,
0.000000,0.750000,0.500000,0.750000,0.500000,-0.750000,0.500000,-0.750000,$1*%
G04 Aperture macros list end*
%ADD10FreePoly0,90.000000*%
%ADD11FreePoly1,90.000000*%
%ADD12C,4.700000*%
%ADD13C,7.500000*%
%ADD14RoundRect,0.237500X0.237500X-0.287500X0.237500X0.287500X-0.237500X0.287500X-0.237500X-0.287500X0*%
%ADD15RoundRect,1.500000X-1.500000X-1.500000X1.500000X-1.500000X1.500000X1.500000X-1.500000X1.500000X0*%
%ADD16C,6.000000*%
%ADD17RoundRect,0.250000X-0.725000X0.600000X-0.725000X-0.600000X0.725000X-0.600000X0.725000X0.600000X0*%
%ADD18O,1.950000X1.700000*%
%ADD19RoundRect,1.500000X1.500000X-1.500000X1.500000X1.500000X-1.500000X1.500000X-1.500000X-1.500000X0*%
%ADD20RoundRect,0.237500X-0.237500X0.250000X-0.237500X-0.250000X0.237500X-0.250000X0.237500X0.250000X0*%
%ADD21C,1.500000*%
%ADD22R,2.400000X1.600000*%
%ADD23O,2.400000X1.600000*%
%ADD24R,1.700000X1.700000*%
%ADD25C,1.700000*%
%ADD26RoundRect,0.250000X-0.600000X-0.725000X0.600000X-0.725000X0.600000X0.725000X-0.600000X0.725000X0*%
%ADD27O,1.700000X1.950000*%
%ADD28RoundRect,0.250000X0.725000X-0.600000X0.725000X0.600000X-0.725000X0.600000X-0.725000X-0.600000X0*%
%ADD29RoundRect,0.237500X0.250000X0.237500X-0.250000X0.237500X-0.250000X-0.237500X0.250000X-0.237500X0*%
%ADD30RoundRect,1.500000X1.500000X1.500000X-1.500000X1.500000X-1.500000X-1.500000X1.500000X-1.500000X0*%
%ADD31C,1.524000*%
%ADD32R,1.549400X4.241800*%
%ADD33C,1.200000*%
%ADD34RoundRect,0.250000X-0.600000X-0.750000X0.600000X-0.750000X0.600000X0.750000X-0.600000X0.750000X0*%
%ADD35O,1.700000X2.000000*%
%ADD36RoundRect,0.100500X0.301500X-0.616500X0.301500X0.616500X-0.301500X0.616500X-0.301500X-0.616500X0*%
%ADD37RoundRect,0.237500X-0.237500X0.300000X-0.237500X-0.300000X0.237500X-0.300000X0.237500X0.300000X0*%
%ADD38RoundRect,0.237500X-0.300000X-0.237500X0.300000X-0.237500X0.300000X0.237500X-0.300000X0.237500X0*%
%ADD39FreePoly1,180.000000*%
%ADD40FreePoly0,180.000000*%
%ADD41RoundRect,0.237500X0.237500X-0.250000X0.237500X0.250000X-0.237500X0.250000X-0.237500X-0.250000X0*%
%ADD42RoundRect,1.500000X-1.500000X1.500000X-1.500000X-1.500000X1.500000X-1.500000X1.500000X1.500000X0*%
%ADD43RoundRect,0.250000X-0.325000X-0.450000X0.325000X-0.450000X0.325000X0.450000X-0.325000X0.450000X0*%
%ADD44RoundRect,0.237500X-0.250000X-0.237500X0.250000X-0.237500X0.250000X0.237500X-0.250000X0.237500X0*%
%ADD45O,1.700000X1.700000*%
G04 APERTURE END LIST*
%TO.C,JP4*%
G36*
X233580000Y-35860000D02*
G01*
X235080000Y-35860000D01*
X235080000Y-35560000D01*
X233580000Y-35560000D01*
X233580000Y-35860000D01*
G37*
%TO.C,JP3*%
G36*
X181250000Y-28500000D02*
G01*
X182750000Y-28500000D01*
X182750000Y-28200000D01*
X181250000Y-28200000D01*
X181250000Y-28500000D01*
G37*
%TO.C,JP2*%
G36*
X197200000Y-109450000D02*
G01*
X196900000Y-109450000D01*
X196900000Y-107950000D01*
X197200000Y-107950000D01*
X197200000Y-109450000D01*
G37*
%TO.C,JP1*%
G36*
X236950000Y-129950000D02*
G01*
X238450000Y-129950000D01*
X238450000Y-129650000D01*
X236950000Y-129650000D01*
X236950000Y-129950000D01*
G37*
%TD*%
D10*
%TO.C,JP4*%
X234330000Y-35060000D03*
D11*
X234330000Y-36360000D03*
%TD*%
D12*
%TO.C,H7*%
X154830000Y-54584125D03*
D13*
X154830000Y-54584125D03*
%TD*%
D14*
%TO.C,STMFuse1*%
X237700000Y-126175000D03*
X237700000Y-124425000D03*
%TD*%
D15*
%TO.C,J27*%
X164400000Y-69833333D03*
D16*
X171600000Y-69833333D03*
%TD*%
D17*
%TO.C,MDD3*%
X226225000Y-54500000D03*
D18*
X226225000Y-57000000D03*
X226225000Y-59500000D03*
%TD*%
D15*
%TO.C,J19*%
X164400000Y-83666667D03*
D16*
X171600000Y-83666667D03*
%TD*%
D19*
%TO.C,J11*%
X147000000Y-30200000D03*
D16*
X147000000Y-23000000D03*
%TD*%
D20*
%TO.C,R18*%
X212853900Y-79778000D03*
X212853900Y-81603000D03*
%TD*%
D15*
%TO.C,J15*%
X124600000Y-122900000D03*
D16*
X131800000Y-122900000D03*
%TD*%
D15*
%TO.C,J23*%
X145000000Y-124000000D03*
D16*
X152200000Y-124000000D03*
%TD*%
D21*
%TO.C,U3*%
X217947200Y-72866300D03*
X217947200Y-75406300D03*
X217947200Y-77946300D03*
X217947200Y-80486300D03*
X217947200Y-83026300D03*
X217947200Y-85566300D03*
X235727200Y-75406300D03*
X235727200Y-77946300D03*
X235727200Y-80486300D03*
X235727200Y-83026300D03*
%TD*%
D17*
%TO.C,MDD4*%
X236925000Y-54500000D03*
D18*
X236925000Y-57000000D03*
X236925000Y-59500000D03*
%TD*%
D15*
%TO.C,J21*%
X164400000Y-139000000D03*
D16*
X171600000Y-139000000D03*
%TD*%
D15*
%TO.C,J26*%
X164400000Y-111333333D03*
D16*
X171600000Y-111333333D03*
%TD*%
D15*
%TO.C,J29*%
X144000000Y-66000000D03*
D16*
X151200000Y-66000000D03*
%TD*%
D12*
%TO.C,H8*%
X204830000Y-54584125D03*
D13*
X204830000Y-54584125D03*
%TD*%
D22*
%TO.C,OC3*%
X208425000Y-96000000D03*
D23*
X208425000Y-93460000D03*
X208425000Y-90920000D03*
X208425000Y-88380000D03*
X200805000Y-88380000D03*
X200805000Y-90920000D03*
X200805000Y-93460000D03*
X200805000Y-96000000D03*
%TD*%
D15*
%TO.C,J28*%
X164400000Y-125166667D03*
D16*
X171600000Y-125166667D03*
%TD*%
D24*
%TO.C,J4*%
X225160000Y-47620000D03*
D25*
X222620000Y-47620000D03*
X220080000Y-47620000D03*
X217540000Y-47620000D03*
X215000000Y-47620000D03*
X212460000Y-47620000D03*
X209920000Y-47620000D03*
X207380000Y-47620000D03*
X204840000Y-47620000D03*
X202300000Y-47620000D03*
X199760000Y-47620000D03*
X197220000Y-47620000D03*
X194680000Y-47620000D03*
X192140000Y-47620000D03*
X189600000Y-47620000D03*
X187060000Y-47620000D03*
X184520000Y-47620000D03*
X181980000Y-47620000D03*
X179440000Y-47620000D03*
X176900000Y-47620000D03*
%TD*%
D26*
%TO.C,J30*%
X141487201Y-111834450D03*
D27*
X143987201Y-111834450D03*
X146487201Y-111834450D03*
%TD*%
D11*
%TO.C,JP3*%
X182000000Y-29000000D03*
D10*
X182000000Y-27700000D03*
%TD*%
D28*
%TO.C,Encoder1*%
X188000000Y-85147505D03*
D18*
X188000000Y-82647505D03*
X188000000Y-80147505D03*
X188000000Y-77647505D03*
%TD*%
D12*
%TO.C,H6*%
X154830000Y-104584125D03*
D13*
X154830000Y-104584125D03*
%TD*%
D29*
%TO.C,R9*%
X217752500Y-106940000D03*
X215927500Y-106940000D03*
%TD*%
D19*
%TO.C,J10*%
X135000000Y-30200000D03*
D16*
X135000000Y-23000000D03*
%TD*%
D15*
%TO.C,J20*%
X145400000Y-138000000D03*
D16*
X152600000Y-138000000D03*
%TD*%
D30*
%TO.C,J24*%
X142600000Y-47000000D03*
D16*
X135400000Y-47000000D03*
%TD*%
D28*
%TO.C,Encoder2*%
X188000000Y-100700000D03*
D18*
X188000000Y-98200000D03*
X188000000Y-95700000D03*
X188000000Y-93200000D03*
%TD*%
D31*
%TO.C,MotorController2*%
X225160000Y-40000000D03*
X222620000Y-40000000D03*
X220080000Y-40000000D03*
X217540000Y-40000000D03*
X215000000Y-40000000D03*
X212460000Y-40000000D03*
X209920000Y-40000000D03*
X207380000Y-40000000D03*
X204840000Y-40000000D03*
X202300000Y-40000000D03*
X199760000Y-40000000D03*
X197220000Y-40000000D03*
X194680000Y-40000000D03*
X192140000Y-40000000D03*
X189600000Y-40000000D03*
X187060000Y-40000000D03*
X184520000Y-40000000D03*
X181980000Y-40000000D03*
X179440000Y-40000000D03*
X176900000Y-40000000D03*
X225160000Y-24760000D03*
X222620000Y-24760000D03*
X220080000Y-24760000D03*
X217540000Y-24760000D03*
X215000000Y-24760000D03*
X212460000Y-24760000D03*
X209920000Y-24760000D03*
X207380000Y-24760000D03*
X204840000Y-24760000D03*
X202300000Y-24760000D03*
X199760000Y-24760000D03*
X197220000Y-24760000D03*
X194680000Y-24760000D03*
X192140000Y-24760000D03*
X189600000Y-24760000D03*
X187060000Y-24760000D03*
X184520000Y-24760000D03*
X181980000Y-24760000D03*
X179440000Y-24760000D03*
X176900000Y-24760000D03*
%TD*%
D12*
%TO.C,H5*%
X204830000Y-104584125D03*
D13*
X204830000Y-104584125D03*
%TD*%
D30*
%TO.C,J8*%
X173000000Y-57000000D03*
D16*
X165800000Y-57000000D03*
%TD*%
D32*
%TO.C,L1*%
X221245400Y-95750000D03*
X225004600Y-95750000D03*
%TD*%
D15*
%TO.C,J14*%
X124670000Y-108585000D03*
D16*
X131870000Y-108585000D03*
%TD*%
D33*
%TO.C,J5*%
X183500000Y-56000000D03*
D34*
X185100000Y-54000000D03*
D35*
X187600000Y-54000000D03*
%TD*%
D29*
%TO.C,R5*%
X181225000Y-61917000D03*
X179400000Y-61917000D03*
%TD*%
D22*
%TO.C,OC1*%
X208000000Y-69285900D03*
D23*
X208000000Y-66745900D03*
X208000000Y-64205900D03*
X208000000Y-61665900D03*
X200380000Y-61665900D03*
X200380000Y-64205900D03*
X200380000Y-66745900D03*
X200380000Y-69285900D03*
%TD*%
D17*
%TO.C,MDD1*%
X215525000Y-54500000D03*
D18*
X215525000Y-57000000D03*
X215525000Y-59500000D03*
%TD*%
D36*
%TO.C,Q1*%
X195050000Y-64860000D03*
X196950000Y-64860000D03*
X196000000Y-62740000D03*
%TD*%
D24*
%TO.C,J3*%
X225160000Y-17140000D03*
D25*
X222620000Y-17140000D03*
X220080000Y-17140000D03*
X217540000Y-17140000D03*
X215000000Y-17140000D03*
X212460000Y-17140000D03*
X209920000Y-17140000D03*
X207380000Y-17140000D03*
X204840000Y-17140000D03*
X202300000Y-17140000D03*
X199760000Y-17140000D03*
X197220000Y-17140000D03*
X194680000Y-17140000D03*
X192140000Y-17140000D03*
X189600000Y-17140000D03*
X187060000Y-17140000D03*
X184520000Y-17140000D03*
X181980000Y-17140000D03*
X179440000Y-17140000D03*
X176900000Y-17140000D03*
%TD*%
D28*
%TO.C,Encoder3*%
X188000000Y-70504595D03*
D18*
X188000000Y-68004595D03*
X188000000Y-65504595D03*
X188000000Y-63004595D03*
%TD*%
D15*
%TO.C,J25*%
X124600000Y-137505000D03*
D16*
X131800000Y-137505000D03*
%TD*%
D37*
%TO.C,C1*%
X210600000Y-80200000D03*
X210600000Y-81925000D03*
%TD*%
D38*
%TO.C,C7*%
X196475000Y-95400000D03*
X198200000Y-95400000D03*
%TD*%
D22*
%TO.C,OC2*%
X200380000Y-75250000D03*
D23*
X200380000Y-77790000D03*
X200380000Y-80330000D03*
X200380000Y-82870000D03*
X208000000Y-82870000D03*
X208000000Y-80330000D03*
X208000000Y-77790000D03*
X208000000Y-75250000D03*
%TD*%
D39*
%TO.C,JP2*%
X197700000Y-108700000D03*
D40*
X196400000Y-108700000D03*
%TD*%
D41*
%TO.C,R8*%
X212168100Y-68737000D03*
X212168100Y-66912000D03*
%TD*%
D42*
%TO.C,J18*%
X122000000Y-23000000D03*
D16*
X122000000Y-30200000D03*
%TD*%
D41*
%TO.C,R4*%
X198200000Y-92912500D03*
X198200000Y-91087500D03*
%TD*%
D43*
%TO.C,D2*%
X181975000Y-111600000D03*
X184025000Y-111600000D03*
%TD*%
D15*
%TO.C,J13*%
X124670000Y-79375000D03*
D16*
X131870000Y-79375000D03*
%TD*%
D24*
%TO.C,J2*%
X236420000Y-142720000D03*
D25*
X233880000Y-142720000D03*
X231340000Y-142720000D03*
X228800000Y-142720000D03*
X226260000Y-142720000D03*
X223720000Y-142720000D03*
X221180000Y-142720000D03*
X218640000Y-142720000D03*
X216100000Y-142720000D03*
X213560000Y-142720000D03*
X211020000Y-142720000D03*
X208480000Y-142720000D03*
X205940000Y-142720000D03*
X203400000Y-142720000D03*
X200860000Y-142720000D03*
X198320000Y-142720000D03*
X195780000Y-142720000D03*
X193240000Y-142720000D03*
X190700000Y-142720000D03*
X188160000Y-142720000D03*
%TD*%
D44*
%TO.C,R6*%
X179400000Y-59400000D03*
X181225000Y-59400000D03*
%TD*%
D31*
%TO.C,MotorController1*%
X236420000Y-135100000D03*
X233880000Y-135100000D03*
X231340000Y-135100000D03*
X228800000Y-135100000D03*
X226260000Y-135100000D03*
X223720000Y-135100000D03*
X221180000Y-135100000D03*
X218640000Y-135100000D03*
X216100000Y-135100000D03*
X213560000Y-135100000D03*
X211020000Y-135100000D03*
X208480000Y-135100000D03*
X205940000Y-135100000D03*
X203400000Y-135100000D03*
X200860000Y-135100000D03*
X198320000Y-135100000D03*
X195780000Y-135100000D03*
X193240000Y-135100000D03*
X190700000Y-135100000D03*
X188160000Y-135100000D03*
X236420000Y-119860000D03*
X233880000Y-119860000D03*
X231340000Y-119860000D03*
X228800000Y-119860000D03*
X226260000Y-119860000D03*
X223720000Y-119860000D03*
X221180000Y-119860000D03*
X218640000Y-119860000D03*
X216100000Y-119860000D03*
X213560000Y-119860000D03*
X211020000Y-119860000D03*
X208480000Y-119860000D03*
X205940000Y-119860000D03*
X203400000Y-119860000D03*
X200860000Y-119860000D03*
X198320000Y-119860000D03*
X195780000Y-119860000D03*
X193240000Y-119860000D03*
X190700000Y-119860000D03*
X188160000Y-119860000D03*
%TD*%
D43*
%TO.C,D1*%
X180875000Y-104900000D03*
X182925000Y-104900000D03*
%TD*%
D21*
%TO.C,U2*%
X221460000Y-102000000D03*
X224000000Y-102000000D03*
X226540000Y-102000000D03*
X234160000Y-102000000D03*
X236700000Y-102000000D03*
X239240000Y-102000000D03*
%TD*%
D41*
%TO.C,R3*%
X212600000Y-95312500D03*
X212600000Y-93487500D03*
%TD*%
D15*
%TO.C,J16*%
X144000000Y-92358564D03*
D16*
X151200000Y-92358564D03*
%TD*%
D15*
%TO.C,J7*%
X124670000Y-64770000D03*
D16*
X131870000Y-64770000D03*
%TD*%
D19*
%TO.C,J9*%
X123000000Y-51600000D03*
D16*
X123000000Y-44400000D03*
%TD*%
D11*
%TO.C,JP1*%
X237700000Y-130450000D03*
D10*
X237700000Y-129150000D03*
%TD*%
D45*
%TO.C,REF\u002A\u002A*%
X218490000Y-70640000D03*
D25*
X221030000Y-70640000D03*
X223570000Y-70640000D03*
X226110000Y-70640000D03*
X228650000Y-70640000D03*
X231190000Y-70640000D03*
X233730000Y-70640000D03*
X236270000Y-70640000D03*
%TD*%
D15*
%TO.C,J17*%
X144000000Y-78679282D03*
D16*
X151200000Y-78679282D03*
%TD*%
D26*
%TO.C,MDD2*%
X233200000Y-17600000D03*
D27*
X235700000Y-17600000D03*
X238200000Y-17600000D03*
%TD*%
D24*
%TO.C,J1*%
X236420000Y-112240000D03*
D25*
X233880000Y-112240000D03*
X231340000Y-112240000D03*
X228800000Y-112240000D03*
X226260000Y-112240000D03*
X223720000Y-112240000D03*
X221180000Y-112240000D03*
X218640000Y-112240000D03*
X216100000Y-112240000D03*
X213560000Y-112240000D03*
X211020000Y-112240000D03*
X208480000Y-112240000D03*
X205940000Y-112240000D03*
X203400000Y-112240000D03*
X200860000Y-112240000D03*
X198320000Y-112240000D03*
X195780000Y-112240000D03*
X193240000Y-112240000D03*
X190700000Y-112240000D03*
X188160000Y-112240000D03*
%TD*%
D15*
%TO.C,J6*%
X124670000Y-93980000D03*
D16*
X131870000Y-93980000D03*
%TD*%
D44*
%TO.C,R1*%
X159337500Y-77500000D03*
X161162500Y-77500000D03*
%TD*%
D26*
%TO.C,J31*%
X141500000Y-102475000D03*
D27*
X144000000Y-102475000D03*
X146500000Y-102475000D03*
%TD*%
D15*
%TO.C,J22*%
X164400000Y-97500000D03*
D16*
X171600000Y-97500000D03*
%TD*%
D41*
%TO.C,R17*%
X212853900Y-76421400D03*
X212853900Y-74596400D03*
%TD*%
M02*
