M48
; DRILL file {KiCad 9.0.2} date 2025-12-04T15:10:23+0530
; FORMAT={-:-/ absolute / inch / decimal}
; #@! TF.CreationDate,2025-12-04T15:10:23+05:30
; #@! TF.GenerationSoftware,Kicad,Pcbnew,9.0.2
; #@! TF.FileFunction,Plated,1,2,PTH
FMAT,2
INCH
; #@! TA.AperFunction,Plated,PTH,ViaDrill
T1C0.0118
; #@! TA.AperFunction,Plated,PTH,ComponentDrill
T2C0.0236
; #@! TA.AperFunction,Plated,PTH,ComponentDrill
T3C0.0300
; #@! TA.AperFunction,Plated,PTH,ViaDrill
T4C0.0315
; #@! TA.AperFunction,Plated,PTH,ComponentDrill
T5C0.0315
; #@! TA.AperFunction,Plated,PTH,ComponentDrill
T6C0.0374
; #@! TA.AperFunction,Plated,PTH,ComponentDrill
T7C0.0394
; #@! TA.AperFunction,Plated,PTH,ComponentDrill
T8C0.1063
; #@! TA.AperFunction,Plated,PTH,ComponentDrill
T9C0.1693
; #@! TA.AperFunction,Plated,PTH,ComponentDrill
T10C0.1772
%
G90
G05
T1
X6.2731Y-3.0512
X6.8831Y-0.6039
X6.9264Y-0.5831
X6.9697Y-0.6039
X7.013Y-0.5831
X7.0563Y-0.6039
X7.0996Y-0.5831
X7.1429Y-0.6039
X7.1862Y-0.5831
X7.2146Y-3.4547
X7.2205Y-3.8071
X7.2295Y-0.6039
X7.2402Y-2.7638
X7.2402Y-2.8346
X7.2451Y-4.3937
X7.25Y-4.6256
X7.2598Y-4.122
X7.2638Y-1.6437
X7.2744Y-0.5709
X7.2835Y-3.8543
X7.3031Y-1.0512
X7.3031Y-3.374
X7.3071Y-2.6969
X7.311Y-4.0866
X7.315Y-2.7441
X7.3177Y-0.5917
X7.3189Y-3.9685
X7.3268Y-3.2913
X7.3386Y-4.9012
X7.3465Y-3.3465
X7.3504Y-3.2087
X7.3543Y-2.7244
X7.361Y-0.5709
X7.374Y-1.1024
X7.374Y-3.2795
X7.378Y-2.6693
X7.3819Y-1.1654
X7.3898Y-3.8976
X7.4016Y-3.9449
X7.4043Y-0.5917
X7.4173Y-3.1929
X7.4252Y-2.7559
X7.4291Y-1.1654
X7.4331Y-1.0472
X7.4331Y-4.1811
X7.437Y-2.5669
X7.4441Y-1.4976
X7.4469Y-5.1866
X7.4476Y-0.5709
X7.4508Y-2.0276
X7.4567Y-2.3898
X7.4606Y-2.4803
X7.4606Y-3.0709
X7.4646Y-3.126
X7.4705Y-1.4173
X7.4738Y-1.3254
X7.4798Y-2.7455
X7.4803Y-2.5236
X7.4882Y-2.3661
X7.4909Y-0.5917
X7.5Y-2.9646
X7.5039Y-4.2323
X7.5118Y-3.8819
X7.5276Y-3.8228
X7.5315Y-1.248
X7.5343Y-0.5709
X7.5354Y-4.5764
X7.5394Y-2.7756
X7.5512Y-4.1142
X7.5551Y-5.4622
X7.5669Y-1.2559
X7.5689Y-1.1909
X7.5776Y-0.5917
X7.5787Y-2.4311
X7.5821Y-2.1392
X7.5866Y-2.9055
X7.5945Y-3.5039
X7.6209Y-0.5709
X7.622Y-3.6102
X7.6299Y-4.1378
X7.6432Y-1.3406
X7.6432Y-1.378
X7.6476Y-4.0748
X7.6496Y-3.7992
X7.6535Y-2.5677
X7.6535Y-5.472
X7.6543Y-1.2606
X7.6575Y-1.9783
X7.6634Y-4.5469
X7.6642Y-0.5917
X7.6673Y-2.5394
X7.6693Y-3.4055
X7.685Y-3.8858
X7.6882Y-2.4205
X7.6929Y-3.7087
X7.7051Y-2.1634
X7.7067Y-2.0276
X7.7126Y-1.3228
X7.7126Y-4.2165
X7.7126Y-4.9799
X7.7165Y-3.811
X7.7323Y-4.2795
X7.7362Y-3.3307
X7.748Y-4.0079
X7.752Y-4.8323
X7.7575Y-1.1024
X7.7618Y-4.537
X7.7638Y-2.7323
X7.7677Y-3.1614
X7.7717Y-2.9291
X7.7717Y-5.4622
X7.7756Y-1.4173
X7.7756Y-3.063
X7.7756Y-4.2126
X7.7795Y-2.8268
X7.7874Y-1.2402
X7.7913Y-2.9764
X7.7953Y-3.8268
X7.7992Y-3.3465
X7.7992Y-3.4528
X7.8031Y-3.1969
X7.8071Y-3.2992
X7.815Y-4.1693
X7.8189Y-3.1299
X7.822Y-2.0961
X7.8228Y-3.0433
X7.8248Y-1.3878
X7.8248Y-1.4429
X7.8307Y-1.3425
X7.8307Y-3.5591
X7.8425Y-4.3622
X7.8504Y-4.2205
X7.8504Y-4.537
X7.8504Y-5.4622
X7.852Y-1.1742
X7.8543Y-3.8622
X7.8626Y-1.0358
X7.8701Y-1.252
X7.874Y-1.5256
X7.878Y-4.1772
X7.8819Y-1.2874
X7.8819Y-4.0157
X7.8839Y-3.4154
X7.8898Y-4.0709
X7.8937Y-3.5394
X7.9026Y-1.3799
X7.9232Y-2.8346
X7.9291Y-2.3661
X7.9291Y-3.874
X7.9331Y-1.5118
X7.937Y-2.0315
X7.9409Y-2.2913
X7.9587Y-5.4622
X7.9626Y-1.1811
X7.9626Y-2.8642
X7.9685Y-4.5469
X7.9736Y-0.6323
X7.9843Y-2.3543
X7.9843Y-3.4488
X7.9882Y-2.4331
X7.9882Y-2.5866
X7.9882Y-2.6614
X7.9921Y-0.9252
X7.9921Y-1.3386
X7.9921Y-1.3799
X7.9921Y-1.4173
X7.9961Y-2.4882
X7.9961Y-3.3858
X8.0039Y-2.6102
X8.0118Y-1.9685
X8.0197Y-2.5236
X8.0217Y-1.2894
X8.0512Y-1.4606
X8.0571Y-4.537
X8.0571Y-5.4622
X8.0575Y-1.1742
X8.0591Y-3.5433
X8.063Y-3.8425
X8.0709Y-1.7224
X8.0807Y-0.7972
X8.0866Y-3.1398
X8.0866Y-4.8815
X8.0901Y-3.2453
X8.1024Y-3.8228
X8.1063Y-3.8661
X8.1102Y-1.1319
X8.1201Y-1.2697
X8.1299Y-1.063
X8.1614Y-3.6024
X8.1654Y-4.5567
X8.1693Y-0.8169
X8.178Y-1.3835
X8.1791Y-3.75
X8.1878Y-1.3448
X8.189Y-1.6437
X8.1965Y-1.4961
X8.1976Y-1.4154
X8.2008Y-4.2362
X8.2126Y-3.5551
X8.2283Y-2.0157
X8.2315Y-1.2795
X8.2323Y-4.0157
X8.2362Y-4.2008
X8.2441Y-4.1102
X8.2441Y-4.5469
X8.248Y-1.2008
X8.2638Y-5.4622
X8.2677Y-1.1319
X8.2677Y-1.4862
X8.2677Y-2.0669
X8.2717Y-1.378
X8.2731Y-1.3406
X8.2776Y-0.8268
X8.2835Y-4.0591
X8.2874Y-2.0276
X8.2913Y-4.1614
X8.2913Y-4.2126
X8.2972Y-3.2874
X8.3071Y-1.1417
X8.3071Y-1.2697
X8.3071Y-1.4764
X8.315Y-3.0551
X8.3189Y-2.1142
X8.3234Y-1.3714
X8.3265Y-1.2992
X8.3268Y-1.9843
X8.3307Y-2.9724
X8.3366Y-2.8051
X8.3465Y-2.4705
X8.3524Y-4.5469
X8.3524Y-5.4622
X8.3531Y-2.6343
X8.3723Y-1.2505
X8.376Y-2.9331
X8.3776Y-1.5059
X8.3801Y-3.0087
X8.3801Y-3.2127
X8.3858Y-0.8268
X8.3917Y-3.937
X8.4016Y-2.0591
X8.4252Y-1.2205
X8.4252Y-3.5335
X8.437Y-4.7874
X8.4409Y-4.5469
X8.4409Y-5.4622
X8.4449Y-2.1142
X8.4547Y-4.2126
X8.4843Y-3.2283
X8.4902Y-5.098
X8.4941Y-0.8563
X8.4985Y-1.378
X8.5039Y-2.9429
X8.5138Y-1.5059
X8.5197Y-2.063
X8.5276Y-4.3622
X8.5335Y-1.0728
X8.5354Y-2.1181
X8.5468Y-4.2126
X8.5492Y-5.4622
X8.5531Y-0.8268
X8.5591Y-4.5665
X8.563Y-3.6909
X8.563Y-4.6457
X8.5654Y-1.4701
X8.5925Y-1.378
X8.5925Y-3.4744
X8.5945Y-3.937
X8.5984Y-5.0094
X8.6024Y-2.0571
X8.6063Y-2.1142
X8.6122Y-2.7461
X8.6186Y-4.2126
X8.622Y-1.2106
X8.622Y-1.9567
X8.6476Y-4.5567
X8.6476Y-5.4622
X8.6575Y-5.2457
X8.6713Y-0.8366
X8.6713Y-1.5315
X8.6713Y-1.7421
X8.6811Y-3.3366
X8.6909Y-4.0945
X8.7104Y-3.7697
X8.7165Y-4.8815
X8.75Y-3.4941
X8.7559Y-5.4622
X8.7566Y-3.0408
X8.7638Y-1.9567
X8.7638Y-2.1142
X8.7657Y-4.5567
X8.7677Y-1.6654
X8.7795Y-0.8366
X8.7874Y-1.7362
X8.7953Y-2.1024
X8.8031Y-1.7913
X8.8189Y-1.2205
X8.8189Y-2.7854
X8.8189Y-4.178
X8.8307Y-1.7047
X8.8346Y-3.1764
X8.8346Y-4.8323
X8.8465Y-1.6299
X8.8465Y-1.9567
X8.8504Y-2.2559
X8.8543Y-2.4291
X8.8543Y-4.5567
X8.8543Y-5.4622
X8.8567Y-3.3508
X8.8583Y-3.4744
X8.8583Y-3.5335
X8.8584Y-3.7697
X8.8661Y-2.5433
X8.8681Y-0.8169
X8.8701Y-2.1929
X8.874Y-1.7953
X8.8819Y-2.3031
X8.8858Y-2.378
X8.8882Y-3.2677
X8.9075Y-4.2126
X8.9173Y-1.9567
X8.9173Y-2.2323
X8.9173Y-2.3386
X8.9272Y-3.0413
X8.9331Y-4.852
X8.937Y-2.1181
X8.9409Y-2.5512
X8.9528Y-4.5567
X8.9626Y-5.1669
X8.9724Y-0.7992
X8.9724Y-5.0488
X8.9724Y-5.4622
X8.9764Y-0.8543
X8.9803Y-1.9567
X8.9921Y-0.9213
X8.9961Y-2.1299
X9.0039Y-0.6969
X9.0039Y-2.5315
X9.0079Y-1.6339
X9.0118Y-1.8071
X9.0157Y-0.7756
X9.0157Y-1.8425
X9.0192Y-3.357
X9.0197Y-1.7047
X9.0197Y-1.8976
X9.0216Y-3.0259
X9.0217Y-4.9307
X9.0236Y-1.5433
X9.0256Y-3.4646
X9.0256Y-3.5236
X9.0315Y-0.8583
X9.0315Y-2.2205
X9.0315Y-2.563
X9.0394Y-0.685
X9.0394Y-0.8976
X9.0394Y-1.5984
X9.0472Y-1.9528
X9.0512Y-0.7992
X9.0512Y-4.5567
X9.0551Y-0.7362
X9.0566Y-3.357
X9.061Y-5.472
X9.0709Y-0.8425
X9.0795Y-4.5389
X9.0827Y-2.2559
X9.0866Y-2.5394
X9.0945Y-1.8622
X9.1024Y-1.7205
X9.1063Y-2.315
X9.1185Y-3.4283
X9.1299Y-1.2402
X9.1339Y-0.7913
X9.1339Y-1.6457
X9.1339Y-1.8228
X9.1339Y-3.1299
X9.1339Y-4.5115
X9.1378Y-1.378
X9.1496Y-1.874
X9.1496Y-4.5567
X9.1535Y-2.5551
X9.1575Y-0.752
X9.1575Y-1.6929
X9.1614Y-2.3425
X9.1654Y-1.9134
X9.1693Y-0.7047
X9.185Y-3.6339
X9.185Y-3.9409
X9.1929Y-4.0866
X9.1949Y-4.178
X9.2008Y-1.7992
X9.2087Y-1.8858
X9.2087Y-4.2717
X9.2122Y-1.4051
X9.2126Y-1.7362
X9.2169Y-3.4618
X9.2205Y-4.7992
X9.2303Y-3.748
X9.2323Y-2.5492
X9.2362Y-2.5039
X9.2402Y-1.5709
X9.2441Y-0.7205
X9.248Y-1.6496
X9.248Y-4.5665
X9.252Y-1.4843
X9.252Y-3.4941
X9.2559Y-1.7677
X9.2598Y-1.2677
X9.2638Y-0.7756
X9.2756Y-4.1693
X9.2913Y-2.5118
X9.2992Y-2.563
X9.311Y-1.6063
X9.315Y-1.6654
X9.315Y-4.0827
X9.315Y-4.311
X9.3189Y-2.1693
X9.3386Y-1.5197
X9.3406Y-2.7756
X9.3421Y-3.6846
X9.3425Y-0.5866
X9.3504Y-2.9035
X9.3504Y-3.5827
X9.3602Y-3.3661
X9.3661Y-4.2559
X9.378Y-0.6024
X9.378Y-1.6142
X9.3819Y-2.5079
X9.3819Y-2.5591
X9.3824Y-4.178
X9.3858Y-1.5591
X9.3858Y-2.1693
X9.3898Y-3.0709
X9.4134Y-0.5906
X9.4173Y-0.6339
X9.4331Y-2.4685
X9.4488Y-3.0118
X9.4528Y-2.5512
X9.4567Y-0.6457
X9.4606Y-0.685
X9.4646Y-4.8028
X9.4685Y-0.6102
X9.4685Y-1.7283
X9.4724Y-1.0945
X9.4724Y-1.1457
X9.4724Y-1.5748
X9.4764Y-0.7283
X9.4764Y-0.9843
X9.4764Y-1.0472
X9.4764Y-1.2402
X9.4764Y-1.4685
X9.4803Y-1.2008
X9.4803Y-1.6535
X9.4803Y-1.9606
X9.4803Y-2.0315
X9.4843Y-2.0827
X9.4843Y-2.1378
X9.4843Y-2.4567
T3
X7.022Y-0.978
X7.022Y-1.578
X7.122Y-0.978
X7.122Y-1.578
X7.222Y-0.978
X7.222Y-1.578
X7.322Y-0.978
X7.322Y-1.578
X7.4079Y-4.7189
X7.4079Y-5.3189
X7.422Y-0.978
X7.422Y-1.578
X7.5079Y-4.7189
X7.5079Y-5.3189
X7.522Y-0.978
X7.522Y-1.578
X7.6079Y-4.7189
X7.6079Y-5.3189
X7.622Y-0.978
X7.622Y-1.578
X7.7079Y-4.7189
X7.7079Y-5.3189
X7.722Y-0.978
X7.722Y-1.578
X7.8079Y-4.7189
X7.8079Y-5.3189
X7.822Y-0.978
X7.822Y-1.578
X7.9079Y-4.7189
X7.9079Y-5.3189
X7.922Y-0.978
X7.922Y-1.578
X8.0079Y-4.7189
X8.0079Y-5.3189
X8.022Y-0.978
X8.022Y-1.578
X8.1079Y-4.7189
X8.1079Y-5.3189
X8.122Y-0.978
X8.122Y-1.578
X8.2079Y-4.7189
X8.2079Y-5.3189
X8.222Y-0.978
X8.222Y-1.578
X8.3079Y-4.7189
X8.3079Y-5.3189
X8.322Y-0.978
X8.322Y-1.578
X8.4079Y-4.7189
X8.4079Y-5.3189
X8.422Y-0.978
X8.422Y-1.578
X8.5079Y-4.7189
X8.5079Y-5.3189
X8.522Y-0.978
X8.522Y-1.578
X8.6079Y-4.7189
X8.6079Y-5.3189
X8.622Y-0.978
X8.622Y-1.578
X8.7079Y-4.7189
X8.7079Y-5.3189
X8.722Y-0.978
X8.722Y-1.578
X8.8079Y-4.7189
X8.8079Y-5.3189
X8.822Y-0.978
X8.822Y-1.578
X8.9079Y-4.7189
X8.9079Y-5.3189
X8.922Y-0.978
X8.922Y-1.578
X9.0079Y-4.7189
X9.0079Y-5.3189
X9.1079Y-4.7189
X9.1079Y-5.3189
X9.2079Y-4.7189
X9.2079Y-5.3189
X9.3079Y-4.7189
X9.3079Y-5.3189
T4
X4.6457Y-1.3583
X4.6496Y-1.4606
X4.6693Y-2.252
X4.6693Y-2.3268
X4.6732Y-2.6575
X4.6732Y-2.7913
X4.6732Y-2.9252
X4.6732Y-3.0591
X4.6732Y-3.1929
X4.6732Y-3.3268
X4.6732Y-3.4606
X4.6732Y-3.5945
X4.6732Y-3.7283
X4.6732Y-3.8622
X4.6732Y-3.9764
X4.6732Y-4.1102
X4.6732Y-4.2441
X4.6732Y-4.378
X4.6732Y-4.5118
X4.6732Y-4.6457
X4.6732Y-4.7795
X4.6732Y-4.9134
X4.6732Y-5.0472
X4.6732Y-5.1811
X4.6732Y-5.2992
X4.6732Y-5.4331
X4.6732Y-5.5669
X4.685Y-0.622
X4.7795Y-1.3583
X4.7835Y-1.4606
X4.7913Y-5.1772
X4.8031Y-2.252
X4.8031Y-2.3268
X4.8031Y-3.3228
X4.8031Y-3.4567
X4.8031Y-3.9764
X4.8031Y-4.1102
X4.8071Y-2.7913
X4.8071Y-2.9252
X4.811Y-4.5079
X4.811Y-4.6417
X4.8189Y-0.622
X4.9134Y-1.3583
X4.9173Y-1.4606
X4.9252Y-5.1772
X4.937Y-2.252
X4.937Y-2.3268
X4.9528Y-0.622
X4.9528Y-3.4567
X5.0472Y-1.3583
X5.0512Y-1.4606
X5.0866Y-0.622
X5.126Y-2.8622
X5.1299Y-4.5748
X5.1339Y-3.4331
X5.1417Y-4.0197
X5.1496Y-5.1772
X5.1811Y-1.3583
X5.185Y-1.4606
X5.2205Y-0.622
X5.2402Y-2.8661
X5.2441Y-4.5787
X5.248Y-3.437
X5.2559Y-4.0236
X5.2953Y-5.1929
X5.311Y-2.126
X5.3189Y-2.2283
X5.3504Y-1.4724
X5.3543Y-0.622
X5.4724Y-5.0394
X5.4843Y-3.7677
X5.4843Y-4.8661
X5.4882Y-0.622
X5.4961Y-4.7323
X5.4961Y-5.4094
X5.5Y-3.4606
X5.5354Y-5.2126
X5.5472Y-1.4094
X5.5472Y-2.1063
X5.5512Y-1.4882
X5.6063Y-2.2283
X5.622Y-0.622
X5.6339Y-3.3976
X5.689Y-1.4094
X5.689Y-5.2047
X5.6969Y-1.5
X5.6969Y-4.6732
X5.7559Y-0.622
X5.8268Y-1.4094
X5.8307Y-2.0787
X5.8346Y-1.5
X5.8465Y-1.8071
X5.8622Y-1.9331
X5.8622Y-2.8898
X5.874Y-2.2244
X5.8898Y-0.622
X5.9291Y-1.4016
X5.9488Y-1.5
X5.9764Y-2.3661
X5.9882Y-0.622
X6.0354Y-2.8819
X6.0512Y-1.4803
X6.0551Y-1.2244
X6.0669Y-1.378
X6.0669Y-1.811
X6.0709Y-1.9409
X6.122Y-0.622
X6.122Y-0.7244
X6.2559Y-0.622
X6.2559Y-0.7244
X6.2874Y-2.5748
X6.2913Y-2.9409
X6.3819Y-4.7008
X6.3819Y-5.2323
X6.3898Y-0.622
X6.3898Y-0.7244
X6.4173Y-3.6063
X6.4685Y-2.5394
X6.5236Y-0.622
X6.5236Y-0.7244
X6.5433Y-3.6102
X6.5906Y-4.6969
X6.5906Y-5.248
X6.6929Y-3.6024
X6.7283Y-4.1496
X6.7441Y-3.0669
X6.7913Y-3.6063
X6.8583Y-3.0748
X6.8701Y-4.1496
X6.9016Y-3.6024
T5
X7.889Y-2.4278
X7.889Y-2.5278
X7.889Y-2.6278
X7.889Y-2.7278
X7.889Y-2.9626
X7.889Y-3.0626
X7.889Y-3.1626
X7.889Y-3.2626
X8.189Y-2.4278
X8.189Y-2.5278
X8.189Y-2.6278
X8.189Y-2.7278
X8.189Y-2.9626
X8.189Y-3.0626
X8.189Y-3.1626
X8.189Y-3.2626
X8.5806Y-2.8688
X8.5806Y-2.9688
X8.5806Y-3.0688
X8.5806Y-3.1688
X8.5806Y-3.2688
X8.5806Y-3.3688
X9.2806Y-2.9688
X9.2806Y-3.0688
X9.2806Y-3.1688
X9.2806Y-3.2688
T6
X5.5704Y-4.4029
X5.5709Y-4.0344
X5.6688Y-4.4029
X5.6693Y-4.0344
X5.7672Y-4.4029
X5.7677Y-4.0344
X7.3622Y-2.2244
X7.3622Y-2.3228
X7.3622Y-2.4213
X7.3622Y-2.5197
X7.3622Y-2.8009
X7.3622Y-2.8993
X7.3622Y-2.9978
X7.3622Y-3.0962
X7.3622Y-3.4132
X7.3622Y-3.5116
X7.3622Y-3.6101
X7.3622Y-3.7085
X9.333Y-0.7701
X9.333Y-0.8686
X9.333Y-0.967
X9.333Y-1.2471
X9.333Y-1.3456
X9.333Y-1.444
X9.335Y-1.7336
X9.335Y-1.832
X9.335Y-1.9304
X9.337Y-2.228
X9.337Y-2.3264
X9.337Y-2.4249
T7
X7.022Y-0.678
X7.022Y-1.878
X7.122Y-0.678
X7.122Y-1.878
X7.222Y-0.678
X7.222Y-1.878
X7.322Y-0.678
X7.322Y-1.878
X7.4079Y-4.4189
X7.4079Y-5.6189
X7.422Y-0.678
X7.422Y-1.878
X7.5079Y-4.4189
X7.5079Y-5.6189
X7.522Y-0.678
X7.522Y-1.878
X7.6079Y-4.4189
X7.6079Y-5.6189
X7.622Y-0.678
X7.622Y-1.878
X7.7079Y-4.4189
X7.7079Y-5.6189
X7.722Y-0.678
X7.722Y-1.878
X7.8079Y-4.4189
X7.8079Y-5.6189
X7.822Y-0.678
X7.822Y-1.878
X7.9079Y-4.4189
X7.9079Y-5.6189
X7.922Y-0.678
X7.922Y-1.878
X8.0079Y-4.4189
X8.0079Y-5.6189
X8.022Y-0.678
X8.022Y-1.878
X8.1079Y-4.4189
X8.1079Y-5.6189
X8.122Y-0.678
X8.122Y-1.878
X8.2079Y-4.4189
X8.2079Y-5.6189
X8.222Y-0.678
X8.222Y-1.878
X8.3079Y-4.4189
X8.3079Y-5.6189
X8.322Y-0.678
X8.322Y-1.878
X8.4079Y-4.4189
X8.4079Y-5.6189
X8.422Y-0.678
X8.422Y-1.878
X8.5079Y-4.4189
X8.5079Y-5.6189
X8.522Y-0.678
X8.522Y-1.878
X8.6079Y-4.4189
X8.6079Y-5.6189
X8.622Y-0.678
X8.622Y-1.878
X8.7079Y-4.4189
X8.7079Y-5.6189
X8.7189Y-4.0157
X8.722Y-0.678
X8.722Y-1.878
X8.8079Y-4.4189
X8.8079Y-5.6189
X8.8189Y-4.0157
X8.822Y-0.678
X8.822Y-1.878
X8.9079Y-4.4189
X8.9079Y-5.6189
X8.9189Y-4.0157
X8.922Y-0.678
X8.922Y-1.878
X9.0079Y-4.4189
X9.0079Y-5.6189
X9.1079Y-4.4189
X9.1079Y-5.6189
X9.1189Y-4.0157
X9.2079Y-4.4189
X9.2079Y-5.6189
X9.2189Y-4.0157
X9.3079Y-4.4189
X9.3079Y-5.6189
X9.3189Y-4.0157
X9.4189Y-4.0157
T8
X3.2366Y-4.096
X3.2926Y-3.4531
X3.2926Y-3.7366
X3.2945Y-2.7587
X3.2945Y-3.0421
X3.319Y-0.9705
X3.319Y-1.2539
X3.319Y-1.7677
X3.319Y-2.0512
X3.5201Y-4.096
X3.7657Y-2.8269
X4.0492Y-2.8269
X4.1613Y-3.8839
X4.1613Y-4.1673
X4.1634Y-3.1693
X4.1634Y-3.4528
T9
X6.0957Y-2.149
X6.0957Y-4.1175
X8.0642Y-2.149
X8.0642Y-4.1175
T10
X3.2091Y-4.8283
X3.2091Y-5.1118
X3.4835Y-5.4579
X3.7256Y-4.785
X3.7303Y-3.3622
X3.7303Y-3.6457
X3.7669Y-5.4579
X3.811Y-0.7874
X3.811Y-1.2073
X3.811Y-1.6404
X3.811Y-2.0735
X4.0091Y-4.785
X4.0945Y-0.7874
X4.0945Y-1.2073
X4.0945Y-1.6404
X4.0945Y-2.0735
X4.2126Y-5.189
X4.2126Y-5.4724
X4.8031Y-0.9055
X4.8031Y-1.189
X4.8425Y-1.748
X4.8425Y-2.0315
X4.9055Y-4.8386
X4.9055Y-5.4136
X4.9083Y-2.55
X4.9083Y-3.125
X4.9083Y-3.7
X4.9083Y-4.275
X5.189Y-4.8386
X5.189Y-5.4136
X5.1917Y-2.55
X5.1917Y-3.125
X5.1917Y-3.7
X5.1917Y-4.275
X5.315Y-0.9055
X5.315Y-1.189
X5.3307Y-1.8504
X5.6142Y-1.8504
X5.6693Y-2.5984
X5.6693Y-3.0976
X5.6693Y-3.6362
X5.7087Y-4.8819
X5.7244Y-5.4331
X5.7874Y-0.9055
X5.7874Y-1.189
X5.9528Y-2.5984
X5.9528Y-3.0976
X5.9528Y-3.6362
X5.9921Y-4.8819
X6.0079Y-5.4331
X6.4724Y-2.7493
X6.4724Y-3.294
X6.4724Y-3.8386
X6.4724Y-4.3832
X6.4724Y-4.9278
X6.4724Y-5.4724
X6.5276Y-2.2441
X6.7559Y-2.7493
X6.7559Y-3.294
X6.7559Y-3.8386
X6.7559Y-4.3832
X6.7559Y-4.9278
X6.7559Y-5.4724
X6.811Y-2.2441
T2
G00X3.0347Y-3.3291
M15
G01X3.0781Y-3.3291
M16
G05
G00X3.0347Y-3.8606
M15
G01X3.0781Y-3.8606
M16
G05
G00X3.0366Y-2.6346
M15
G01X3.0799Y-2.6346
M16
G05
G00X3.0366Y-3.1661
M15
G01X3.0799Y-3.1661
M16
G05
G00X3.0611Y-0.8465
M15
G01X3.1044Y-0.8465
M16
G05
G00X3.0611Y-1.378
M15
G01X3.1044Y-1.378
M16
G05
G00X3.0611Y-1.6437
M15
G01X3.1044Y-1.6437
M16
G05
G00X3.0611Y-2.1752
M15
G01X3.1044Y-2.1752
M16
G05
G00X3.1126Y-4.3538
M15
G01X3.1126Y-4.3105
M16
G05
G00X3.6417Y-2.569
M15
G01X3.6417Y-2.6123
M16
G05
G00X3.6441Y-4.3538
M15
G01X3.6441Y-4.3105
M16
G05
G00X4.1732Y-2.569
M15
G01X4.1732Y-2.6123
M16
G05
G00X4.4192Y-3.7598
M15
G01X4.3759Y-3.7598
M16
G05
G00X4.4192Y-4.2913
M15
G01X4.3759Y-4.2913
M16
G05
G00X4.4213Y-3.0453
M15
G01X4.378Y-3.0453
M16
G05
G00X4.4213Y-3.5768
M15
G01X4.378Y-3.5768
M16
G05
M30
