M48
; DRILL file {KiCad 9.0.2} date 2025-12-04T15:10:23+0530
; FORMAT={-:-/ absolute / inch / decimal}
; #@! TF.CreationDate,2025-12-04T15:10:23+05:30
; #@! TF.GenerationSoftware,Kicad,Pcbnew,9.0.2
; #@! TF.FileFunction,NonPlated,1,2,NPTH
FMAT,2
INCH
; #@! TA.AperFunction,NonPlated,NPTH,ComponentDrill
T1C0.0118
%
G90
G05
T1
X3.3795Y-2.3823
X3.3795Y-2.4531
X3.3826Y-4.5035
X3.3826Y-4.5744
X3.3953Y-2.3823
X3.3953Y-2.4531
X3.3984Y-4.5035
X3.3984Y-4.5744
X3.411Y-2.3823
X3.411Y-2.4531
X3.4141Y-4.5035
X3.4141Y-4.5744
X3.4268Y-2.3823
X3.4268Y-2.4531
X3.4299Y-4.5035
X3.4299Y-4.5744
X3.4425Y-2.3823
X3.4425Y-2.4531
X3.4456Y-4.5035
X3.4456Y-4.5744
X3.4583Y-2.3823
X3.4583Y-2.4531
X3.4614Y-4.5035
X3.4614Y-4.5744
X3.8114Y-2.3819
X3.8114Y-2.4528
X3.8145Y-4.5031
X3.8145Y-4.574
X3.8272Y-2.3819
X3.8272Y-2.4528
X3.8303Y-4.5031
X3.8303Y-4.574
X3.8429Y-2.3819
X3.8429Y-2.4528
X3.846Y-4.5031
X3.846Y-4.574
X3.8587Y-2.3819
X3.8587Y-2.4528
X3.8618Y-4.5031
X3.8618Y-4.574
X3.8744Y-2.3819
X3.8744Y-2.4528
X3.8775Y-4.5031
X3.8775Y-4.574
X3.8902Y-2.3819
X3.8902Y-2.4528
X3.8933Y-4.5031
X3.8933Y-4.574
X4.5016Y-5.4854
X4.5016Y-5.5012
X4.5016Y-5.5169
X4.5016Y-5.5327
X4.5016Y-5.5484
X4.5016Y-5.5642
X4.502Y-1.0633
X4.502Y-1.079
X4.502Y-1.0948
X4.502Y-1.1105
X4.502Y-1.1263
X4.502Y-1.142
X4.502Y-1.6526
X4.502Y-1.6684
X4.502Y-1.6841
X4.502Y-1.6999
X4.502Y-1.7156
X4.502Y-1.7314
X4.502Y-1.9473
X4.502Y-1.963
X4.502Y-1.9788
X4.502Y-1.9945
X4.502Y-2.0103
X4.502Y-2.026
X4.502Y-2.242
X4.502Y-2.2577
X4.502Y-2.2735
X4.502Y-2.2892
X4.502Y-2.305
X4.502Y-2.3207
X4.502Y-2.5366
X4.502Y-2.5524
X4.502Y-2.5681
X4.502Y-2.5839
X4.502Y-2.5996
X4.502Y-2.6154
X4.502Y-2.8313
X4.502Y-2.8471
X4.502Y-2.8628
X4.502Y-2.8786
X4.502Y-2.8943
X4.502Y-2.9101
X4.502Y-3.126
X4.502Y-3.1417
X4.502Y-3.1575
X4.502Y-3.1732
X4.502Y-3.189
X4.502Y-3.2047
X4.502Y-3.4207
X4.502Y-3.4364
X4.502Y-3.4522
X4.502Y-3.4679
X4.502Y-3.4837
X4.502Y-3.4994
X4.502Y-3.7153
X4.502Y-3.7311
X4.502Y-3.7468
X4.502Y-3.7626
X4.502Y-3.7783
X4.502Y-3.7941
X4.502Y-4.01
X4.502Y-4.0258
X4.502Y-4.0415
X4.502Y-4.0573
X4.502Y-4.073
X4.502Y-4.0887
X4.502Y-4.3047
X4.502Y-4.3204
X4.502Y-4.3362
X4.502Y-4.3519
X4.502Y-4.3677
X4.502Y-4.3834
X4.502Y-4.5994
X4.502Y-4.6151
X4.502Y-4.6309
X4.502Y-4.6466
X4.502Y-4.6623
X4.502Y-4.6781
X4.502Y-4.894
X4.502Y-4.9098
X4.502Y-4.9255
X4.502Y-4.9413
X4.502Y-4.957
X4.502Y-4.9728
X4.502Y-5.1887
X4.502Y-5.2045
X4.502Y-5.2202
X4.502Y-5.2359
X4.502Y-5.2517
X4.502Y-5.2674
X4.5024Y-0.7717
X4.5024Y-0.7874
X4.5024Y-0.8031
X4.5024Y-0.8189
X4.5024Y-0.8346
X4.5024Y-0.8504
X4.5026Y-1.3585
X4.5026Y-1.3743
X4.5026Y-1.39
X4.5026Y-1.4058
X4.5026Y-1.4215
X4.5026Y-1.4373
X4.5724Y-5.4854
X4.5724Y-5.5012
X4.5724Y-5.5169
X4.5724Y-5.5327
X4.5724Y-5.5484
X4.5724Y-5.5642
X4.5728Y-1.0633
X4.5728Y-1.079
X4.5728Y-1.0948
X4.5728Y-1.1105
X4.5728Y-1.1263
X4.5728Y-1.142
X4.5728Y-1.6526
X4.5728Y-1.6684
X4.5728Y-1.6841
X4.5728Y-1.6999
X4.5728Y-1.7156
X4.5728Y-1.7314
X4.5728Y-1.9473
X4.5728Y-1.963
X4.5728Y-1.9788
X4.5728Y-1.9945
X4.5728Y-2.0103
X4.5728Y-2.026
X4.5728Y-2.242
X4.5728Y-2.2577
X4.5728Y-2.2735
X4.5728Y-2.2892
X4.5728Y-2.305
X4.5728Y-2.3207
X4.5728Y-2.5366
X4.5728Y-2.5524
X4.5728Y-2.5681
X4.5728Y-2.5839
X4.5728Y-2.5996
X4.5728Y-2.6154
X4.5728Y-2.8313
X4.5728Y-2.8471
X4.5728Y-2.8628
X4.5728Y-2.8786
X4.5728Y-2.8943
X4.5728Y-2.9101
X4.5728Y-3.126
X4.5728Y-3.1417
X4.5728Y-3.1575
X4.5728Y-3.1732
X4.5728Y-3.189
X4.5728Y-3.2047
X4.5728Y-3.4207
X4.5728Y-3.4364
X4.5728Y-3.4522
X4.5728Y-3.4679
X4.5728Y-3.4837
X4.5728Y-3.4994
X4.5728Y-3.7153
X4.5728Y-3.7311
X4.5728Y-3.7468
X4.5728Y-3.7626
X4.5728Y-3.7783
X4.5728Y-3.7941
X4.5728Y-4.01
X4.5728Y-4.0258
X4.5728Y-4.0415
X4.5728Y-4.0573
X4.5728Y-4.073
X4.5728Y-4.0887
X4.5728Y-4.3047
X4.5728Y-4.3204
X4.5728Y-4.3362
X4.5728Y-4.3519
X4.5728Y-4.3677
X4.5728Y-4.3834
X4.5728Y-4.5994
X4.5728Y-4.6151
X4.5728Y-4.6309
X4.5728Y-4.6466
X4.5728Y-4.6623
X4.5728Y-4.6781
X4.5728Y-4.894
X4.5728Y-4.9098
X4.5728Y-4.9255
X4.5728Y-4.9413
X4.5728Y-4.957
X4.5728Y-4.9728
X4.5728Y-5.1887
X4.5728Y-5.2045
X4.5728Y-5.2202
X4.5728Y-5.2359
X4.5728Y-5.2517
X4.5728Y-5.2674
X4.5732Y-0.7717
X4.5732Y-0.7874
X4.5732Y-0.8031
X4.5732Y-0.8189
X4.5732Y-0.8346
X4.5732Y-0.8504
X4.5734Y-1.3585
X4.5734Y-1.3743
X4.5734Y-1.39
X4.5734Y-1.4058
X4.5734Y-1.4215
X4.5734Y-1.4373
M30
