%TF.GenerationSoftware,KiCad,Pcbnew,9.0.2*%
%TF.CreationDate,2026-02-12T20:42:31+05:30*%
%TF.ProjectId,RCUP_BASE_PCB_2,52435550-5f42-4415-9345-5f5043425f32,rev?*%
%TF.SameCoordinates,Original*%
%TF.FileFunction,Soldermask,Bot*%
%TF.FilePolarity,Negative*%
%FSLAX46Y46*%
G04 Gerber Fmt 4.6, Leading zero omitted, Abs format (unit mm)*
G04 Created by KiCad (PCBNEW 9.0.2) date 2026-02-12 20:42:31*
%MOMM*%
%LPD*%
G01*
G04 APERTURE LIST*
G04 Aperture macros list*
%AMRoundRect*
0 Rectangle with rounded corners*
0 $1 Rounding radius*
0 $2 $3 $4 $5 $6 $7 $8 $9 X,Y pos of 4 corners*
0 Add a 4 corners polygon primitive as box body*
4,1,4,$2,$3,$4,$5,$6,$7,$8,$9,$2,$3,0*
0 Add four circle primitives for the rounded corners*
1,1,$1+$1,$2,$3*
1,1,$1+$1,$4,$5*
1,1,$1+$1,$6,$7*
1,1,$1+$1,$8,$9*
0 Add four rect primitives between the rounded corners*
20,1,$1+$1,$2,$3,$4,$5,0*
20,1,$1+$1,$4,$5,$6,$7,0*
20,1,$1+$1,$6,$7,$8,$9,0*
20,1,$1+$1,$8,$9,$2,$3,0*%
G04 Aperture macros list end*
%ADD10C,4.700000*%
%ADD11C,7.500000*%
%ADD12RoundRect,1.500000X-1.500000X-1.500000X1.500000X-1.500000X1.500000X1.500000X-1.500000X1.500000X0*%
%ADD13C,6.000000*%
%ADD14RoundRect,0.250000X-0.725000X0.600000X-0.725000X-0.600000X0.725000X-0.600000X0.725000X0.600000X0*%
%ADD15O,1.950000X1.700000*%
%ADD16RoundRect,1.500000X1.500000X-1.500000X1.500000X1.500000X-1.500000X1.500000X-1.500000X-1.500000X0*%
%ADD17C,1.500000*%
%ADD18R,2.400000X1.600000*%
%ADD19O,2.400000X1.600000*%
%ADD20R,1.700000X1.700000*%
%ADD21C,1.700000*%
%ADD22RoundRect,0.250000X-0.600000X-0.725000X0.600000X-0.725000X0.600000X0.725000X-0.600000X0.725000X0*%
%ADD23O,1.700000X1.950000*%
%ADD24RoundRect,0.250000X0.725000X-0.600000X0.725000X0.600000X-0.725000X0.600000X-0.725000X-0.600000X0*%
%ADD25RoundRect,1.500000X1.500000X1.500000X-1.500000X1.500000X-1.500000X-1.500000X1.500000X-1.500000X0*%
%ADD26C,1.524000*%
%ADD27C,1.200000*%
%ADD28RoundRect,0.250000X-0.600000X-0.750000X0.600000X-0.750000X0.600000X0.750000X-0.600000X0.750000X0*%
%ADD29O,1.700000X2.000000*%
%ADD30RoundRect,1.500000X-1.500000X1.500000X-1.500000X-1.500000X1.500000X-1.500000X1.500000X1.500000X0*%
%ADD31O,1.700000X1.700000*%
%ADD32RoundRect,0.237500X0.250000X0.237500X-0.250000X0.237500X-0.250000X-0.237500X0.250000X-0.237500X0*%
%ADD33RoundRect,0.250000X0.875000X0.925000X-0.875000X0.925000X-0.875000X-0.925000X0.875000X-0.925000X0*%
%ADD34RoundRect,0.237500X0.237500X-0.287500X0.237500X0.287500X-0.237500X0.287500X-0.237500X-0.287500X0*%
%ADD35RoundRect,0.250000X-0.875000X-0.925000X0.875000X-0.925000X0.875000X0.925000X-0.875000X0.925000X0*%
%ADD36RoundRect,0.237500X0.237500X-0.250000X0.237500X0.250000X-0.237500X0.250000X-0.237500X-0.250000X0*%
%ADD37RoundRect,0.150000X-0.150000X0.512500X-0.150000X-0.512500X0.150000X-0.512500X0.150000X0.512500X0*%
%ADD38RoundRect,0.237500X0.237500X-0.300000X0.237500X0.300000X-0.237500X0.300000X-0.237500X-0.300000X0*%
%ADD39RoundRect,0.250000X0.545000X0.445000X-0.545000X0.445000X-0.545000X-0.445000X0.545000X-0.445000X0*%
%ADD40RoundRect,0.150000X0.150000X-0.512500X0.150000X0.512500X-0.150000X0.512500X-0.150000X-0.512500X0*%
G04 APERTURE END LIST*
D10*
%TO.C,H7*%
X154830000Y-54584125D03*
D11*
X154830000Y-54584125D03*
%TD*%
D12*
%TO.C,J27*%
X164400000Y-69833333D03*
D13*
X171600000Y-69833333D03*
%TD*%
D14*
%TO.C,MDD3*%
X226225000Y-54500000D03*
D15*
X226225000Y-57000000D03*
X226225000Y-59500000D03*
%TD*%
D12*
%TO.C,J19*%
X164400000Y-83666667D03*
D13*
X171600000Y-83666667D03*
%TD*%
D16*
%TO.C,J11*%
X147000000Y-30200000D03*
D13*
X147000000Y-23000000D03*
%TD*%
D12*
%TO.C,J15*%
X124600000Y-122900000D03*
D13*
X131800000Y-122900000D03*
%TD*%
D12*
%TO.C,J23*%
X145000000Y-124000000D03*
D13*
X152200000Y-124000000D03*
%TD*%
D17*
%TO.C,U3*%
X217947200Y-72866300D03*
X217947200Y-75406300D03*
X217947200Y-77946300D03*
X217947200Y-80486300D03*
X217947200Y-83026300D03*
X217947200Y-85566300D03*
X235727200Y-75406300D03*
X235727200Y-77946300D03*
X235727200Y-80486300D03*
X235727200Y-83026300D03*
%TD*%
D14*
%TO.C,MDD4*%
X236925000Y-54500000D03*
D15*
X236925000Y-57000000D03*
X236925000Y-59500000D03*
%TD*%
D12*
%TO.C,J21*%
X164400000Y-139000000D03*
D13*
X171600000Y-139000000D03*
%TD*%
D12*
%TO.C,J26*%
X164400000Y-111333333D03*
D13*
X171600000Y-111333333D03*
%TD*%
D12*
%TO.C,J29*%
X144000000Y-66000000D03*
D13*
X151200000Y-66000000D03*
%TD*%
D10*
%TO.C,H8*%
X204830000Y-54584125D03*
D11*
X204830000Y-54584125D03*
%TD*%
D18*
%TO.C,OC3*%
X208425000Y-96000000D03*
D19*
X208425000Y-93460000D03*
X208425000Y-90920000D03*
X208425000Y-88380000D03*
X200805000Y-88380000D03*
X200805000Y-90920000D03*
X200805000Y-93460000D03*
X200805000Y-96000000D03*
%TD*%
D12*
%TO.C,J28*%
X164400000Y-125166667D03*
D13*
X171600000Y-125166667D03*
%TD*%
D20*
%TO.C,J4*%
X225160000Y-47620000D03*
D21*
X222620000Y-47620000D03*
X220080000Y-47620000D03*
X217540000Y-47620000D03*
X215000000Y-47620000D03*
X212460000Y-47620000D03*
X209920000Y-47620000D03*
X207380000Y-47620000D03*
X204840000Y-47620000D03*
X202300000Y-47620000D03*
X199760000Y-47620000D03*
X197220000Y-47620000D03*
X194680000Y-47620000D03*
X192140000Y-47620000D03*
X189600000Y-47620000D03*
X187060000Y-47620000D03*
X184520000Y-47620000D03*
X181980000Y-47620000D03*
X179440000Y-47620000D03*
X176900000Y-47620000D03*
%TD*%
D22*
%TO.C,J30*%
X141487201Y-111834450D03*
D23*
X143987201Y-111834450D03*
X146487201Y-111834450D03*
%TD*%
D24*
%TO.C,Encoder1*%
X188000000Y-85147505D03*
D15*
X188000000Y-82647505D03*
X188000000Y-80147505D03*
X188000000Y-77647505D03*
%TD*%
D10*
%TO.C,H6*%
X154830000Y-104584125D03*
D11*
X154830000Y-104584125D03*
%TD*%
D16*
%TO.C,J10*%
X135000000Y-30200000D03*
D13*
X135000000Y-23000000D03*
%TD*%
D12*
%TO.C,J20*%
X145400000Y-138000000D03*
D13*
X152600000Y-138000000D03*
%TD*%
D25*
%TO.C,J24*%
X142600000Y-47000000D03*
D13*
X135400000Y-47000000D03*
%TD*%
D24*
%TO.C,Encoder2*%
X188000000Y-100700000D03*
D15*
X188000000Y-98200000D03*
X188000000Y-95700000D03*
X188000000Y-93200000D03*
%TD*%
D26*
%TO.C,MotorController2*%
X225160000Y-40000000D03*
X222620000Y-40000000D03*
X220080000Y-40000000D03*
X217540000Y-40000000D03*
X215000000Y-40000000D03*
X212460000Y-40000000D03*
X209920000Y-40000000D03*
X207380000Y-40000000D03*
X204840000Y-40000000D03*
X202300000Y-40000000D03*
X199760000Y-40000000D03*
X197220000Y-40000000D03*
X194680000Y-40000000D03*
X192140000Y-40000000D03*
X189600000Y-40000000D03*
X187060000Y-40000000D03*
X184520000Y-40000000D03*
X181980000Y-40000000D03*
X179440000Y-40000000D03*
X176900000Y-40000000D03*
X225160000Y-24760000D03*
X222620000Y-24760000D03*
X220080000Y-24760000D03*
X217540000Y-24760000D03*
X215000000Y-24760000D03*
X212460000Y-24760000D03*
X209920000Y-24760000D03*
X207380000Y-24760000D03*
X204840000Y-24760000D03*
X202300000Y-24760000D03*
X199760000Y-24760000D03*
X197220000Y-24760000D03*
X194680000Y-24760000D03*
X192140000Y-24760000D03*
X189600000Y-24760000D03*
X187060000Y-24760000D03*
X184520000Y-24760000D03*
X181980000Y-24760000D03*
X179440000Y-24760000D03*
X176900000Y-24760000D03*
%TD*%
D10*
%TO.C,H5*%
X204830000Y-104584125D03*
D11*
X204830000Y-104584125D03*
%TD*%
D25*
%TO.C,J8*%
X173000000Y-57000000D03*
D13*
X165800000Y-57000000D03*
%TD*%
D12*
%TO.C,J14*%
X124670000Y-108585000D03*
D13*
X131870000Y-108585000D03*
%TD*%
D27*
%TO.C,J5*%
X183500000Y-56000000D03*
D28*
X185100000Y-54000000D03*
D29*
X187600000Y-54000000D03*
%TD*%
D18*
%TO.C,OC1*%
X208000000Y-69285900D03*
D19*
X208000000Y-66745900D03*
X208000000Y-64205900D03*
X208000000Y-61665900D03*
X200380000Y-61665900D03*
X200380000Y-64205900D03*
X200380000Y-66745900D03*
X200380000Y-69285900D03*
%TD*%
D14*
%TO.C,MDD1*%
X215525000Y-54500000D03*
D15*
X215525000Y-57000000D03*
X215525000Y-59500000D03*
%TD*%
D20*
%TO.C,J3*%
X225160000Y-17140000D03*
D21*
X222620000Y-17140000D03*
X220080000Y-17140000D03*
X217540000Y-17140000D03*
X215000000Y-17140000D03*
X212460000Y-17140000D03*
X209920000Y-17140000D03*
X207380000Y-17140000D03*
X204840000Y-17140000D03*
X202300000Y-17140000D03*
X199760000Y-17140000D03*
X197220000Y-17140000D03*
X194680000Y-17140000D03*
X192140000Y-17140000D03*
X189600000Y-17140000D03*
X187060000Y-17140000D03*
X184520000Y-17140000D03*
X181980000Y-17140000D03*
X179440000Y-17140000D03*
X176900000Y-17140000D03*
%TD*%
D24*
%TO.C,Encoder3*%
X188000000Y-70504595D03*
D15*
X188000000Y-68004595D03*
X188000000Y-65504595D03*
X188000000Y-63004595D03*
%TD*%
D12*
%TO.C,J25*%
X124600000Y-137505000D03*
D13*
X131800000Y-137505000D03*
%TD*%
D18*
%TO.C,OC2*%
X200380000Y-75250000D03*
D19*
X200380000Y-77790000D03*
X200380000Y-80330000D03*
X200380000Y-82870000D03*
X208000000Y-82870000D03*
X208000000Y-80330000D03*
X208000000Y-77790000D03*
X208000000Y-75250000D03*
%TD*%
D30*
%TO.C,J18*%
X122000000Y-23000000D03*
D13*
X122000000Y-30200000D03*
%TD*%
D12*
%TO.C,J13*%
X124670000Y-79375000D03*
D13*
X131870000Y-79375000D03*
%TD*%
D20*
%TO.C,J2*%
X236420000Y-142720000D03*
D21*
X233880000Y-142720000D03*
X231340000Y-142720000D03*
X228800000Y-142720000D03*
X226260000Y-142720000D03*
X223720000Y-142720000D03*
X221180000Y-142720000D03*
X218640000Y-142720000D03*
X216100000Y-142720000D03*
X213560000Y-142720000D03*
X211020000Y-142720000D03*
X208480000Y-142720000D03*
X205940000Y-142720000D03*
X203400000Y-142720000D03*
X200860000Y-142720000D03*
X198320000Y-142720000D03*
X195780000Y-142720000D03*
X193240000Y-142720000D03*
X190700000Y-142720000D03*
X188160000Y-142720000D03*
%TD*%
D26*
%TO.C,MotorController1*%
X236420000Y-135100000D03*
X233880000Y-135100000D03*
X231340000Y-135100000D03*
X228800000Y-135100000D03*
X226260000Y-135100000D03*
X223720000Y-135100000D03*
X221180000Y-135100000D03*
X218640000Y-135100000D03*
X216100000Y-135100000D03*
X213560000Y-135100000D03*
X211020000Y-135100000D03*
X208480000Y-135100000D03*
X205940000Y-135100000D03*
X203400000Y-135100000D03*
X200860000Y-135100000D03*
X198320000Y-135100000D03*
X195780000Y-135100000D03*
X193240000Y-135100000D03*
X190700000Y-135100000D03*
X188160000Y-135100000D03*
X236420000Y-119860000D03*
X233880000Y-119860000D03*
X231340000Y-119860000D03*
X228800000Y-119860000D03*
X226260000Y-119860000D03*
X223720000Y-119860000D03*
X221180000Y-119860000D03*
X218640000Y-119860000D03*
X216100000Y-119860000D03*
X213560000Y-119860000D03*
X211020000Y-119860000D03*
X208480000Y-119860000D03*
X205940000Y-119860000D03*
X203400000Y-119860000D03*
X200860000Y-119860000D03*
X198320000Y-119860000D03*
X195780000Y-119860000D03*
X193240000Y-119860000D03*
X190700000Y-119860000D03*
X188160000Y-119860000D03*
%TD*%
D17*
%TO.C,U2*%
X221460000Y-102000000D03*
X224000000Y-102000000D03*
X226540000Y-102000000D03*
X231620000Y-102000000D03*
X234160000Y-102000000D03*
X236700000Y-102000000D03*
X239240000Y-102000000D03*
%TD*%
D12*
%TO.C,J16*%
X144000000Y-92358564D03*
D13*
X151200000Y-92358564D03*
%TD*%
D12*
%TO.C,J7*%
X124670000Y-64770000D03*
D13*
X131870000Y-64770000D03*
%TD*%
D16*
%TO.C,J9*%
X123000000Y-51600000D03*
D13*
X123000000Y-44400000D03*
%TD*%
D31*
%TO.C,REF\u002A\u002A*%
X218490000Y-70640000D03*
D21*
X221030000Y-70640000D03*
X223570000Y-70640000D03*
X226110000Y-70640000D03*
X228650000Y-70640000D03*
X231190000Y-70640000D03*
X233730000Y-70640000D03*
X236270000Y-70640000D03*
%TD*%
D12*
%TO.C,J17*%
X144000000Y-78679282D03*
D13*
X151200000Y-78679282D03*
%TD*%
D22*
%TO.C,MDD2*%
X233200000Y-17600000D03*
D23*
X235700000Y-17600000D03*
X238200000Y-17600000D03*
%TD*%
D20*
%TO.C,J1*%
X236420000Y-112240000D03*
D21*
X233880000Y-112240000D03*
X231340000Y-112240000D03*
X228800000Y-112240000D03*
X226260000Y-112240000D03*
X223720000Y-112240000D03*
X221180000Y-112240000D03*
X218640000Y-112240000D03*
X216100000Y-112240000D03*
X213560000Y-112240000D03*
X211020000Y-112240000D03*
X208480000Y-112240000D03*
X205940000Y-112240000D03*
X203400000Y-112240000D03*
X200860000Y-112240000D03*
X198320000Y-112240000D03*
X195780000Y-112240000D03*
X193240000Y-112240000D03*
X190700000Y-112240000D03*
X188160000Y-112240000D03*
%TD*%
D12*
%TO.C,J6*%
X124670000Y-93980000D03*
D13*
X131870000Y-93980000D03*
%TD*%
D22*
%TO.C,J31*%
X141500000Y-102475000D03*
D23*
X144000000Y-102475000D03*
X146500000Y-102475000D03*
%TD*%
D12*
%TO.C,J22*%
X164400000Y-97500000D03*
D13*
X171600000Y-97500000D03*
%TD*%
D32*
%TO.C,R14*%
X181912500Y-98164345D03*
X180087500Y-98164345D03*
%TD*%
D33*
%TO.C,C2*%
X218100000Y-100090000D03*
X213000000Y-100090000D03*
%TD*%
D32*
%TO.C,R11*%
X182105683Y-82504595D03*
X180280683Y-82504595D03*
%TD*%
D34*
%TO.C,BNO1*%
X229148600Y-78606700D03*
X229148600Y-76856700D03*
%TD*%
D35*
%TO.C,C3*%
X234450000Y-98000000D03*
X239550000Y-98000000D03*
%TD*%
D34*
%TO.C,STMFuse2*%
X228400000Y-30550000D03*
X228400000Y-28800000D03*
%TD*%
D36*
%TO.C,R20*%
X222493800Y-83989600D03*
X222493800Y-82164600D03*
%TD*%
D32*
%TO.C,R16*%
X182105683Y-65504595D03*
X180280683Y-65504595D03*
%TD*%
D37*
%TO.C,U8*%
X194050000Y-27862500D03*
X195000000Y-27862500D03*
X195950000Y-27862500D03*
X195950000Y-30137500D03*
X195000000Y-30137500D03*
X194050000Y-30137500D03*
%TD*%
D32*
%TO.C,R12*%
X182105683Y-80504595D03*
X180280683Y-80504595D03*
%TD*%
D38*
%TO.C,C4*%
X197200000Y-69400000D03*
X197200000Y-67675000D03*
%TD*%
D36*
%TO.C,R19*%
X222417600Y-79062000D03*
X222417600Y-77237000D03*
%TD*%
D33*
%TO.C,C6*%
X238312200Y-106120000D03*
X233212200Y-106120000D03*
%TD*%
D32*
%TO.C,R2*%
X184332500Y-114540000D03*
X182507500Y-114540000D03*
%TD*%
%TO.C,R15*%
X182105683Y-68012513D03*
X180280683Y-68012513D03*
%TD*%
D39*
%TO.C,C5*%
X224440000Y-106250000D03*
X221560000Y-106250000D03*
%TD*%
D37*
%TO.C,U5*%
X208507500Y-29472500D03*
X209457500Y-29472500D03*
X210407500Y-29472500D03*
X210407500Y-31747500D03*
X209457500Y-31747500D03*
X208507500Y-31747500D03*
%TD*%
%TO.C,U6*%
X190090000Y-33862500D03*
X191040000Y-33862500D03*
X191990000Y-33862500D03*
X191990000Y-36137500D03*
X191040000Y-36137500D03*
X190090000Y-36137500D03*
%TD*%
D32*
%TO.C,R13*%
X181912500Y-95739673D03*
X180087500Y-95739673D03*
%TD*%
D40*
%TO.C,U4*%
X230987600Y-85267800D03*
X230037600Y-85267800D03*
X229087600Y-85267800D03*
X229087600Y-82992800D03*
X230037600Y-82992800D03*
X230987600Y-82992800D03*
%TD*%
D37*
%TO.C,U7*%
X187050000Y-27862500D03*
X188000000Y-27862500D03*
X188950000Y-27862500D03*
X188950000Y-30137500D03*
X188000000Y-30137500D03*
X187050000Y-30137500D03*
%TD*%
G36*
X151045764Y-17719685D02*
G01*
X151091519Y-17772489D01*
X151102694Y-17821245D01*
X151297155Y-26571989D01*
X151278965Y-26639449D01*
X151227191Y-26686366D01*
X151171964Y-26698738D01*
X131122778Y-26501209D01*
X131055936Y-26480865D01*
X131010704Y-26427613D01*
X131000000Y-26377215D01*
X131000000Y-17824000D01*
X131019685Y-17756961D01*
X131072489Y-17711206D01*
X131124000Y-17700000D01*
X150978725Y-17700000D01*
X151045764Y-17719685D01*
G37*
M02*
