%TF.GenerationSoftware,KiCad,Pcbnew,9.0.2*%
%TF.CreationDate,2025-11-08T23:40:13+05:30*%
%TF.ProjectId,RCUP_BASE_PCB_2,52435550-5f42-4415-9345-5f5043425f32,rev?*%
%TF.SameCoordinates,Original*%
%TF.FileFunction,Soldermask,Top*%
%TF.FilePolarity,Negative*%
%FSLAX46Y46*%
G04 Gerber Fmt 4.6, Leading zero omitted, Abs format (unit mm)*
G04 Created by KiCad (PCBNEW 9.0.2) date 2025-11-08 23:40:13*
%MOMM*%
%LPD*%
G01*
G04 APERTURE LIST*
G04 Aperture macros list*
%AMRoundRect*
0 Rectangle with rounded corners*
0 $1 Rounding radius*
0 $2 $3 $4 $5 $6 $7 $8 $9 X,Y pos of 4 corners*
0 Add a 4 corners polygon primitive as box body*
4,1,4,$2,$3,$4,$5,$6,$7,$8,$9,$2,$3,0*
0 Add four circle primitives for the rounded corners*
1,1,$1+$1,$2,$3*
1,1,$1+$1,$4,$5*
1,1,$1+$1,$6,$7*
1,1,$1+$1,$8,$9*
0 Add four rect primitives between the rounded corners*
20,1,$1+$1,$2,$3,$4,$5,0*
20,1,$1+$1,$4,$5,$6,$7,0*
20,1,$1+$1,$6,$7,$8,$9,0*
20,1,$1+$1,$8,$9,$2,$3,0*%
%AMFreePoly0*
4,1,23,0.500000,-0.750000,0.000000,-0.750000,0.000000,-0.745722,-0.065263,-0.745722,-0.191342,-0.711940,-0.304381,-0.646677,-0.396677,-0.554381,-0.461940,-0.441342,-0.495722,-0.315263,-0.495722,-0.250000,-0.500000,-0.250000,-0.500000,0.250000,-0.495722,0.250000,-0.495722,0.315263,-0.461940,0.441342,-0.396677,0.554381,-0.304381,0.646677,-0.191342,0.711940,-0.065263,0.745722,0.000000,0.745722,
0.000000,0.750000,0.500000,0.750000,0.500000,-0.750000,0.500000,-0.750000,$1*%
%AMFreePoly1*
4,1,23,0.000000,0.745722,0.065263,0.745722,0.191342,0.711940,0.304381,0.646677,0.396677,0.554381,0.461940,0.441342,0.495722,0.315263,0.495722,0.250000,0.500000,0.250000,0.500000,-0.250000,0.495722,-0.250000,0.495722,-0.315263,0.461940,-0.441342,0.396677,-0.554381,0.304381,-0.646677,0.191342,-0.711940,0.065263,-0.745722,0.000000,-0.745722,0.000000,-0.750000,-0.500000,-0.750000,
-0.500000,0.750000,0.000000,0.750000,0.000000,0.745722,0.000000,0.745722,$1*%
G04 Aperture macros list end*
%ADD10O,2.400000X1.600000*%
%ADD11R,2.400000X1.600000*%
%ADD12R,1.700000X1.700000*%
%ADD13C,1.700000*%
%ADD14C,1.524000*%
%ADD15C,4.700000*%
%ADD16C,7.500000*%
%ADD17RoundRect,0.237500X0.237500X-0.287500X0.237500X0.287500X-0.237500X0.287500X-0.237500X-0.287500X0*%
%ADD18RoundRect,1.500000X-1.500000X-1.500000X1.500000X-1.500000X1.500000X1.500000X-1.500000X1.500000X0*%
%ADD19C,6.000000*%
%ADD20RoundRect,0.237500X0.237500X-0.300000X0.237500X0.300000X-0.237500X0.300000X-0.237500X-0.300000X0*%
%ADD21RoundRect,0.250000X-0.725000X0.600000X-0.725000X-0.600000X0.725000X-0.600000X0.725000X0.600000X0*%
%ADD22O,1.950000X1.700000*%
%ADD23RoundRect,1.500000X1.500000X-1.500000X1.500000X1.500000X-1.500000X1.500000X-1.500000X-1.500000X0*%
%ADD24RoundRect,0.237500X-0.237500X0.250000X-0.237500X-0.250000X0.237500X-0.250000X0.237500X0.250000X0*%
%ADD25C,1.500000*%
%ADD26RoundRect,0.237500X0.237500X-0.250000X0.237500X0.250000X-0.237500X0.250000X-0.237500X-0.250000X0*%
%ADD27RoundRect,0.237500X-0.300000X-0.237500X0.300000X-0.237500X0.300000X0.237500X-0.300000X0.237500X0*%
%ADD28RoundRect,0.250000X-0.600000X-0.725000X0.600000X-0.725000X0.600000X0.725000X-0.600000X0.725000X0*%
%ADD29O,1.700000X1.950000*%
%ADD30RoundRect,0.250000X0.725000X-0.600000X0.725000X0.600000X-0.725000X0.600000X-0.725000X-0.600000X0*%
%ADD31RoundRect,1.500000X1.500000X1.500000X-1.500000X1.500000X-1.500000X-1.500000X1.500000X-1.500000X0*%
%ADD32R,1.549400X4.241800*%
%ADD33FreePoly0,270.000000*%
%ADD34FreePoly1,270.000000*%
%ADD35RoundRect,1.500000X-1.500000X1.500000X-1.500000X-1.500000X1.500000X-1.500000X1.500000X1.500000X0*%
%ADD36RoundRect,0.250000X-0.325000X-0.450000X0.325000X-0.450000X0.325000X0.450000X-0.325000X0.450000X0*%
%ADD37FreePoly0,90.000000*%
%ADD38FreePoly1,90.000000*%
G04 APERTURE END LIST*
%TO.C,JP2*%
G36*
X232400000Y-129850000D02*
G01*
X230900000Y-129850000D01*
X230900000Y-130150000D01*
X232400000Y-130150000D01*
X232400000Y-129850000D01*
G37*
%TO.C,JP1*%
G36*
X181250000Y-118500000D02*
G01*
X182750000Y-118500000D01*
X182750000Y-118200000D01*
X181250000Y-118200000D01*
X181250000Y-118500000D01*
G37*
%TD*%
D10*
%TO.C,OC2*%
X208620000Y-75460000D03*
X208620000Y-78000000D03*
X208620000Y-80540000D03*
X208620000Y-83080000D03*
X201000000Y-83080000D03*
X201000000Y-80540000D03*
X201000000Y-78000000D03*
D11*
X201000000Y-75460000D03*
%TD*%
D12*
%TO.C,J4*%
X178360000Y-17220000D03*
D13*
X180900000Y-17220000D03*
X183440000Y-17220000D03*
X185980000Y-17220000D03*
X188520000Y-17220000D03*
X191060000Y-17220000D03*
X193600000Y-17220000D03*
X196140000Y-17220000D03*
X198680000Y-17220000D03*
X201220000Y-17220000D03*
X203760000Y-17220000D03*
X206300000Y-17220000D03*
X208840000Y-17220000D03*
X211380000Y-17220000D03*
X213920000Y-17220000D03*
X216460000Y-17220000D03*
X219000000Y-17220000D03*
X221540000Y-17220000D03*
X224080000Y-17220000D03*
X226620000Y-17220000D03*
%TD*%
D14*
%TO.C,MotorController2*%
X178360000Y-24840000D03*
X180900000Y-24840000D03*
X183440000Y-24840000D03*
X185980000Y-24840000D03*
X188520000Y-24840000D03*
X191060000Y-24840000D03*
X193600000Y-24840000D03*
X196140000Y-24840000D03*
X198680000Y-24840000D03*
X201220000Y-24840000D03*
X203760000Y-24840000D03*
X206300000Y-24840000D03*
X208840000Y-24840000D03*
X211380000Y-24840000D03*
X213920000Y-24840000D03*
X216460000Y-24840000D03*
X219000000Y-24840000D03*
X221540000Y-24840000D03*
X224080000Y-24840000D03*
X226620000Y-24840000D03*
X178360000Y-40080000D03*
X180900000Y-40080000D03*
X183440000Y-40080000D03*
X185980000Y-40080000D03*
X188520000Y-40080000D03*
X191060000Y-40080000D03*
X193600000Y-40080000D03*
X196140000Y-40080000D03*
X198680000Y-40080000D03*
X201220000Y-40080000D03*
X203760000Y-40080000D03*
X206300000Y-40080000D03*
X208840000Y-40080000D03*
X211380000Y-40080000D03*
X213920000Y-40080000D03*
X216460000Y-40080000D03*
X219000000Y-40080000D03*
X221540000Y-40080000D03*
X224080000Y-40080000D03*
X226620000Y-40080000D03*
%TD*%
D12*
%TO.C,J3*%
X178360000Y-47700000D03*
D13*
X180900000Y-47700000D03*
X183440000Y-47700000D03*
X185980000Y-47700000D03*
X188520000Y-47700000D03*
X191060000Y-47700000D03*
X193600000Y-47700000D03*
X196140000Y-47700000D03*
X198680000Y-47700000D03*
X201220000Y-47700000D03*
X203760000Y-47700000D03*
X206300000Y-47700000D03*
X208840000Y-47700000D03*
X211380000Y-47700000D03*
X213920000Y-47700000D03*
X216460000Y-47700000D03*
X219000000Y-47700000D03*
X221540000Y-47700000D03*
X224080000Y-47700000D03*
X226620000Y-47700000D03*
%TD*%
D10*
%TO.C,OC1*%
X200941300Y-69285900D03*
X200941300Y-66745900D03*
X200941300Y-64205900D03*
X200941300Y-61665900D03*
X208561300Y-61665900D03*
X208561300Y-64205900D03*
X208561300Y-66745900D03*
D11*
X208561300Y-69285900D03*
%TD*%
D15*
%TO.C,H7*%
X154830000Y-54584125D03*
D16*
X154830000Y-54584125D03*
%TD*%
D17*
%TO.C,STMFuse1*%
X182000000Y-113750000D03*
X182000000Y-112000000D03*
%TD*%
D18*
%TO.C,J27*%
X164400000Y-97500000D03*
D19*
X171600000Y-97500000D03*
%TD*%
D20*
%TO.C,C2*%
X217644700Y-102936800D03*
X217644700Y-101211800D03*
%TD*%
D21*
%TO.C,MDD3*%
X237058200Y-31677600D03*
D22*
X237058200Y-34177600D03*
X237058200Y-36677600D03*
%TD*%
D18*
%TO.C,J19*%
X164400000Y-83666667D03*
D19*
X171600000Y-83666667D03*
%TD*%
D23*
%TO.C,J11*%
X147000000Y-30200000D03*
D19*
X147000000Y-23000000D03*
%TD*%
D24*
%TO.C,R18*%
X212853900Y-79778000D03*
X212853900Y-81603000D03*
%TD*%
D18*
%TO.C,J15*%
X124670000Y-123190000D03*
D19*
X131870000Y-123190000D03*
%TD*%
D18*
%TO.C,J23*%
X145000000Y-124000000D03*
D19*
X152200000Y-124000000D03*
%TD*%
D25*
%TO.C,U3*%
X217947200Y-72866300D03*
X217947200Y-75406300D03*
X217947200Y-77946300D03*
X217947200Y-80486300D03*
X217947200Y-83026300D03*
X217947200Y-85566300D03*
X235727200Y-75406300D03*
X235727200Y-77946300D03*
X235727200Y-80486300D03*
X235727200Y-83026300D03*
%TD*%
D21*
%TO.C,MDD4*%
X237159800Y-56591200D03*
D22*
X237159800Y-59091200D03*
X237159800Y-61591200D03*
%TD*%
D26*
%TO.C,R17*%
X212853900Y-76421400D03*
X212853900Y-74596400D03*
%TD*%
D18*
%TO.C,J21*%
X164400000Y-139000000D03*
D19*
X171600000Y-139000000D03*
%TD*%
D27*
%TO.C,C3*%
X236137500Y-98000000D03*
X237862500Y-98000000D03*
%TD*%
D18*
%TO.C,J26*%
X164400000Y-111333333D03*
D19*
X171600000Y-111333333D03*
%TD*%
D18*
%TO.C,J29*%
X144000000Y-66000000D03*
D19*
X151200000Y-66000000D03*
%TD*%
D15*
%TO.C,H8*%
X204830000Y-54584125D03*
D16*
X204830000Y-54584125D03*
%TD*%
D18*
%TO.C,J28*%
X164400000Y-125166667D03*
D19*
X171600000Y-125166667D03*
%TD*%
D28*
%TO.C,J30*%
X141487201Y-111834450D03*
D29*
X143987201Y-111834450D03*
X146487201Y-111834450D03*
%TD*%
D30*
%TO.C,Encoder1*%
X187000000Y-78642910D03*
D22*
X187000000Y-76142910D03*
X187000000Y-73642910D03*
X187000000Y-71142910D03*
%TD*%
D15*
%TO.C,H6*%
X154830000Y-104584125D03*
D16*
X154830000Y-104584125D03*
%TD*%
D26*
%TO.C,R9*%
X218000000Y-107912500D03*
X218000000Y-106087500D03*
%TD*%
D23*
%TO.C,J10*%
X135000000Y-30200000D03*
D19*
X135000000Y-23000000D03*
%TD*%
D18*
%TO.C,J20*%
X145400000Y-138000000D03*
D19*
X152600000Y-138000000D03*
%TD*%
D31*
%TO.C,J24*%
X142600000Y-47000000D03*
D19*
X135400000Y-47000000D03*
%TD*%
D30*
%TO.C,Encoder2*%
X187000000Y-94195405D03*
D22*
X187000000Y-91695405D03*
X187000000Y-89195405D03*
X187000000Y-86695405D03*
%TD*%
D15*
%TO.C,H5*%
X204830000Y-104584125D03*
D16*
X204830000Y-104584125D03*
%TD*%
D31*
%TO.C,J8*%
X173000000Y-57000000D03*
D19*
X165800000Y-57000000D03*
%TD*%
D32*
%TO.C,L1*%
X221245400Y-95750000D03*
X225004600Y-95750000D03*
%TD*%
D18*
%TO.C,J14*%
X124670000Y-108585000D03*
D19*
X131870000Y-108585000D03*
%TD*%
D21*
%TO.C,MDD1*%
X237058200Y-19561800D03*
D22*
X237058200Y-22061800D03*
X237058200Y-24561800D03*
%TD*%
D30*
%TO.C,Encoder3*%
X187000000Y-64000000D03*
D22*
X187000000Y-61500000D03*
X187000000Y-59000000D03*
X187000000Y-56500000D03*
%TD*%
D18*
%TO.C,J25*%
X124670000Y-137795000D03*
D19*
X131870000Y-137795000D03*
%TD*%
D27*
%TO.C,C1*%
X229275000Y-98000000D03*
X231000000Y-98000000D03*
%TD*%
D33*
%TO.C,JP2*%
X231650000Y-129350000D03*
D34*
X231650000Y-130650000D03*
%TD*%
D26*
%TO.C,R8*%
X212168100Y-68737000D03*
X212168100Y-66912000D03*
%TD*%
D35*
%TO.C,J18*%
X122000000Y-23000000D03*
D19*
X122000000Y-30200000D03*
%TD*%
D36*
%TO.C,D2*%
X161080000Y-20000000D03*
X163130000Y-20000000D03*
%TD*%
D18*
%TO.C,J13*%
X124670000Y-79375000D03*
D19*
X131870000Y-79375000D03*
%TD*%
D12*
%TO.C,J2*%
X185980000Y-112520000D03*
D13*
X188520000Y-112520000D03*
X191060000Y-112520000D03*
X193600000Y-112520000D03*
X196140000Y-112520000D03*
X198680000Y-112520000D03*
X201220000Y-112520000D03*
X203760000Y-112520000D03*
X206300000Y-112520000D03*
X208840000Y-112520000D03*
X211380000Y-112520000D03*
X213920000Y-112520000D03*
X216460000Y-112520000D03*
X219000000Y-112520000D03*
X221540000Y-112520000D03*
X224080000Y-112520000D03*
X226620000Y-112520000D03*
X229160000Y-112520000D03*
X231700000Y-112520000D03*
X234240000Y-112520000D03*
%TD*%
D14*
%TO.C,MotorController1*%
X185980000Y-120140000D03*
X188520000Y-120140000D03*
X191060000Y-120140000D03*
X193600000Y-120140000D03*
X196140000Y-120140000D03*
X198680000Y-120140000D03*
X201220000Y-120140000D03*
X203760000Y-120140000D03*
X206300000Y-120140000D03*
X208840000Y-120140000D03*
X211380000Y-120140000D03*
X213920000Y-120140000D03*
X216460000Y-120140000D03*
X219000000Y-120140000D03*
X221540000Y-120140000D03*
X224080000Y-120140000D03*
X226620000Y-120140000D03*
X229160000Y-120140000D03*
X231700000Y-120140000D03*
X234240000Y-120140000D03*
X185980000Y-135380000D03*
X188520000Y-135380000D03*
X191060000Y-135380000D03*
X193600000Y-135380000D03*
X196140000Y-135380000D03*
X198680000Y-135380000D03*
X201220000Y-135380000D03*
X203760000Y-135380000D03*
X206300000Y-135380000D03*
X208840000Y-135380000D03*
X211380000Y-135380000D03*
X213920000Y-135380000D03*
X216460000Y-135380000D03*
X219000000Y-135380000D03*
X221540000Y-135380000D03*
X224080000Y-135380000D03*
X226620000Y-135380000D03*
X229160000Y-135380000D03*
X231700000Y-135380000D03*
X234240000Y-135380000D03*
%TD*%
D36*
%TO.C,D1*%
X166993300Y-20000000D03*
X169043300Y-20000000D03*
%TD*%
D25*
%TO.C,U2*%
X221460000Y-102000000D03*
X224000000Y-102000000D03*
X226540000Y-102000000D03*
X234160000Y-102000000D03*
X236700000Y-102000000D03*
X239240000Y-102000000D03*
%TD*%
D18*
%TO.C,J16*%
X144000000Y-92358564D03*
D19*
X151200000Y-92358564D03*
%TD*%
D18*
%TO.C,J7*%
X124670000Y-64770000D03*
D19*
X131870000Y-64770000D03*
%TD*%
D23*
%TO.C,J9*%
X123000000Y-51600000D03*
D19*
X123000000Y-44400000D03*
%TD*%
D37*
%TO.C,JP1*%
X182000000Y-119000000D03*
D38*
X182000000Y-117700000D03*
%TD*%
D18*
%TO.C,J17*%
X144000000Y-78679282D03*
D19*
X151200000Y-78679282D03*
%TD*%
D21*
%TO.C,MDD2*%
X237109000Y-44032800D03*
D22*
X237109000Y-46532800D03*
X237109000Y-49032800D03*
%TD*%
D12*
%TO.C,J1*%
X185980000Y-143000000D03*
D13*
X188520000Y-143000000D03*
X191060000Y-143000000D03*
X193600000Y-143000000D03*
X196140000Y-143000000D03*
X198680000Y-143000000D03*
X201220000Y-143000000D03*
X203760000Y-143000000D03*
X206300000Y-143000000D03*
X208840000Y-143000000D03*
X211380000Y-143000000D03*
X213920000Y-143000000D03*
X216460000Y-143000000D03*
X219000000Y-143000000D03*
X221540000Y-143000000D03*
X224080000Y-143000000D03*
X226620000Y-143000000D03*
X229160000Y-143000000D03*
X231700000Y-143000000D03*
X234240000Y-143000000D03*
%TD*%
D18*
%TO.C,J6*%
X124670000Y-93980000D03*
D19*
X131870000Y-93980000D03*
%TD*%
D28*
%TO.C,J31*%
X141500000Y-102475000D03*
D29*
X144000000Y-102475000D03*
X146500000Y-102475000D03*
%TD*%
D18*
%TO.C,J22*%
X164400000Y-69833333D03*
D19*
X171600000Y-69833333D03*
%TD*%
D26*
%TO.C,R1*%
X170862500Y-34814000D03*
X170862500Y-32989000D03*
%TD*%
M02*
