%TF.GenerationSoftware,KiCad,Pcbnew,9.0.2*%
%TF.CreationDate,2025-11-07T19:27:10+05:30*%
%TF.ProjectId,RCUP_BASE_PCB_2,52435550-5f42-4415-9345-5f5043425f32,rev?*%
%TF.SameCoordinates,Original*%
%TF.FileFunction,Soldermask,Bot*%
%TF.FilePolarity,Negative*%
%FSLAX46Y46*%
G04 Gerber Fmt 4.6, Leading zero omitted, Abs format (unit mm)*
G04 Created by KiCad (PCBNEW 9.0.2) date 2025-11-07 19:27:10*
%MOMM*%
%LPD*%
G01*
G04 APERTURE LIST*
G04 Aperture macros list*
%AMRoundRect*
0 Rectangle with rounded corners*
0 $1 Rounding radius*
0 $2 $3 $4 $5 $6 $7 $8 $9 X,Y pos of 4 corners*
0 Add a 4 corners polygon primitive as box body*
4,1,4,$2,$3,$4,$5,$6,$7,$8,$9,$2,$3,0*
0 Add four circle primitives for the rounded corners*
1,1,$1+$1,$2,$3*
1,1,$1+$1,$4,$5*
1,1,$1+$1,$6,$7*
1,1,$1+$1,$8,$9*
0 Add four rect primitives between the rounded corners*
20,1,$1+$1,$2,$3,$4,$5,0*
20,1,$1+$1,$4,$5,$6,$7,0*
20,1,$1+$1,$6,$7,$8,$9,0*
20,1,$1+$1,$8,$9,$2,$3,0*%
G04 Aperture macros list end*
%ADD10C,4.700000*%
%ADD11C,7.500000*%
%ADD12RoundRect,1.500000X-1.500000X-1.500000X1.500000X-1.500000X1.500000X1.500000X-1.500000X1.500000X0*%
%ADD13C,6.000000*%
%ADD14RoundRect,0.250000X-0.725000X0.600000X-0.725000X-0.600000X0.725000X-0.600000X0.725000X0.600000X0*%
%ADD15O,1.950000X1.700000*%
%ADD16RoundRect,1.500000X1.500000X-1.500000X1.500000X1.500000X-1.500000X1.500000X-1.500000X-1.500000X0*%
%ADD17C,1.500000*%
%ADD18R,1.700000X1.700000*%
%ADD19C,1.700000*%
%ADD20RoundRect,0.250000X-0.600000X-0.725000X0.600000X-0.725000X0.600000X0.725000X-0.600000X0.725000X0*%
%ADD21O,1.700000X1.950000*%
%ADD22RoundRect,0.250000X0.725000X-0.600000X0.725000X0.600000X-0.725000X0.600000X-0.725000X-0.600000X0*%
%ADD23C,1.524000*%
%ADD24RoundRect,1.500000X1.500000X1.500000X-1.500000X1.500000X-1.500000X-1.500000X1.500000X-1.500000X0*%
%ADD25RoundRect,0.237500X0.237500X-0.300000X0.237500X0.300000X-0.237500X0.300000X-0.237500X-0.300000X0*%
%ADD26R,2.400000X1.600000*%
%ADD27O,2.400000X1.600000*%
%ADD28RoundRect,0.249999X-0.850001X-0.850001X0.850001X-0.850001X0.850001X0.850001X-0.850001X0.850001X0*%
%ADD29C,2.200000*%
%ADD30RoundRect,1.500000X-1.500000X1.500000X-1.500000X-1.500000X1.500000X-1.500000X1.500000X1.500000X0*%
%ADD31R,1.130000X1.130000*%
%ADD32C,1.130000*%
%ADD33RoundRect,0.237500X0.237500X-0.250000X0.237500X0.250000X-0.237500X0.250000X-0.237500X-0.250000X0*%
%ADD34RoundRect,0.237500X0.237500X-0.287500X0.237500X0.287500X-0.237500X0.287500X-0.237500X-0.287500X0*%
%ADD35RoundRect,0.237500X0.287500X0.237500X-0.287500X0.237500X-0.287500X-0.237500X0.287500X-0.237500X0*%
%ADD36RoundRect,0.150000X-0.512500X-0.150000X0.512500X-0.150000X0.512500X0.150000X-0.512500X0.150000X0*%
%ADD37RoundRect,0.237500X-0.250000X-0.237500X0.250000X-0.237500X0.250000X0.237500X-0.250000X0.237500X0*%
%ADD38RoundRect,0.237500X0.250000X0.237500X-0.250000X0.237500X-0.250000X-0.237500X0.250000X-0.237500X0*%
%ADD39RoundRect,0.237500X0.300000X0.237500X-0.300000X0.237500X-0.300000X-0.237500X0.300000X-0.237500X0*%
%ADD40RoundRect,0.237500X-0.237500X0.250000X-0.237500X-0.250000X0.237500X-0.250000X0.237500X0.250000X0*%
%ADD41RoundRect,0.237500X-0.300000X-0.237500X0.300000X-0.237500X0.300000X0.237500X-0.300000X0.237500X0*%
%ADD42RoundRect,0.150000X0.150000X-0.512500X0.150000X0.512500X-0.150000X0.512500X-0.150000X-0.512500X0*%
G04 APERTURE END LIST*
D10*
%TO.C,H7*%
X154830000Y-54584125D03*
D11*
X154830000Y-54584125D03*
%TD*%
D12*
%TO.C,J27*%
X164400000Y-97500000D03*
D13*
X171600000Y-97500000D03*
%TD*%
D14*
%TO.C,MDD3*%
X237058200Y-31677600D03*
D15*
X237058200Y-34177600D03*
X237058200Y-36677600D03*
%TD*%
D12*
%TO.C,J19*%
X164400000Y-83666667D03*
D13*
X171600000Y-83666667D03*
%TD*%
D16*
%TO.C,J11*%
X147000000Y-30200000D03*
D13*
X147000000Y-23000000D03*
%TD*%
D12*
%TO.C,J15*%
X124670000Y-123190000D03*
D13*
X131870000Y-123190000D03*
%TD*%
D12*
%TO.C,J23*%
X145000000Y-124000000D03*
D13*
X152200000Y-124000000D03*
%TD*%
D17*
%TO.C,U3*%
X217947200Y-72866300D03*
X217947200Y-75406300D03*
X217947200Y-77946300D03*
X217947200Y-80486300D03*
X217947200Y-83026300D03*
X217947200Y-85566300D03*
X235727200Y-75406300D03*
X235727200Y-77946300D03*
X235727200Y-80486300D03*
X235727200Y-83026300D03*
%TD*%
D14*
%TO.C,MDD4*%
X237159800Y-56591200D03*
D15*
X237159800Y-59091200D03*
X237159800Y-61591200D03*
%TD*%
D12*
%TO.C,J21*%
X164400000Y-139000000D03*
D13*
X171600000Y-139000000D03*
%TD*%
D12*
%TO.C,J26*%
X164400000Y-111333333D03*
D13*
X171600000Y-111333333D03*
%TD*%
D12*
%TO.C,J29*%
X144000000Y-66000000D03*
D13*
X151200000Y-66000000D03*
%TD*%
D10*
%TO.C,H8*%
X204830000Y-54584125D03*
D11*
X204830000Y-54584125D03*
%TD*%
D18*
%TO.C,J3*%
X178360000Y-47700000D03*
D19*
X180900000Y-47700000D03*
X183440000Y-47700000D03*
X185980000Y-47700000D03*
X188520000Y-47700000D03*
X191060000Y-47700000D03*
X193600000Y-47700000D03*
X196140000Y-47700000D03*
X198680000Y-47700000D03*
X201220000Y-47700000D03*
X203760000Y-47700000D03*
X206300000Y-47700000D03*
X208840000Y-47700000D03*
X211380000Y-47700000D03*
X213920000Y-47700000D03*
X216460000Y-47700000D03*
X219000000Y-47700000D03*
X221540000Y-47700000D03*
X224080000Y-47700000D03*
X226620000Y-47700000D03*
%TD*%
D12*
%TO.C,J28*%
X164400000Y-125166667D03*
D13*
X171600000Y-125166667D03*
%TD*%
D20*
%TO.C,J30*%
X141487201Y-111834450D03*
D21*
X143987201Y-111834450D03*
X146487201Y-111834450D03*
%TD*%
D22*
%TO.C,Encoder1*%
X187000000Y-78642910D03*
D15*
X187000000Y-76142910D03*
X187000000Y-73642910D03*
X187000000Y-71142910D03*
%TD*%
D10*
%TO.C,H6*%
X154830000Y-104584125D03*
D11*
X154830000Y-104584125D03*
%TD*%
D16*
%TO.C,J10*%
X135000000Y-30200000D03*
D13*
X135000000Y-23000000D03*
%TD*%
D23*
%TO.C,MotorController2*%
X178360000Y-24840000D03*
X180900000Y-24840000D03*
X183440000Y-24840000D03*
X185980000Y-24840000D03*
X188520000Y-24840000D03*
X191060000Y-24840000D03*
X193600000Y-24840000D03*
X196140000Y-24840000D03*
X198680000Y-24840000D03*
X201220000Y-24840000D03*
X203760000Y-24840000D03*
X206300000Y-24840000D03*
X208840000Y-24840000D03*
X211380000Y-24840000D03*
X213920000Y-24840000D03*
X216460000Y-24840000D03*
X219000000Y-24840000D03*
X221540000Y-24840000D03*
X224080000Y-24840000D03*
X226620000Y-24840000D03*
X178360000Y-40080000D03*
X180900000Y-40080000D03*
X183440000Y-40080000D03*
X185980000Y-40080000D03*
X188520000Y-40080000D03*
X191060000Y-40080000D03*
X193600000Y-40080000D03*
X196140000Y-40080000D03*
X198680000Y-40080000D03*
X201220000Y-40080000D03*
X203760000Y-40080000D03*
X206300000Y-40080000D03*
X208840000Y-40080000D03*
X211380000Y-40080000D03*
X213920000Y-40080000D03*
X216460000Y-40080000D03*
X219000000Y-40080000D03*
X221540000Y-40080000D03*
X224080000Y-40080000D03*
X226620000Y-40080000D03*
%TD*%
D12*
%TO.C,J20*%
X145400000Y-138000000D03*
D13*
X152600000Y-138000000D03*
%TD*%
D24*
%TO.C,J24*%
X142600000Y-47000000D03*
D13*
X135400000Y-47000000D03*
%TD*%
D18*
%TO.C,J4*%
X178360000Y-17220000D03*
D19*
X180900000Y-17220000D03*
X183440000Y-17220000D03*
X185980000Y-17220000D03*
X188520000Y-17220000D03*
X191060000Y-17220000D03*
X193600000Y-17220000D03*
X196140000Y-17220000D03*
X198680000Y-17220000D03*
X201220000Y-17220000D03*
X203760000Y-17220000D03*
X206300000Y-17220000D03*
X208840000Y-17220000D03*
X211380000Y-17220000D03*
X213920000Y-17220000D03*
X216460000Y-17220000D03*
X219000000Y-17220000D03*
X221540000Y-17220000D03*
X224080000Y-17220000D03*
X226620000Y-17220000D03*
%TD*%
D22*
%TO.C,Encoder2*%
X187000000Y-94195405D03*
D15*
X187000000Y-91695405D03*
X187000000Y-89195405D03*
X187000000Y-86695405D03*
%TD*%
D10*
%TO.C,H5*%
X204830000Y-104584125D03*
D11*
X204830000Y-104584125D03*
%TD*%
D24*
%TO.C,J8*%
X173000000Y-57000000D03*
D13*
X165800000Y-57000000D03*
%TD*%
D25*
%TO.C,C4*%
X197250000Y-67112500D03*
X197250000Y-65387500D03*
%TD*%
D12*
%TO.C,J14*%
X124670000Y-108585000D03*
D13*
X131870000Y-108585000D03*
%TD*%
D26*
%TO.C,OC1*%
X208561300Y-69285900D03*
D27*
X208561300Y-66745900D03*
X208561300Y-64205900D03*
X208561300Y-61665900D03*
X200941300Y-61665900D03*
X200941300Y-64205900D03*
X200941300Y-66745900D03*
X200941300Y-69285900D03*
%TD*%
D14*
%TO.C,MDD1*%
X237058200Y-19561800D03*
D15*
X237058200Y-22061800D03*
X237058200Y-24561800D03*
%TD*%
D22*
%TO.C,Encoder3*%
X187000000Y-64000000D03*
D15*
X187000000Y-61500000D03*
X187000000Y-59000000D03*
X187000000Y-56500000D03*
%TD*%
D12*
%TO.C,J25*%
X124670000Y-137795000D03*
D13*
X131870000Y-137795000D03*
%TD*%
D26*
%TO.C,OC2*%
X208754100Y-83880900D03*
D27*
X208754100Y-81340900D03*
X208754100Y-78800900D03*
X208754100Y-76260900D03*
X201134100Y-76260900D03*
X201134100Y-78800900D03*
X201134100Y-81340900D03*
X201134100Y-83880900D03*
%TD*%
D28*
%TO.C,D3*%
X159000000Y-26000000D03*
D29*
X169160000Y-26000000D03*
%TD*%
D30*
%TO.C,J18*%
X122000000Y-23000000D03*
D13*
X122000000Y-30200000D03*
%TD*%
D12*
%TO.C,J13*%
X124670000Y-79375000D03*
D13*
X131870000Y-79375000D03*
%TD*%
D18*
%TO.C,J2*%
X185980000Y-112520000D03*
D19*
X188520000Y-112520000D03*
X191060000Y-112520000D03*
X193600000Y-112520000D03*
X196140000Y-112520000D03*
X198680000Y-112520000D03*
X201220000Y-112520000D03*
X203760000Y-112520000D03*
X206300000Y-112520000D03*
X208840000Y-112520000D03*
X211380000Y-112520000D03*
X213920000Y-112520000D03*
X216460000Y-112520000D03*
X219000000Y-112520000D03*
X221540000Y-112520000D03*
X224080000Y-112520000D03*
X226620000Y-112520000D03*
X229160000Y-112520000D03*
X231700000Y-112520000D03*
X234240000Y-112520000D03*
%TD*%
D23*
%TO.C,MotorController1*%
X185980000Y-120140000D03*
X188520000Y-120140000D03*
X191060000Y-120140000D03*
X193600000Y-120140000D03*
X196140000Y-120140000D03*
X198680000Y-120140000D03*
X201220000Y-120140000D03*
X203760000Y-120140000D03*
X206300000Y-120140000D03*
X208840000Y-120140000D03*
X211380000Y-120140000D03*
X213920000Y-120140000D03*
X216460000Y-120140000D03*
X219000000Y-120140000D03*
X221540000Y-120140000D03*
X224080000Y-120140000D03*
X226620000Y-120140000D03*
X229160000Y-120140000D03*
X231700000Y-120140000D03*
X234240000Y-120140000D03*
X185980000Y-135380000D03*
X188520000Y-135380000D03*
X191060000Y-135380000D03*
X193600000Y-135380000D03*
X196140000Y-135380000D03*
X198680000Y-135380000D03*
X201220000Y-135380000D03*
X203760000Y-135380000D03*
X206300000Y-135380000D03*
X208840000Y-135380000D03*
X211380000Y-135380000D03*
X213920000Y-135380000D03*
X216460000Y-135380000D03*
X219000000Y-135380000D03*
X221540000Y-135380000D03*
X224080000Y-135380000D03*
X226620000Y-135380000D03*
X229160000Y-135380000D03*
X231700000Y-135380000D03*
X234240000Y-135380000D03*
%TD*%
D17*
%TO.C,U2*%
X221460000Y-102000000D03*
X224000000Y-102000000D03*
X226540000Y-102000000D03*
X231620000Y-102000000D03*
X234160000Y-102000000D03*
X236700000Y-102000000D03*
X239240000Y-102000000D03*
%TD*%
D12*
%TO.C,J16*%
X144000000Y-92358564D03*
D13*
X151200000Y-92358564D03*
%TD*%
D12*
%TO.C,J7*%
X124670000Y-64770000D03*
D13*
X131870000Y-64770000D03*
%TD*%
D16*
%TO.C,J9*%
X123000000Y-51600000D03*
D13*
X123000000Y-44400000D03*
%TD*%
D12*
%TO.C,J17*%
X144000000Y-78679282D03*
D13*
X151200000Y-78679282D03*
%TD*%
D14*
%TO.C,MDD2*%
X237109000Y-44032800D03*
D15*
X237109000Y-46532800D03*
X237109000Y-49032800D03*
%TD*%
D31*
%TO.C,U1*%
X159000000Y-34000000D03*
D32*
X159000000Y-36540000D03*
X159000000Y-39080000D03*
X159000000Y-41620000D03*
X166940000Y-41620000D03*
X166940000Y-39080000D03*
X166940000Y-36540000D03*
X166940000Y-34000000D03*
%TD*%
D18*
%TO.C,J1*%
X185980000Y-143000000D03*
D19*
X188520000Y-143000000D03*
X191060000Y-143000000D03*
X193600000Y-143000000D03*
X196140000Y-143000000D03*
X198680000Y-143000000D03*
X201220000Y-143000000D03*
X203760000Y-143000000D03*
X206300000Y-143000000D03*
X208840000Y-143000000D03*
X211380000Y-143000000D03*
X213920000Y-143000000D03*
X216460000Y-143000000D03*
X219000000Y-143000000D03*
X221540000Y-143000000D03*
X224080000Y-143000000D03*
X226620000Y-143000000D03*
X229160000Y-143000000D03*
X231700000Y-143000000D03*
X234240000Y-143000000D03*
%TD*%
D12*
%TO.C,J6*%
X124670000Y-93980000D03*
D13*
X131870000Y-93980000D03*
%TD*%
D20*
%TO.C,J31*%
X141500000Y-102475000D03*
D21*
X144000000Y-102475000D03*
X146500000Y-102475000D03*
%TD*%
D12*
%TO.C,J22*%
X164400000Y-69833333D03*
D13*
X171600000Y-69833333D03*
%TD*%
D33*
%TO.C,R14*%
X204660000Y-29825000D03*
X204660000Y-28000000D03*
%TD*%
%TO.C,R11*%
X212345000Y-29825000D03*
X212345000Y-28000000D03*
%TD*%
D34*
%TO.C,BNO1*%
X229148600Y-78606700D03*
X229148600Y-76856700D03*
%TD*%
D35*
%TO.C,STMFuse2*%
X192440000Y-28912500D03*
X190690000Y-28912500D03*
%TD*%
D33*
%TO.C,R20*%
X222493800Y-83989600D03*
X222493800Y-82164600D03*
%TD*%
%TO.C,R16*%
X199440833Y-29825000D03*
X199440833Y-28000000D03*
%TD*%
D36*
%TO.C,U8*%
X200725000Y-36000000D03*
X200725000Y-35050000D03*
X200725000Y-34100000D03*
X203000000Y-34100000D03*
X203000000Y-35050000D03*
X203000000Y-36000000D03*
%TD*%
D33*
%TO.C,R12*%
X216460000Y-29562500D03*
X216460000Y-27737500D03*
%TD*%
D37*
%TO.C,R10*%
X163925300Y-45709400D03*
X165750300Y-45709400D03*
%TD*%
D33*
%TO.C,R19*%
X222417600Y-79062000D03*
X222417600Y-77237000D03*
%TD*%
D38*
%TO.C,R5*%
X164020400Y-36264400D03*
X162195400Y-36264400D03*
%TD*%
D39*
%TO.C,C6*%
X236624700Y-106120000D03*
X234899700Y-106120000D03*
%TD*%
D38*
%TO.C,R7*%
X164082900Y-39914400D03*
X162257900Y-39914400D03*
%TD*%
D40*
%TO.C,R2*%
X230035000Y-105329300D03*
X230035000Y-107154300D03*
%TD*%
D33*
%TO.C,R15*%
X197040000Y-29825000D03*
X197040000Y-28000000D03*
%TD*%
D41*
%TO.C,C5*%
X222275000Y-106120000D03*
X224000000Y-106120000D03*
%TD*%
D36*
%TO.C,U5*%
X191862500Y-35950000D03*
X191862500Y-35000000D03*
X191862500Y-34050000D03*
X194137500Y-34050000D03*
X194137500Y-35000000D03*
X194137500Y-35950000D03*
%TD*%
%TO.C,U6*%
X215862500Y-35950000D03*
X215862500Y-35000000D03*
X215862500Y-34050000D03*
X218137500Y-34050000D03*
X218137500Y-35000000D03*
X218137500Y-35950000D03*
%TD*%
D33*
%TO.C,R13*%
X207200000Y-29825000D03*
X207200000Y-28000000D03*
%TD*%
D42*
%TO.C,U4*%
X230987600Y-85267800D03*
X230037600Y-85267800D03*
X229087600Y-85267800D03*
X229087600Y-82992800D03*
X230037600Y-82992800D03*
X230987600Y-82992800D03*
%TD*%
D36*
%TO.C,U7*%
X207862500Y-35950000D03*
X207862500Y-35000000D03*
X207862500Y-34050000D03*
X210137500Y-34050000D03*
X210137500Y-35000000D03*
X210137500Y-35950000D03*
%TD*%
M02*
