M48
; DRILL file {KiCad 9.0.2} date 2025-11-07T19:27:02+0530
; FORMAT={-:-/ absolute / inch / decimal}
; #@! TF.CreationDate,2025-11-07T19:27:02+05:30
; #@! TF.GenerationSoftware,Kicad,Pcbnew,9.0.2
; #@! TF.FileFunction,Plated,1,2,PTH
FMAT,2
INCH
; #@! TA.AperFunction,Plated,PTH,ViaDrill
T1C0.0118
; #@! TA.AperFunction,Plated,PTH,ComponentDrill
T2C0.0300
; #@! TA.AperFunction,Plated,PTH,ComponentDrill
T3C0.0307
; #@! TA.AperFunction,Plated,PTH,ComponentDrill
T4C0.0315
; #@! TA.AperFunction,Plated,PTH,ComponentDrill
T5C0.0374
; #@! TA.AperFunction,Plated,PTH,ComponentDrill
T6C0.0394
; #@! TA.AperFunction,Plated,PTH,ComponentDrill
T7C0.0433
; #@! TA.AperFunction,Plated,PTH,ComponentDrill
T8C0.1693
; #@! TA.AperFunction,Plated,PTH,ComponentDrill
T9C0.1772
%
G90
G05
T1
X6.3881Y-1.5714
X6.4173Y-1.5256
X6.4173Y-1.7323
X6.4575Y-1.4277
X6.4961Y-1.752
X6.5256Y-1.7996
X6.624Y-1.3878
X6.6535Y-1.4961
X6.7282Y-1.7722
X6.7323Y-1.5551
X8.0217Y-2.9626
X8.6417Y-3.9567
X8.6811Y-3.3366
X8.7104Y-3.7697
X8.8584Y-3.7697
X8.8681Y-4.1732
X8.9075Y-4.2126
X8.9272Y-3.0413
X9.0216Y-3.0259
X9.0266Y-3.8583
X9.0565Y-4.2187
X9.2968Y-3.8583
X9.3159Y-4.178
T2
X7.022Y-0.978
X7.022Y-1.578
X7.122Y-0.978
X7.122Y-1.578
X7.222Y-0.978
X7.222Y-1.578
X7.322Y-0.978
X7.322Y-1.578
X7.322Y-4.7299
X7.322Y-5.3299
X7.422Y-0.978
X7.422Y-1.578
X7.422Y-4.7299
X7.422Y-5.3299
X7.522Y-0.978
X7.522Y-1.578
X7.522Y-4.7299
X7.522Y-5.3299
X7.622Y-0.978
X7.622Y-1.578
X7.622Y-4.7299
X7.622Y-5.3299
X7.722Y-0.978
X7.722Y-1.578
X7.722Y-4.7299
X7.722Y-5.3299
X7.822Y-0.978
X7.822Y-1.578
X7.822Y-4.7299
X7.822Y-5.3299
X7.922Y-0.978
X7.922Y-1.578
X7.922Y-4.7299
X7.922Y-5.3299
X8.022Y-0.978
X8.022Y-1.578
X8.022Y-4.7299
X8.022Y-5.3299
X8.122Y-0.978
X8.122Y-1.578
X8.122Y-4.7299
X8.122Y-5.3299
X8.222Y-0.978
X8.222Y-1.578
X8.222Y-4.7299
X8.222Y-5.3299
X8.322Y-0.978
X8.322Y-1.578
X8.322Y-4.7299
X8.322Y-5.3299
X8.422Y-0.978
X8.422Y-1.578
X8.422Y-4.7299
X8.422Y-5.3299
X8.522Y-0.978
X8.522Y-1.578
X8.522Y-4.7299
X8.522Y-5.3299
X8.622Y-0.978
X8.622Y-1.578
X8.622Y-4.7299
X8.622Y-5.3299
X8.722Y-0.978
X8.722Y-1.578
X8.722Y-4.7299
X8.722Y-5.3299
X8.822Y-0.978
X8.822Y-1.578
X8.822Y-4.7299
X8.822Y-5.3299
X8.922Y-0.978
X8.922Y-1.578
X8.922Y-4.7299
X8.922Y-5.3299
X9.022Y-4.7299
X9.022Y-5.3299
X9.122Y-4.7299
X9.122Y-5.3299
X9.222Y-4.7299
X9.222Y-5.3299
T3
X6.2598Y-1.3386
X6.2598Y-1.4386
X6.2598Y-1.5386
X6.2598Y-1.6386
X6.5724Y-1.3386
X6.5724Y-1.4386
X6.5724Y-1.5386
X6.5724Y-1.6386
T4
X7.9111Y-2.4278
X7.9111Y-2.5278
X7.9111Y-2.6278
X7.9111Y-2.7278
X7.9187Y-3.0024
X7.9187Y-3.1024
X7.9187Y-3.2024
X7.9187Y-3.3024
X8.2111Y-2.4278
X8.2111Y-2.5278
X8.2111Y-2.6278
X8.2111Y-2.7278
X8.2187Y-3.0024
X8.2187Y-3.1024
X8.2187Y-3.2024
X8.2187Y-3.3024
X8.5806Y-2.8688
X8.5806Y-2.9688
X8.5806Y-3.0688
X8.5806Y-3.1688
X8.5806Y-3.2688
X8.5806Y-3.3688
X9.2806Y-2.9688
X9.2806Y-3.0688
X9.2806Y-3.1688
X9.2806Y-3.2688
T5
X5.5704Y-4.4029
X5.5709Y-4.0344
X5.6688Y-4.4029
X5.6693Y-4.0344
X5.7672Y-4.4029
X5.7677Y-4.0344
X7.3622Y-2.2244
X7.3622Y-2.3228
X7.3622Y-2.4213
X7.3622Y-2.5197
X7.3622Y-2.8009
X7.3622Y-2.8993
X7.3622Y-2.9978
X7.3622Y-3.0962
X7.3622Y-3.4132
X7.3622Y-3.5116
X7.3622Y-3.6101
X7.3622Y-3.7085
X9.333Y-0.7701
X9.333Y-0.8686
X9.333Y-0.967
X9.333Y-1.2471
X9.333Y-1.3456
X9.333Y-1.444
X9.335Y-1.7336
X9.335Y-1.832
X9.335Y-1.9304
X9.337Y-2.228
X9.337Y-2.3264
X9.337Y-2.4249
T6
X7.022Y-0.678
X7.022Y-1.878
X7.122Y-0.678
X7.122Y-1.878
X7.222Y-0.678
X7.222Y-1.878
X7.322Y-0.678
X7.322Y-1.878
X7.322Y-4.4299
X7.322Y-5.6299
X7.422Y-0.678
X7.422Y-1.878
X7.422Y-4.4299
X7.422Y-5.6299
X7.522Y-0.678
X7.522Y-1.878
X7.522Y-4.4299
X7.522Y-5.6299
X7.622Y-0.678
X7.622Y-1.878
X7.622Y-4.4299
X7.622Y-5.6299
X7.722Y-0.678
X7.722Y-1.878
X7.722Y-4.4299
X7.722Y-5.6299
X7.822Y-0.678
X7.822Y-1.878
X7.822Y-4.4299
X7.822Y-5.6299
X7.922Y-0.678
X7.922Y-1.878
X7.922Y-4.4299
X7.922Y-5.6299
X8.022Y-0.678
X8.022Y-1.878
X8.022Y-4.4299
X8.022Y-5.6299
X8.122Y-0.678
X8.122Y-1.878
X8.122Y-4.4299
X8.122Y-5.6299
X8.222Y-0.678
X8.222Y-1.878
X8.222Y-4.4299
X8.222Y-5.6299
X8.322Y-0.678
X8.322Y-1.878
X8.322Y-4.4299
X8.322Y-5.6299
X8.422Y-0.678
X8.422Y-1.878
X8.422Y-4.4299
X8.422Y-5.6299
X8.522Y-0.678
X8.522Y-1.878
X8.522Y-4.4299
X8.522Y-5.6299
X8.622Y-0.678
X8.622Y-1.878
X8.622Y-4.4299
X8.622Y-5.6299
X8.7189Y-4.0157
X8.722Y-0.678
X8.722Y-1.878
X8.722Y-4.4299
X8.722Y-5.6299
X8.8189Y-4.0157
X8.822Y-0.678
X8.822Y-1.878
X8.822Y-4.4299
X8.822Y-5.6299
X8.9189Y-4.0157
X8.922Y-0.678
X8.922Y-1.878
X8.922Y-4.4299
X8.922Y-5.6299
X9.022Y-4.4299
X9.022Y-5.6299
X9.1189Y-4.0157
X9.122Y-4.4299
X9.122Y-5.6299
X9.2189Y-4.0157
X9.222Y-4.4299
X9.222Y-5.6299
X9.3189Y-4.0157
X9.4189Y-4.0157
T7
X6.2598Y-1.0236
X6.6598Y-1.0236
T8
X6.0957Y-2.149
X6.0957Y-4.1175
X8.0642Y-2.149
X8.0642Y-4.1175
T9
X4.8031Y-0.9055
X4.8031Y-1.189
X4.8425Y-1.748
X4.8425Y-2.0315
X4.9083Y-2.55
X4.9083Y-3.125
X4.9083Y-3.7
X4.9083Y-4.275
X4.9083Y-4.85
X4.9083Y-5.425
X5.1917Y-2.55
X5.1917Y-3.125
X5.1917Y-3.7
X5.1917Y-4.275
X5.1917Y-4.85
X5.1917Y-5.425
X5.315Y-0.9055
X5.315Y-1.189
X5.3307Y-1.8504
X5.6142Y-1.8504
X5.6693Y-2.5984
X5.6693Y-3.0976
X5.6693Y-3.6362
X5.7087Y-4.8819
X5.7244Y-5.4331
X5.7874Y-0.9055
X5.7874Y-1.189
X5.9528Y-2.5984
X5.9528Y-3.0976
X5.9528Y-3.6362
X5.9921Y-4.8819
X6.0079Y-5.4331
X6.4724Y-2.7493
X6.4724Y-3.294
X6.4724Y-3.8386
X6.4724Y-4.3832
X6.4724Y-4.9278
X6.4724Y-5.4724
X6.5276Y-2.2441
X6.7559Y-2.7493
X6.7559Y-3.294
X6.7559Y-3.8386
X6.7559Y-4.3832
X6.7559Y-4.9278
X6.7559Y-5.4724
X6.811Y-2.2441
M30
